<?xml version="1.0" standalone="no"?>
<!DOCTYPE svg PUBLIC "-//W3C//DTD SVG 1.1//EN" "http://www.w3.org/Graphics/SVG/1.1/DTD/svg11.dtd" >
<svg xmlns="http://www.w3.org/2000/svg" xmlns:xlink="http://www.w3.org/1999/xlink" version="1.1">
<metadata></metadata>
<defs>
<font id="choco_cookyregular" horiz-adv-x="1057" >
<font-face units-per-em="2048" ascent="1638" descent="-410" />
<missing-glyph horiz-adv-x="509" />
<glyph horiz-adv-x="0" />
<glyph horiz-adv-x="0" />
<glyph unicode="&#xd;" horiz-adv-x="419" />
<glyph horiz-adv-x="0" />
<glyph unicode="&#x9;" horiz-adv-x="0" />
<glyph unicode="&#xa;" horiz-adv-x="0" />
<glyph horiz-adv-x="0" />
<glyph unicode=" "  horiz-adv-x="509" />
<glyph unicode="&#x09;" horiz-adv-x="509" />
<glyph unicode="&#xa0;" horiz-adv-x="509" />
<glyph unicode="!" horiz-adv-x="770" d="M171 183q0 48 23.5 92t61.5 75l38 5q37 20 70 20q31 0 59 -14t50 -39.5t35 -60t13 -74.5q0 -44 -12 -82t-35 -66.5t-55.5 -45t-73.5 -16.5q-36 0 -67.5 17t-55.5 45.5t-37.5 65.5t-13.5 78zM256 171q0 -42 26.5 -67.5t62.5 -25.5q38 0 62.5 28t24.5 65q0 38 -22.5 65 t-64.5 27q-38 0 -63.5 -26.5t-25.5 -65.5zM265 589q8 107 17.5 219.5t23 229t34 235t50.5 237.5v1q6 29 29.5 42.5t49.5 13.5q32 0 56.5 -18t24.5 -59q0 -6 -0.5 -14.5t-4.5 -17.5q-53 -243 -80 -457.5t-40 -414.5q-4 -32 -23.5 -47t-46.5 -15q-35 0 -62 18.5t-28 46.5z" />
<glyph unicode="&#x22;" horiz-adv-x="775" d="M107 1404q0 41 5 81.5t15 76t25 62.5t35 41h-1q14 8 25 11t23 3q18 0 33.5 -8t27 -21.5t18 -30.5t6.5 -34q0 -13 -4 -23t-12 -20q-6 -10 -11.5 -20.5t-10 -24.5t-7.5 -31.5t-3 -41.5q0 -48 7.5 -77.5t15.5 -51.5q4 -12 7.5 -23.5t3.5 -22.5q0 -10 -5.5 -24t-17.5 -27 t-31 -22t-47 -9q-27 0 -45.5 20.5t-30 54t-16.5 76t-5 86.5zM485 1333q0 10 0.5 18.5t0.5 18.5q0 11 0.5 20t0.5 18q0 45 4 88.5t15 82.5l-1 -1q8 26 29.5 39.5t44.5 13.5q14 0 28 -6t25.5 -18.5t18.5 -32.5t7 -47v-18.5t-1 -17.5q-1 -11 -1.5 -23t-0.5 -24q0 -26 2 -51.5 t4 -50.5q2 -27 3.5 -52.5t1.5 -51.5q0 -33 -23 -47t-52 -14q-36 0 -57 13t-32 34.5t-14 49.5t-3 59z" />
<glyph unicode="#" horiz-adv-x="1348" d="M104 371q0 29 19.5 54t59.5 30h-1q13 2 27.5 3t26.5 3q29 2 65.5 4.5t66.5 6.5v197t2 198q-6 -1 -20 -3t-22 -3q-45 -6 -90 -9q-38 -3 -56 17.5t-18 48.5t20 53.5t57 32.5q30 2 67 6t67 8q3 46 7 99t6 105q2 34 3.5 70t3.5 74t26 57.5t52 19.5q29 0 51 -19t20 -56 q-2 -16 -2.5 -31t-1.5 -31q-3 -66 -5 -135.5t-4 -127.5q74 12 157.5 27.5t154.5 30.5q0 27 0.5 57.5t1 62t1 62t1.5 58.5q2 38 25.5 57.5t51.5 19.5q26 0 48 -20.5t24 -55.5q-2 -48 -2.5 -104t-0.5 -106q16 5 40.5 10.5t39.5 8.5q13 3 24 5.5t22 6.5q20 4 36.5 -0.5t28 -15 t18 -25t6.5 -30.5q0 -24 -14 -45.5t-46 -29.5q-25 -8 -48.5 -12t-49.5 -11q-11 -2 -28.5 -6.5t-28.5 -7.5q2 -97 5 -203.5t6 -202.5q20 4 45 9.5t44 10.5q17 5 35 9t35 8q21 5 37 0.5t27.5 -15t17.5 -25.5t6 -31q0 -23 -14 -44.5t-44 -29.5q-40 -11 -88 -21t-95 -19 q2 -79 5 -162t6 -163q1 -16 1.5 -34t1.5 -33q-2 -34 -22.5 -54t-46.5 -20q-29 0 -53 19t-28 57q-7 87 -11.5 179.5t-6.5 180.5q-30 -5 -67.5 -10.5t-67.5 -10.5q-46 -6 -98 -14.5t-99 -16.5v-307q0 -38 -23.5 -56.5t-50.5 -18.5q-28 0 -52 19t-26 56q-1 36 -1.5 69t-0.5 66 q-1 36 -1 77.5t-1 74.5q-45 -5 -95.5 -9.5t-92.5 -7.5q-38 -4 -57 16t-19 48zM524 496q38 4 80.5 10t85 13t84 14t77.5 14q-1 17 -1.5 40.5t-1.5 40.5v-1q-2 75 -3.5 151.5t-1.5 153.5l-16 13q-71 -14 -147.5 -28.5t-150.5 -26.5q-1 -47 -2 -97.5t-1.5 -101.5t-1 -100.5 t-0.5 -94.5z" />
<glyph unicode="$" horiz-adv-x="1252" d="M109 340v10q0 32 25.5 49t57.5 17q24 0 47 -12.5t30 -40.5q15 -54 45 -96.5t71 -73.5t92.5 -50t109.5 -27q-2 115 -8.5 215t-13.5 199q-2 17 -2.5 39t-2.5 39q-42 9 -90.5 21.5t-96.5 32.5t-93 50t-79.5 73t-55 102t-20.5 138q0 58 24 109.5t67.5 94t103.5 74.5t131 52 q-4 23 -9.5 44t-11.5 41q-7 22 -12 46t-5 44q0 31 22.5 46.5t49.5 15.5t44.5 -15t28.5 -39t17.5 -54.5t11.5 -61.5q2 -10 4.5 -24t4.5 -25q77 -3 144 -24t118.5 -54t85.5 -73.5t46 -80.5v1q2 -8 3 -16.5t1 -13.5q0 -36 -21.5 -57.5t-46.5 -21.5q-20 0 -35.5 14.5t-34.5 36.5 v-1q-15 17 -33.5 36.5t-45 38t-63 35t-88.5 28.5q11 -61 20.5 -119.5t18 -117t15.5 -119.5t13 -126q14 -4 33 -9t33 -9q47 -11 94.5 -24t91.5 -31t82 -43.5t66.5 -62.5t45 -88t16.5 -119q0 -92 -38 -161.5t-98 -118t-134 -77.5t-145 -41v-134q0 -41 -23.5 -59t-50.5 -18 q-28 0 -51 18t-23 59v128q-90 7 -168 33t-139.5 73t-106 115.5t-68.5 161.5q-1 2 -1 8zM293 1008q0 -52 20.5 -88.5t53.5 -62.5t75 -43t85 -30l17 14q-11 86 -22.5 163t-23.5 153q-4 20 -8.5 47t-7.5 47q-42 -12 -77 -29.5t-59.5 -42t-38.5 -56t-14 -72.5zM711 552 q2 -20 3.5 -41.5t3.5 -40.5q6 -82 11 -166t8 -181q52 12 100 28.5t85 42t58.5 62.5t21.5 89q0 54 -19 89t-54.5 58t-86.5 39.5t-114 33.5z" />
<glyph unicode="%" horiz-adv-x="1390" d="M46 1153q0 39 8 75.5t23 64.5t35.5 45.5t45.5 20.5q17 1 33 4.5t33 8.5q21 6 41 11t40 5q52 0 93.5 -22.5t69.5 -59t43 -83.5t15 -95q0 -65 -15 -115t-41.5 -84.5t-63.5 -52.5t-80 -18q-78 0 -131.5 27t-86.5 69.5t-47.5 95t-14.5 103.5zM192 1105q0 -19 9 -37t23.5 -32 t31.5 -22.5t32 -8.5q26 0 45.5 9t32.5 24t19.5 33.5t6.5 37.5q0 25 -10.5 46t-27 36t-37.5 23.5t-41 8.5q-15 0 -30 -9.5t-27 -26t-19.5 -38t-7.5 -44.5zM269 21q0 4 2 10.5t7 11.5q72 167 150.5 334.5t160 330.5t163.5 319t161 299v-1q13 22 29.5 30t32.5 8q14 0 28 -6 t25 -17t17.5 -26t6.5 -33q0 -13 -3.5 -27.5t-13.5 -28.5q-76 -139 -155 -294.5t-158 -319t-156 -330.5t-149 -328q-4 -11 -15 -16.5t-23 -5.5q-18 0 -37 7t-35.5 19t-27 28.5t-10.5 35.5zM845 305q0 55 16.5 102.5t48 82.5t78.5 55.5t108 20.5t107.5 -22t78 -58.5t48 -83.5 t16.5 -97q0 -62 -22.5 -114t-61 -89.5t-89 -59t-107.5 -21.5q-58 0 -100 24t-69 63.5t-39.5 90.5t-12.5 106zM981 293q0 -57 27.5 -83t71.5 -26q27 0 48.5 10t37 28t24 42t8.5 52q0 47 -26 74.5t-80 27.5q-26 0 -46.5 -12.5t-34.5 -31.5t-22 -40.5t-8 -40.5z" />
<glyph unicode="&#x26;" horiz-adv-x="1360" d="M174 205q0 64 21.5 123t55.5 111.5t74 97t78 80.5q-38 53 -70.5 105t-56.5 104t-37.5 103.5t-13.5 104.5q0 71 19 133t58.5 107.5t99 72t140.5 26.5q69 0 118.5 -26t81 -70.5t46.5 -103t15 -124.5q0 -73 -19 -138t-48.5 -122t-65 -105t-67.5 -86q16 -24 46 -59.5 t63.5 -72.5t65.5 -69t53 -48q24 31 47.5 76.5t44 98.5t38 110t31.5 111q6 25 24.5 37t38.5 12q16 0 31.5 -5.5t27.5 -16t19.5 -24.5t7.5 -32q0 -27 -8.5 -63t-22.5 -77t-32 -85t-38.5 -85.5t-41.5 -79t-40 -65.5q28 -26 62 -54t69 -54.5t69.5 -50t63.5 -38.5q14 -7 20.5 -23 t6.5 -33q0 -16 -5 -31t-14.5 -27t-23.5 -19t-32 -7q-23 0 -56.5 17t-72.5 45t-82.5 63.5t-85.5 71.5q-71 -94 -174 -144.5t-228 -50.5q-72 0 -128 27.5t-94.5 69t-58.5 90.5t-20 92zM344 226q0 -30 12.5 -55t34 -43.5t50 -28.5t60.5 -10q28 0 62.5 9t68 26t63.5 43t48 59 l-51 51q-26 25 -54.5 53.5t-55.5 56t-50.5 54t-41.5 48.5q-3 -3 -11 -11.5t-13 -12.5q-17 -18 -38.5 -41t-40 -53t-31 -66t-12.5 -79zM385 1056q0 -49 10.5 -96.5t28.5 -91t41 -82t49 -71.5q31 37 57.5 73t46 76.5t30 88t10.5 106.5q0 73 -32.5 116.5t-103.5 43.5h-19 q-60 -13 -89 -56.5t-29 -106.5z" />
<glyph unicode="'" horiz-adv-x="418" d="M110 1394q0 55 5 103.5t19 84t39 56t65 20.5q26 0 48.5 -13t22.5 -39q0 -11 -2 -16v-1q-17 -54 -27 -118t-10 -119q0 -18 1.5 -33.5t3.5 -29.5q2 -11 3 -21t1 -17q0 -17 -8 -30t-21 -21.5t-29 -13t-31 -4.5q-27 0 -43 19t-24 49t-10.5 68t-2.5 76z" />
<glyph unicode="(" horiz-adv-x="775" d="M224 584q0 48 8 123.5t24.5 163.5t42.5 181.5t62 178t83 152.5t105 105h1q26 19 54 19q29 0 47.5 -20.5t18.5 -49.5q0 -24 -15.5 -47.5t-49.5 -46.5h1q-30 -21 -58 -70.5t-52 -116.5t-43.5 -145t-33.5 -155.5t-21.5 -148t-7.5 -123.5q0 -69 8 -152t24 -170t40 -174 t55 -165t69 -142.5t83 -106.5q14 -15 20 -30t6 -28q0 -18 -7 -33.5t-19 -27t-27.5 -18.5t-32.5 -7q-14 0 -29 6t-29 20q-51 44 -95 114.5t-80.5 157.5t-64.5 185t-47.5 197.5t-29.5 195.5t-10 178z" />
<glyph unicode=")" horiz-adv-x="775" d="M80 -384q0 13 6 28t20 30q45 42 83 106.5t69 142.5t55 165t40 174t24 170t8 152q0 53 -7.5 123.5t-21.5 148t-33.5 155.5t-43.5 145t-52 116.5t-58 70.5h1q-34 23 -49.5 46.5t-15.5 47.5q0 29 18.5 49.5t47.5 20.5q28 0 54 -19h1q58 -37 105 -105t83 -152.5t62 -178 t42.5 -181.5t24.5 -163.5t8 -123.5q0 -82 -10 -178t-29.5 -195.5t-47.5 -197.5t-64.5 -185t-80.5 -157.5t-95 -114.5q-14 -14 -29 -20t-29 -6q-17 0 -32.5 7t-27.5 18.5t-19 27t-7 33.5z" />
<glyph unicode="*" horiz-adv-x="1024" d="M92 1118q0 25 16 42.5t47 19.5q42 -1 81 -2q32 -1 65.5 -1h50.5q-17 23 -40 56.5t-44 69t-36 68.5t-15 54q0 34 21.5 54t48.5 20q16 0 31 -11.5t29.5 -31.5t29 -48t31.5 -61q14 -30 36 -70.5t42 -74.5l143 262q13 26 36.5 39.5t46.5 13.5q29 0 52.5 -15t23.5 -38 q0 -9 -9 -30.5t-22.5 -49.5t-31 -60t-34.5 -61t-32 -52.5t-24 -35.5h222q17 0 31 -7t23.5 -18t15 -25t5.5 -27q0 -26 -17 -46t-51 -20h-230q22 -38 45.5 -67t46.5 -56l38 -44t34 -43.5t24 -41.5t9 -37q0 -35 -15.5 -59.5t-40.5 -24.5q-18 0 -40.5 17t-47.5 44t-50.5 61 t-49 68.5t-43 66l-32.5 52.5q-14 -23 -34 -53.5t-43 -63.5t-48.5 -64.5t-50 -56.5t-46.5 -40.5t-39 -15.5q-15 0 -29.5 7.5t-26 20t-18 28t-6.5 31.5q0 9 7.5 22.5t19.5 30.5t28.5 36.5t34.5 39.5q27 32 54.5 65t55.5 82q-24 -2 -46 -3.5t-47 -1.5q-56 0 -92 2.5t-57 11.5 t-29 26t-8 46z" />
<glyph unicode="+" horiz-adv-x="1050" d="M66 668q0 17 4 34t12.5 30.5t20 22t26.5 8.5q21 0 44 -0.5t46 -1.5q24 -1 48.5 -1.5t48.5 -0.5h131q-2 33 -4 78.5t-2 87.5q0 121 19.5 172.5t63.5 51.5q18 0 35 -9t30 -24t21 -35.5t8 -43.5q0 -7 -0.5 -15.5t-0.5 -17.5q-1 -24 -2 -55t-1.5 -63.5t-1 -64.5t-0.5 -57 q18 -2 33 -2.5t32 -0.5q24 0 53 0.5t56 2.5q32 2 63.5 3t66.5 1q32 0 48.5 -19.5t16.5 -46.5q0 -35 -17.5 -56t-46 -32t-64.5 -15t-74 -4q-22 0 -42.5 0.5t-40.5 1.5t-41 1.5t-51 -1.5q-1 -34 -1 -69q-1 -30 -1 -66v-69v-37.5t1 -35.5q0 -12 0.5 -23.5t0.5 -20.5 q0 -42 -23.5 -59.5t-52.5 -17.5q-23 0 -44.5 10.5t-23.5 26.5q-4 45 -7 94t-5 97.5t-3 93t-1 79.5q-3 0 -13 -0.5t-12 -0.5q-28 -2 -75.5 -4t-101.5 -2h-26q-30 0 -57 0.5t-47.5 7.5t-33 22.5t-12.5 44.5z" />
<glyph unicode="," horiz-adv-x="697" d="M108 85q0 58 17.5 116.5t50 106t77.5 77.5t99 30q34 0 64.5 -9.5t54.5 -24t39.5 -31.5t17.5 -32l9 -100q29 -48 41 -103.5t12 -115.5q0 -41 -5.5 -89.5t-16 -96.5t-25 -93t-32.5 -79.5t-39 -55t-44 -20.5q-14 0 -28 6.5t-25 17.5t-17.5 25t-6.5 30q0 27 16 53v-1 q18 24 32.5 56.5t25 67.5t16.5 70.5t6 65.5q-32 -32 -71.5 -44.5t-71.5 -12.5t-66.5 11t-63 34t-47.5 58t-19 83zM241 132q0 -27 9 -46t22.5 -30.5t30 -16.5t30.5 -5q50 0 78.5 37t28.5 91q0 18 -7 36.5t-19.5 33.5t-30 24.5t-38.5 9.5q-24 0 -43 -14t-32.5 -34t-21 -43.5 t-7.5 -42.5z" />
<glyph unicode="-" horiz-adv-x="1036" d="M53 714q0 27 18 49t50 22q189 -5 377 -9t378 -8q27 -1 46.5 -11.5t32.5 -27t19 -36.5t6 -41q0 -24 -7.5 -41.5t-20.5 -17.5l-761 10q-35 0 -61 10t-43 25.5t-25.5 35.5t-8.5 40z" />
<glyph unicode="." horiz-adv-x="674" d="M110 111q0 41 15.5 88t45.5 87.5t74.5 67t102.5 26.5q55 0 92 -22t59 -57.5t31.5 -79.5t9.5 -89q0 -66 -29 -112.5t-71 -76t-90 -42.5t-86 -13q-28 0 -55.5 13t-49.5 40t-35.5 69t-13.5 101zM222 128q0 -15 6 -33.5t18 -34t28.5 -26t37.5 -10.5q27 0 48.5 10.5t35.5 28 t21.5 40.5t7.5 47q0 19 -6.5 37.5t-19 33t-30.5 23t-40 8.5q-25 0 -45 -12t-33.5 -30t-21 -40t-7.5 -42z" />
<glyph unicode="/" horiz-adv-x="935" d="M33.5 -77.5q-6.5 14.5 0.5 31.5l707 1640q10 24 28 34t37.5 8.5t38.5 -13t31.5 -29t16.5 -39.5t-6 -45l-698 -1601q-8 -18 -24.5 -26.5t-36 -9t-39.5 6t-34.5 17.5t-21 25.5z" />
<glyph unicode="0" d="M106 673q0 60 9.5 136t28 150t45.5 137t62 99q15 14 41 18.5t53 4.5q10 0 18.5 -0.5t14.5 -0.5q7 -1 13 -1q10 0 35 5t58 10.5t61 5.5q70 0 127 -22t101.5 -59.5t76.5 -87t53 -105t31 -113.5t10 -112q0 -55 -12 -116.5t-36 -122.5t-61.5 -116.5t-88.5 -98t-116 -67.5 t-145 -25q-95 0 -166 40t-118.5 106.5t-71 153.5t-23.5 181zM260 656q0 -63 9.5 -122.5t36.5 -105t74 -73t122 -27.5q43 0 81 19t70 50t57 72.5t42.5 87t26.5 92t9 89.5q0 76 -15.5 141t-46.5 112.5t-77 74.5t-107 27q-14 0 -27.5 -1t-27.5 -4q-51 -10 -93 -38.5t-72 -80 t-46 -128.5t-16 -185z" />
<glyph unicode="1" d="M83 143q0 33 28 55.5t71.5 38t96.5 25.5t104 18q14 2 33 5.5t31 5.5q-9 52 -16.5 118.5t-13 141t-9 153t-3.5 156.5q0 75 3.5 151.5t14.5 160.5q-23 -14 -54 -29t-65.5 -27.5t-68.5 -21t-61 -8.5q-22 0 -38.5 8t-28 21t-17 29.5t-5.5 33.5q0 32 20.5 57.5t68.5 31.5 q20 3 49.5 11.5t63.5 20t70.5 24.5t69.5 26q23 9 45 17t40.5 15t31.5 11t18 4q29 0 46 -23.5t17 -58.5q0 -11 -0.5 -21.5t-2.5 -18.5q-12 -41 -20 -90.5t-13 -104t-7 -112.5t-2 -116q0 -77 3 -154t8 -147.5t12 -131t15 -105.5q45 4 92.5 7t92.5 3q33 0 64 -2t55 -10t38 -25 t14 -48q0 -17 -5 -33t-15 -29.5t-24.5 -21.5t-32.5 -8h-41q-81 0 -167 -6t-173.5 -17.5t-174.5 -27.5t-171 -35q-8 -2 -12 -2.5t-8 -0.5q-32 0 -49.5 26.5t-17.5 59.5z" />
<glyph unicode="2" d="M97 1013q0 77 36.5 137.5t91 102.5t117.5 64.5t117 22.5q97 0 173 -27t128.5 -77t79.5 -120.5t27 -158.5q0 -66 -19.5 -118t-49.5 -94.5t-65 -76.5t-65 -62q-37 -33 -80 -70.5t-81.5 -76.5t-67 -78.5t-37.5 -75.5q54 9 118 21.5t129 23t126 18t108 7.5q18 0 32.5 -7.5 t25 -20.5t16 -29t5.5 -32q0 -24 -14.5 -45t-46.5 -23q-60 -6 -140 -18t-165 -26t-167 -28.5t-148 -26.5q-5 -2 -11 -2q-17 0 -31 8.5t-24 22.5t-16 31.5t-6 35.5v8.5t1 7.5q16 63 43.5 116t66 103.5t88.5 101t112 109.5q24 23 58.5 55.5t66 70.5t53.5 80t22 84 q0 64 -20.5 106t-53.5 67t-74.5 35t-84.5 10q-37 0 -72 -13.5t-62.5 -33.5t-44 -42.5t-16.5 -40.5q0 -23 -9.5 -42t-25 -33t-35.5 -21.5t-41 -7.5q-27 0 -47.5 18.5t-20.5 59.5z" />
<glyph unicode="3" d="M94 1140q0 59 33.5 108t86.5 84.5t118 55t128 19.5q62 0 123.5 -19t111 -57.5t80.5 -96t31 -133.5q0 -48 -11.5 -90.5t-30.5 -78t-42.5 -62.5t-47.5 -43q42 12 93.5 -0.5t96.5 -45t75 -84t30 -117.5q0 -72 -28.5 -139t-77 -129t-111.5 -117.5t-132 -104.5t-139.5 -90.5 t-132.5 -74.5q-9 -6 -17.5 -7.5t-17.5 -1.5q-17 0 -31 7.5t-23.5 20.5t-15 29t-5.5 33t8.5 34.5t29.5 28.5q57 31 117 66.5t117 74.5t107.5 82.5t88.5 91t60 99t22 107.5q0 27 -12.5 46.5t-33 32t-47 19t-54.5 6.5q-32 0 -63.5 -8t-57.5 -21q-10 -5 -26 -14t-33 -20 q-29 -18 -55.5 -33.5t-42.5 -15.5q-13 0 -24.5 7t-20.5 19t-14.5 27t-5.5 31q0 37 45 71.5t122 81.5q27 17 56 37.5t53.5 51.5t40 74.5t15.5 106.5q0 33 -14.5 63t-39.5 53t-58.5 36.5t-71.5 13.5q-28 0 -57.5 -10t-55.5 -27t-45.5 -41t-28.5 -52q-12 -35 -37.5 -54 t-51.5 -19q-29 0 -52.5 22t-23.5 66z" />
<glyph unicode="4" d="M56 487q0 57 16.5 130.5t43 153.5t60.5 162.5t69.5 157t70 136.5t61.5 102q11 18 26 25t29 7q15 0 28.5 -6.5t24.5 -17.5t17.5 -26.5t6.5 -33.5q0 -28 -16 -50q-41 -71 -81.5 -156t-76 -175t-65.5 -179t-50 -168q19 0 50 1t67.5 2.5t76.5 4t77.5 6t69.5 7.5t54 9 q0 61 3.5 134.5t9.5 151t13.5 155.5t14.5 148q3 27 24 39.5t47 12.5q15 0 30.5 -5t28 -16t20.5 -27.5t8 -39.5q-8 -59 -14.5 -127.5t-11 -138.5t-7 -137t-2.5 -123q12 2 32 4t34 4q25 5 51.5 9t50.5 4q29 0 44 -22.5t15 -51.5q0 -26 -12 -44t-32 -29.5t-44.5 -17.5t-49.5 -9 t-48.5 -3.5t-39.5 -0.5q-2 -36 -4.5 -88t-4.5 -108.5t-4 -111t-3 -94.5q0 -35 -25.5 -54t-56.5 -19q-14 0 -28.5 4.5t-26 13.5t-19 23.5t-7.5 35.5q0 43 1.5 95t4 104t5 99.5t4.5 80.5q-46 -11 -97 -19.5t-101 -14t-97 -8.5t-84 -3q-52 0 -87 6t-56 18.5t-29.5 31.5t-8.5 46 z" />
<glyph unicode="5" d="M118 132q0 17 8 31t20.5 24.5t27.5 16t29 5.5q18 0 26 -5q25 -14 54 -24t59.5 -16t60 -9t54.5 -3q70 0 132.5 24.5t108.5 67.5t73 101.5t27 127.5q0 55 -21.5 98.5t-56 74t-78 46.5t-88.5 16q-42 0 -78 -16.5t-69 -35.5q-26 -14 -52 -27t-49 -13q-29 0 -45 18.5t-16 44.5 q0 72 -4.5 150t-11.5 158q-6 81 -10.5 159.5t-4.5 154.5q0 19 3 38t10.5 33t21 23t35.5 9q26 0 55 -2.5t60 -5.5q35 -2 71.5 -5t74.5 -3q61 0 122.5 4.5t119.5 4.5q53 0 75 -22t22 -48q0 -15 -5 -29.5t-12.5 -26.5t-18 -20t-20.5 -9h1q-34 -3 -77 -6t-89 -5.5t-92.5 -4 t-87.5 -1.5q-26 0 -50 0.5t-56 4.5q2 -41 6 -98t8 -109q2 -23 4 -50t4 -53.5t3.5 -51.5t2.5 -44q17 12 38.5 20t43 13t42.5 7t38 2q32 0 72 -9t81.5 -29.5t81 -52t70 -77t49 -105t18.5 -135.5q0 -91 -23.5 -161t-63 -122.5t-91 -88.5t-107.5 -58t-112 -32t-105 -10 q-69 0 -127.5 12.5t-101 33t-66.5 46.5t-24 54z" />
<glyph unicode="6" d="M77 671q0 43 4.5 107t19 136.5t42 147.5t73.5 140t114 114.5t163 71.5q8 2 14.5 3t13.5 1q32 0 49 -24.5t17 -53.5q0 -26 -16 -51.5t-54 -34.5q-50 -14 -90 -50t-70.5 -84.5t-53 -106.5t-36.5 -117.5t-20.5 -115.5t-6.5 -101q36 41 78.5 78t90 65t98.5 44.5t105 16.5 q75 0 141 -29t116 -82.5t79 -129t29 -168.5q0 -79 -33 -152.5t-90 -130.5t-133 -91.5t-161 -34.5q-97 0 -170.5 27t-127.5 73.5t-89.5 108.5t-56.5 132t-30 144.5t-9 146.5zM286 400q23 -94 93 -140t170 -46q56 0 104.5 19t84.5 52.5t56.5 79.5t20.5 99q0 40 -13.5 79.5 t-38.5 70t-60.5 49.5t-78.5 19q-62 0 -122.5 -17.5t-108.5 -52.5t-77.5 -88t-29.5 -124z" />
<glyph unicode="7" d="M51 781q0 54 9 125t24.5 148.5t35.5 157t42 151.5q7 20 20.5 28.5t27.5 8.5q21 0 44.5 -8t43.5 -17q13 -5 23 -9.5t21 -4.5q32 5 64.5 11t64.5 13q81 14 168.5 27t195.5 13q36 0 67.5 -3t54.5 -12t36 -26t13 -45q0 -19 -7 -42.5t-21 -53.5v1q-59 -118 -100 -257.5 t-68.5 -294.5t-44.5 -322t-27 -339q-1 -19 -8.5 -33.5t-19.5 -24t-27 -14.5t-31 -5q-29 0 -53.5 21.5t-26.5 59.5q4 96 13 203.5t23.5 218.5t34 222t44 215.5t54 198.5t64.5 171q-57 0 -126 -8t-139 -20t-135 -26.5t-114 -27.5q-9 -25 -17.5 -55.5t-16 -62.5t-14 -63.5 t-10.5 -57.5q-8 -48 -17 -92.5t-22.5 -79t-32.5 -55t-47 -20.5q-23 0 -43 21.5t-20 63.5z" />
<glyph unicode="8" d="M71 1178q0 51 19.5 97t53 85t77 71t92 54t98 34t94.5 12q74 0 142 -26t119.5 -74.5t82 -116.5t30.5 -152q0 -57 -11 -110t-29 -99.5t-40.5 -84t-44.5 -62.5q37 -32 77 -75.5t73.5 -95t55 -109.5t21.5 -120q0 -103 -47 -182.5t-124 -133.5t-175.5 -81.5t-202.5 -27.5 q-68 0 -121 24.5t-89.5 63.5t-55.5 87.5t-19 96.5q0 80 35.5 159t88.5 149.5t114.5 128.5t114.5 96q-32 20 -60.5 33t-59.5 27q-48 20 -102.5 46t-100.5 64t-76 91.5t-30 130.5zM262 1174q0 -39 21.5 -70.5t56.5 -57.5t78.5 -48.5t87.5 -43.5q25 -13 51 -25t55 -28 q21 15 40.5 44t34.5 65t24 75.5t9 76.5q0 55 -17.5 94t-47 64t-67.5 36t-79 11q-29 0 -71 -11.5t-81 -35.5t-67 -60.5t-28 -85.5zM317 235q0 -30 10 -48.5t28 -28.5t41.5 -13.5t50.5 -3.5q87 0 155.5 21.5t116 58t72 84.5t24.5 101q0 49 -16 91t-41 77.5t-57 64t-63 51.5 q-53 -35 -109.5 -87t-103.5 -113.5t-77.5 -127t-30.5 -127.5z" />
<glyph unicode="9" d="M64 888q0 106 37.5 193t100.5 149t145 96.5t172 34.5q67 0 127.5 -21t111.5 -58.5t92 -90t69.5 -116t44 -135.5t15.5 -149q0 -81 -10.5 -157.5t-27.5 -144t-38 -124t-41 -96.5q-24 -46 -52.5 -93.5t-64 -91.5t-80 -82.5t-99.5 -66.5q-23 -11 -41 -16.5t-35 -5.5 q-43 0 -67.5 25t-24.5 56q0 20 14 40.5t45 34.5q47 21 90.5 59.5t81.5 89t70 110.5t56 123.5t39 128t19 123.5q-33 -38 -76 -66t-92.5 -47t-104 -28.5t-110.5 -9.5q-59 0 -123.5 20t-118.5 61.5t-89 105t-35 149.5zM221 917q0 -32 9.5 -67t33.5 -65t65 -50.5t105 -24.5 q52 0 111 12.5t109 41t83.5 75.5t33.5 116q0 64 -24 108.5t-63.5 73t-91.5 41.5t-109 13q-50 0 -97.5 -24.5t-84 -63.5t-58.5 -88t-22 -98z" />
<glyph unicode=":" horiz-adv-x="697" d="M123 111q0 41 15.5 88t46 87.5t75 67t102.5 26.5q56 0 93 -22t59.5 -57.5t32 -79.5t9.5 -89q0 -66 -29 -112.5t-71 -76t-90 -42.5t-85 -13q-29 0 -57.5 13t-51 40t-36 69t-13.5 101zM123 989q0 41 15.5 88.5t46 87.5t75 66.5t102.5 26.5q56 0 93 -22t59.5 -57t32 -79 t9.5 -87q0 -68 -29 -114.5t-71 -76t-90 -42.5t-85 -13q-29 0 -57.5 12.5t-51 39.5t-36 69t-13.5 101zM236 128q0 -15 6.5 -33.5t19 -34t29.5 -26t38 -10.5q26 0 47 10.5t35.5 28t22.5 40.5t8 47q0 19 -7 37.5t-20 33t-31.5 23t-40.5 8.5q-25 0 -44.5 -12t-33.5 -30 t-21.5 -40t-7.5 -42zM236 1008q0 -16 6.5 -34t19 -33.5t29.5 -25.5t38 -10q26 0 47 10t35.5 27t22.5 39t8 46q0 19 -7 38t-20 34t-31.5 24t-40.5 9q-25 0 -44.5 -12t-33.5 -30t-21.5 -40t-7.5 -42z" />
<glyph unicode=";" horiz-adv-x="697" d="M108 85q0 58 17.5 116.5t50 106t77.5 77.5t99 30q34 0 64.5 -9.5t54.5 -24t39.5 -31.5t17.5 -32l9 -100q29 -48 41 -103.5t12 -115.5q0 -41 -5.5 -89.5t-16 -96.5t-25 -93t-32.5 -79.5t-39 -55t-44 -20.5q-14 0 -28 6.5t-25 17.5t-17.5 25t-6.5 30q0 27 16 53v-1 q18 24 32.5 56.5t25 67.5t16.5 70.5t6 65.5q-32 -32 -71.5 -44.5t-71.5 -12.5t-66.5 11t-63 34t-47.5 58t-19 83zM123 989q0 41 15.5 88.5t45.5 87.5t74.5 66.5t103.5 26.5q56 0 93 -22t59.5 -57t32 -79t9.5 -87q0 -68 -28 -115t-69.5 -76t-89.5 -42t-88 -13 q-29 0 -57.5 12.5t-51 39.5t-36 69t-13.5 101zM236 1008q0 -16 6.5 -34t19 -33.5t29.5 -25.5t38 -10q26 0 47 10t35.5 27t22.5 39t8 46q0 19 -7 38t-20 34t-31.5 24t-40.5 9q-25 0 -44.5 -12t-33.5 -30t-21.5 -40t-7.5 -42zM241 132q0 -27 9 -46t22.5 -30.5t30 -16.5 t30.5 -5q50 0 78.5 37t28.5 91q0 18 -7 36.5t-19.5 33.5t-30 24.5t-38.5 9.5q-24 0 -43 -14t-32.5 -34t-21 -43.5t-7.5 -42.5z" />
<glyph unicode="&#x3c;" horiz-adv-x="1066" d="M156 702q0 33 35 76.5t91 90.5t126.5 94.5t142 88.5t137 72.5t110.5 46.5q15 6 35 6q17 0 31.5 -7.5t24.5 -19t15.5 -26t5.5 -28.5q0 -20 -12 -38.5t-35 -27.5h1q-33 -12 -74 -31.5t-84.5 -44t-87 -52t-83 -55t-71.5 -53t-52 -46.5q37 -43 86 -90t102 -91.5t105.5 -82 t96.5 -60.5q36 -18 54 -45t18 -55q0 -32 -21.5 -57.5t-56.5 -25.5q-32 0 -72 17t-84 45t-90 64.5t-90 75t-84 76.5t-73 69q-6 6 -14.5 13t-13.5 12q-21 0 -42 7t-38 19t-28 28t-11 35z" />
<glyph unicode="=" horiz-adv-x="1066" d="M115 436q0 32 25 61t77 34q102 7 208.5 12.5t212.5 5.5h74q47 0 93 -2.5t82.5 -12.5t59 -30t22.5 -54q0 -28 -21.5 -50t-63.5 -22q-26 0 -54 1t-57 3q-31 2 -64 3.5t-68 1.5q-109 0 -223 -4.5t-233 -12.5q-33 0 -51.5 19.5t-18.5 46.5zM120 886q0 26 16.5 49.5t51.5 28.5 q66 10 137 17t144 11.5t145.5 6.5t140.5 2q41 0 74 -1.5t56 -9t35.5 -24t12.5 -46.5q0 -27 -17.5 -48.5t-52.5 -21.5q-74 0 -159 -2t-172.5 -7t-175.5 -12.5t-168 -18.5h-7q-28 0 -44.5 23.5t-16.5 52.5z" />
<glyph unicode="&#x3e;" horiz-adv-x="1066" d="M156 1096q0 15 5 29.5t14.5 26t22.5 18.5t29 7q7 0 14.5 -1t13.5 -4q49 -16 116.5 -48.5t140.5 -74.5t145 -90t128.5 -95.5t91.5 -90.5t35 -76q0 -18 -10.5 -33.5t-27 -27t-37 -17.5t-39.5 -6q-30 -31 -73 -70t-92.5 -79.5t-100.5 -79.5t-98.5 -69.5t-86.5 -49t-63 -18.5 q-34 0 -59 22t-25 53q0 25 16.5 50t59.5 49q43 26 97.5 65t109 82.5t104.5 87t83 78.5q-21 22 -54 49t-74 56t-87 58t-91.5 54.5t-87.5 46t-76 32.5q-24 9 -34 27.5t-10 38.5z" />
<glyph unicode="?" horiz-adv-x="1073" d="M127 1247q0 56 21 120.5t68 119t122 90.5t183 36q81 0 153.5 -26.5t126.5 -74.5t86 -116.5t32 -152.5q0 -63 -20 -115.5t-51 -97t-69.5 -82t-75.5 -70.5q-31 -27 -60.5 -55t-52.5 -57.5t-37 -61.5t-14 -69q0 -24 2 -52.5t2 -52.5q0 -16 -7 -28t-18.5 -20.5t-26 -13 t-29.5 -4.5q-27 0 -42.5 15.5t-23 40.5t-9 56.5t-1.5 63.5q0 42 20.5 90t53 95t73 89.5t80.5 72.5q21 18 46 42.5t46.5 54.5t36.5 66.5t15 78.5q0 65 -26.5 110t-65.5 72.5t-83.5 39.5t-81.5 12q-51 0 -89 -16.5t-64 -45t-39 -65.5t-13 -77q0 -17 1 -32.5t6 -32.5q1 -4 1 -9 q0 -19 -7 -34.5t-18 -27t-25.5 -17.5t-30.5 -6q-41 0 -68 37.5t-27 109.5zM317 200q0 44 26.5 85.5t71.5 72.5l35 4q20 10 37 14t34 4q28 0 56 -13t50.5 -36.5t36.5 -55.5t14 -70q0 -55 -16 -96t-41.5 -68.5t-59 -41t-67.5 -13.5t-66 12.5t-56.5 38.5t-39.5 66.5t-15 96.5z M409 183q0 -51 28 -74t68 -23q43 0 63.5 27.5t20.5 69.5q0 19 -7.5 36.5t-19.5 31t-27 21.5t-30 8q-19 0 -36 -7.5t-30.5 -20.5t-21.5 -30.5t-8 -38.5z" />
<glyph unicode="@" horiz-adv-x="1501" d="M61 469q0 229 49 408.5t141 303t224 188t297 64.5q90 0 169.5 -33.5t145.5 -92t117.5 -138t87 -172t54.5 -194t19 -202.5q0 -132 -25 -238.5t-62.5 -180.5t-82.5 -114t-84 -40q-18 0 -39 7t-42.5 23t-42 42t-38.5 64q-34 -86 -102.5 -134t-157.5 -48q-47 0 -87 21.5 t-73.5 57t-59 82.5t-43.5 97.5t-27 102t-9 95.5q0 116 22.5 206t64.5 152t101 94t133 32q63 0 110 -35.5t81.5 -92t56.5 -127.5t35 -142q4 -23 9 -55t11.5 -67.5t14.5 -70t17 -62.5t19.5 -45t22.5 -17q24 0 46.5 35t40.5 89t28.5 119t10.5 126q0 90 -14 178.5t-40.5 168 t-65.5 147.5t-89 117.5t-110.5 77.5t-130.5 28q-137 0 -240 -63.5t-172 -174t-104 -260.5t-35 -322q0 -89 15 -181.5t46 -179.5t78.5 -164t111.5 -134t146 -90.5t182 -33.5q87 0 169 30t151 75.5t121.5 98t80.5 97.5q9 15 22 23t25 8q13 0 27 -5.5t24.5 -15.5t17.5 -23.5 t7 -29.5q0 -24 -24 -63.5t-67 -84.5t-101.5 -91.5t-128.5 -84t-147.5 -61t-157.5 -23.5q-112 0 -211.5 33.5t-182.5 94.5t-149 146.5t-112 188.5t-70.5 221t-24.5 244zM529 433q12 -307 170 -307q25 0 55 13t56.5 46t44 88.5t17.5 140.5q0 92 -15.5 161t-41 115t-57.5 69 t-65 23q-38 0 -70 -23.5t-54 -68.5t-32.5 -110t-7.5 -147z" />
<glyph unicode="A" horiz-adv-x="1165" d="M15 92v10.5t2 9.5q9 66 26 160t37.5 197.5t43 205t43.5 182.5q16 58 35 120.5t42 122t50 112.5t60 93t71 63.5t83 23.5q38 0 70.5 -11.5t64 -37t63 -65.5t67.5 -97q19 -31 44.5 -84.5t55.5 -121t61.5 -145t61.5 -156t57 -154t47.5 -139.5t32.5 -112.5t12 -73.5 q0 -22 -8.5 -40.5t-21.5 -32t-29.5 -21t-32.5 -7.5q-32 0 -43 38q-10 32 -23.5 75t-28 90.5t-29.5 95.5t-29.5 90t-27.5 75.5t-23 50.5l-604 -84q-10 -60 -19 -120.5t-17 -111.5q-10 -63 -18.5 -118t-18.5 -105q-6 -29 -26 -43.5t-45 -14.5q-33 0 -59.5 21t-26.5 59z M275 687q104 15 180.5 26.5t130 19.5t88.5 13t56.5 7.5t33 4t18.5 2.5q-5 15 -13.5 38t-13.5 40q-23 65 -47.5 130.5t-52 118t-58.5 85t-67 32.5q-33 0 -60.5 -23.5t-51.5 -62.5t-43.5 -88t-35.5 -100.5t-28.5 -100.5t-21.5 -87q-2 -11 -6.5 -29t-7.5 -26z" />
<glyph unicode="B" horiz-adv-x="1169" d="M125 1347q0 37 25.5 56.5t57.5 19.5h14t11 -2q42 14 92 21.5t101 7.5q232 0 354 -88.5t122 -256.5q0 -74 -34.5 -143t-100.5 -132q75 -15 140.5 -46.5t114.5 -78.5t77.5 -111.5t28.5 -145.5q0 -79 -33 -143t-89 -114t-131 -86.5t-159 -60t-172 -35t-171 -11.5 q-29 0 -42.5 -0.5t-22.5 -0.5q-27 0 -54.5 3t-49.5 12t-36 26.5t-14 46.5q0 121 8.5 233t8.5 228q0 60 -1.5 121t-3.5 124t-5 129.5t-7 139.5q-2 37 -6.5 74t-9.5 73t-9 71t-4 69zM290 1259q6 -50 11.5 -106.5t9.5 -115.5t6.5 -119t3.5 -117q76 10 151.5 36.5t135.5 68 t97.5 96t37.5 119.5q0 19 -12.5 47t-42 53.5t-78.5 44.5t-122 21h-23q-35 0 -82.5 -5.5t-92.5 -22.5zM314 160h61q70 0 141.5 6.5t137.5 20.5t124 36.5t101 52.5t67.5 69t24.5 87q0 60 -35.5 107.5t-92.5 80.5t-128.5 50t-144.5 17q-23 0 -44.5 0.5t-41.5 -5.5 q-45 -13 -87.5 -24.5t-70.5 -18.5q0 -84 -0.5 -152t-2 -125.5t-4 -106t-5.5 -95.5z" />
<glyph unicode="C" horiz-adv-x="1190" d="M75 709q0 144 39 266t110.5 211t172 139t223.5 50q43 0 90.5 -5.5t92.5 -17.5t86 -30t72 -43t49 -57.5t18 -72.5q0 -19 -8 -33t-21 -23.5t-28 -14t-30 -4.5q-23 0 -37.5 10.5t-14.5 32.5q-100 100 -269 100q-74 0 -143 -29.5t-122 -92t-85 -158.5t-32 -228 q0 -140 35.5 -240t93.5 -164t132 -94t150 -30q36 0 83 8t94 28t90.5 53t73.5 83q11 22 26 30.5t30 8.5q26 0 47.5 -23t21.5 -59q0 -14 -3.5 -27.5t-14.5 -27.5l-1 -1q-30 -59 -83.5 -103t-117.5 -73t-131 -43t-124 -14q-128 0 -232 46.5t-178 135t-114.5 216t-40.5 290.5z " />
<glyph unicode="D" horiz-adv-x="1148" d="M131 1328q0 29 9.5 48.5t23 31.5t29.5 17t30 5q5 0 9.5 -1t9.5 -1q29 6 56 7t54 1q91 0 179.5 -17t168.5 -49t148 -79t117.5 -107t77.5 -132.5t28 -155.5q0 -117 -31.5 -219t-86.5 -189.5t-130.5 -160.5t-164 -131.5t-186.5 -102t-198 -72.5q-8 -2 -13.5 -3.5t-11.5 -1.5 q-15 0 -26 7.5t-19 19t-12 26t-4 28.5q-20 314 -30.5 620t-26.5 611zM290 1272q5 -74 9.5 -157t8 -169t7 -173t6.5 -170q4 -100 8 -205t9 -195q120 45 224 112.5t181 153t121 187t44 214.5q0 90 -46.5 164.5t-122.5 128t-172 83.5t-195 30q-21 0 -39.5 -0.5t-42.5 -3.5z" />
<glyph unicode="E" horiz-adv-x="1122" d="M131 546q0 186 16 371t38 350q3 26 26.5 44.5t59.5 30.5t80 18.5t88 10t84 4t69 0.5q98 0 193.5 -11t196.5 -29q26 -8 37.5 -29t11.5 -47q0 -31 -17 -56.5t-47 -25.5q-2 0 -5.5 0.5t-6.5 2.5q-87 15 -171.5 24.5t-177.5 9.5q-64 0 -130 -4.5t-136 -18.5l-10 -11 q-11 -90 -18.5 -189.5t-13.5 -195.5q103 -7 203 -12.5t194 -4.5q55 0 110.5 3.5t111.5 3.5q30 0 45.5 -20t15.5 -46q0 -29 -18.5 -46t-47.5 -26t-66.5 -12t-74.5 -3q-8 0 -16 0.5t-20 0.5t-29.5 0.5t-42.5 0.5q-91 0 -181.5 5t-190.5 15q-5 -85 -5 -174v-64q2 -122 9 -237 q67 9 153 23.5t176 30t178 30.5t159 26q43 0 62 -25t19 -55q0 -25 -12.5 -46t-38.5 -26q-68 -12 -154 -29.5t-174 -36t-170 -37t-142 -33.5q-12 -5 -23.5 -6.5t-24.5 -1.5q-28 0 -56 9.5t-51 25t-37.5 35.5t-14.5 41q0 8 2 12q-8 100 -11.5 211t-3.5 219z" />
<glyph unicode="F" horiz-adv-x="1118" d="M125 1064q0 42 2.5 83.5t9.5 79.5q3 27 32 46.5t74 32t102 20t115 11t113.5 4.5t98.5 1h86t73.5 -0.5t65.5 -1t62 -0.5q29 0 42 -19t13 -42q0 -17 -5.5 -33t-15.5 -29.5t-24.5 -21.5t-32.5 -8q-44 -1 -87.5 -2t-88.5 -2q-109 -2 -228 -5t-240 -10q-6 -32 -7 -60t-1 -55 q0 -42 2.5 -87.5t6.5 -90.5t9.5 -88t11.5 -81q76 6 163 14.5t174 16t168 13t146 5.5q41 0 62.5 -25.5t21.5 -56.5q0 -21 -13 -37.5t-40 -17.5q-63 -4 -148 -10.5t-175 -13.5t-178 -14t-158 -12q9 -56 18.5 -117t20 -121t23 -116t27.5 -104q8 -15 10.5 -28.5t2.5 -25.5 q0 -19 -8 -32.5t-21 -22.5t-28.5 -13t-30.5 -4q-25 0 -39 10.5t-16 25.5q-35 109 -66 237t-54.5 264t-37 274.5t-13.5 268.5z" />
<glyph unicode="G" horiz-adv-x="1240" d="M74 683q0 73 16 150.5t48 151.5t79 139.5t108 114.5t136.5 78t163.5 29q42 0 87.5 -11.5t83 -31.5t61.5 -46.5t24 -57.5q0 -24 -16 -43.5t-42 -19.5q-10 0 -26.5 5t-36.5 10q-29 10 -61 19.5t-60 9.5q-68 0 -138.5 -31.5t-128 -94t-94.5 -156.5t-37 -219q0 -96 27 -182 t78 -150.5t125 -102t168 -37.5q39 0 80.5 16.5t77.5 46t62.5 69.5t35.5 87q-3 13 -6.5 30.5t-6 37t-4.5 39t-3 36.5q-32 0 -67.5 3t-70 11t-66.5 22t-57 36h1q-17 15 -23.5 30.5t-6.5 30.5q0 27 20 44t55 17q21 0 62 -11q36 -9 87.5 -19.5t123.5 -10.5q32 0 65 3t63 8 q28 3 53.5 6t46.5 3q26 0 38.5 -16.5t12.5 -37.5q0 -37 -23.5 -58.5t-54 -32.5t-60 -14.5t-42.5 -4.5q1 -22 2.5 -49.5t4 -57t6 -59.5t6.5 -57q6 -63 11.5 -121t5.5 -96q0 -25 -8 -44.5t-21 -33t-29 -21t-32 -7.5q-20 0 -32 10.5t-18.5 27.5t-9.5 40t-5 48q-1 9 -2 21t-2 23 q-18 -42 -56.5 -72t-85 -49.5t-94.5 -28.5t-85 -9q-130 0 -226.5 55t-160.5 145t-95.5 205t-31.5 235z" />
<glyph unicode="H" horiz-adv-x="1254" d="M103 1224q0 22 7.5 37.5t19.5 26t27.5 15.5t31.5 5q46 0 54 -30q16 -57 31.5 -121.5t29 -130t25.5 -129.5t20 -120q32 18 85.5 31t116 21t126.5 12t117 4q28 0 54 -0.5t58 -4.5l-39 508q2 41 25 61.5t53 20.5q16 0 32.5 -5.5t29.5 -16.5t21.5 -28t9.5 -40l22 -498h17 q21 0 32.5 -25.5t11.5 -56.5q0 -24 -9.5 -43t-30.5 -24q6 -149 12 -305t11 -304q-2 -50 -25 -77.5t-52 -27.5q-26 0 -47 20.5t-25 62.5q-2 42 -4.5 98.5t-5.5 120.5q-3 52 -6 108.5t-6 111t-6 104t-6 87.5h-83q-37 0 -79.5 -1.5t-87.5 -4t-89 -7.5t-83 -11.5t-70.5 -16 t-50.5 -21.5q11 -51 23 -118t24 -138.5t23 -142.5t20 -131v-17q0 -41 -24.5 -63t-55.5 -22q-24 0 -45 17t-25 54q-11 69 -26.5 158.5t-34 188.5t-38.5 204.5t-39.5 207.5t-38.5 195.5t-34 170.5q-2 8 -3 17t-1 13z" />
<glyph unicode="I" horiz-adv-x="942" d="M84 1217q0 13 4 26t13 23t22.5 16.5t32.5 6.5q44 0 110.5 7.5t137 18.5t136 23t109.5 21q6 2 12.5 2h11.5q28 0 42 -17.5t14 -42.5q0 -28 -20.5 -56.5t-61.5 -41.5l1 1q-30 -6 -69 -12.5t-92 -12.5q0 -24 -1 -49t-1 -50q0 -105 6 -214.5t16.5 -219.5t25 -218t30.5 -209 q56 7 105 11t84 4q54 0 82.5 -22.5t28.5 -57.5q0 -25 -19.5 -47.5t-57.5 -22.5q-55 0 -130 -7.5t-153.5 -19t-153.5 -25t-131 -25.5q-7 -2 -12 -2h-9q-31 0 -47 19.5t-16 46.5q0 31 19.5 51t55.5 33t86.5 22.5t112.5 20.5q-13 84 -27 182.5t-25.5 205t-19 217t-7.5 217.5 q0 33 1 64.5t6 71.5q-53 -5 -99 -9t-81 -4q-36 0 -54 22.5t-18 51.5z" />
<glyph unicode="J" horiz-adv-x="1040" d="M83 1231q0 22 11 42t38 26q39 10 95 20t121.5 19.5t136 18.5t137.5 16.5t126 13.5t102 10q32 -1 52.5 -26t20.5 -57q0 -26 -15 -41t-40.5 -23.5t-58.5 -12t-69 -6.5q-16 -2 -40 -4t-39 -4q22 -54 46.5 -121t48 -140.5t44.5 -150t37 -149.5t25.5 -140t9.5 -122 q0 -104 -36.5 -174t-93 -113t-124.5 -61t-132 -18q-84 0 -152 28t-116 77t-73.5 114t-25.5 140q0 54 25 83t69 29q27 0 50 -19t23 -57v-26q0 -59 18 -97.5t47 -61.5t67 -32.5t77 -9.5q38 0 76 7.5t68 26.5t49 51.5t19 82.5q0 42 -8.5 101t-23 128.5t-35 146.5t-44 154.5 t-50 153.5t-53.5 143l-333 -49q-17 -3 -31 3.5t-24 18.5t-16 28t-6 33z" />
<glyph unicode="K" horiz-adv-x="1155" d="M131 1267.5v6.5q0 20 8 37t21.5 30t29.5 20t33 7q16 0 31.5 -11t20.5 -39q12 -49 22 -107.5t18 -116.5t12.5 -111t4.5 -91v-43q68 38 138 88t134.5 106t120 114t94.5 111q21 28 41 39t35 11q17 0 31 -8.5t24.5 -21.5t16.5 -29t6 -30q0 -7 -1 -13t-4 -10 q-53 -68 -114 -135t-126 -128t-133 -112.5t-134 -89.5q55 -61 127.5 -123.5t153.5 -120t166.5 -107t168.5 -84.5h-1q11 -5 15 -17t4 -26q0 -18 -5.5 -36.5t-16.5 -34t-27 -25t-37 -9.5q-15 0 -37 8q-81 35 -167 87.5t-169 115t-157.5 131.5t-132.5 137q10 -104 9 -207v-52 q-3 -129 -3 -259q0 -39 -22 -56t-54 -17q-30 0 -55.5 14.5t-25.5 41.5q-3 91 -4 190t-2.5 201.5t-5 205t-9.5 200.5t-16 188.5t-25 168.5q-2 7 -2 11.5z" />
<glyph unicode="L" horiz-adv-x="1043" d="M126 1087q0 71 0.5 138t5.5 132v1q0 40 23 59t54 19q29 0 51.5 -17t22.5 -47q0 -82 -2.5 -160.5t-2.5 -160.5q0 -119 1.5 -236.5t4.5 -227.5t7 -209.5t9 -181.5q72 0 155 8.5t169 20t170.5 24.5t158.5 24q38 0 54 -21t16 -50t-17.5 -54t-57.5 -33q-38 -9 -92.5 -19 t-119 -20t-134 -19.5t-138 -18t-131 -15.5t-112.5 -11q-32 0 -46.5 26.5t-16.5 64.5q-8 107 -14 228.5t-10 248.5t-6 255.5t-2 251.5z" />
<glyph unicode="M" horiz-adv-x="1421" d="M129 1240q0 78 23 115t57 37q38 0 79.5 -33.5t73.5 -95.5q30 -59 77.5 -139.5t102 -167t111 -170t106.5 -147.5q19 51 44.5 114.5t55 132t62 139.5t64.5 138t63 127.5t58 107.5q14 25 34 39.5t55 14.5q25 0 42 -9t27 -21.5t14 -27.5t4 -27q-4 -145 -5 -295v-120 q0 -90 1 -180q2 -150 5 -299.5t9 -290.5q-2 -40 -23.5 -62t-47.5 -22q-25 0 -45 18t-22 54q-5 108 -8.5 227.5t-6.5 242.5t-5.5 246t-6.5 238q-40 -79 -68.5 -142.5t-54.5 -122.5q-42 -97 -84 -192t-80 -189q-9 -23 -26.5 -33t-37.5 -10q-31 0 -69 31.5t-80 83.5t-87 119 t-89 137.5t-85 140t-76 125.5q4 -67 11 -145.5t16 -163t19 -172t21 -174t22 -168.5t21 -154q0 4 1.5 -4.5t4.5 -13.5q-1 -32 -24.5 -48.5t-50.5 -16.5t-51.5 16.5t-31.5 54.5q-24 127 -41 254.5t-29 252.5t-21 246t-17 236q-3 42 -7 84.5t-4 83.5z" />
<glyph unicode="N" horiz-adv-x="1303" d="M124 1272q0 16 8.5 28.5t22 21.5t30.5 13.5t35 4.5q34 0 57.5 -19t29.5 -53q102 -107 195 -214t179.5 -219t169.5 -230.5t166 -248.5v27q0 41 2 81q3 52 3 105q0 65 -5 141.5t-12 155.5t-15.5 156t-15.5 143t-11 117q-3 41 -3 66v12q2 33 24 49t51 16q28 0 51.5 -17 t31.5 -52q13 -88 24 -181.5t19 -188t12.5 -189t4.5 -185.5q0 -96 -2.5 -188.5t-14 -165t-35.5 -116.5t-66 -44q-14 0 -33.5 4.5t-30.5 22.5q-159 238 -324.5 468t-353.5 445q1 -20 3.5 -45.5t5 -53t5 -53.5t4.5 -46q12 -124 22.5 -248.5t10.5 -255.5q0 -73 -3.5 -147 t-14.5 -152q-5 -38 -26 -55.5t-50 -17.5q-26 0 -47 17.5t-21 53.5q0 66 4.5 131t4.5 132q0 120 -7 242.5t-19 244.5t-27.5 241t-32.5 232q-5 7 -5.5 9.5t-0.5 4.5z" />
<glyph unicode="O" horiz-adv-x="1158" d="M76 620q0 112 19.5 208t55 173.5t85 136t108.5 96.5q-3 14 -3.5 18.5t-0.5 9.5q0 27 19 46.5t50 32.5t70.5 19t79.5 6q103 0 197.5 -39t166.5 -115.5t115 -189.5t43 -260q0 -200 -40.5 -339.5t-112 -227t-169.5 -127t-213 -39.5t-203 42.5t-147 120t-89.5 186.5 t-30.5 242zM235 659q0 -127 21 -216t60.5 -144.5t96 -81t128.5 -25.5q95 0 164.5 37t115 106.5t67.5 169t22 223.5q0 112 -23 201t-66.5 151t-105 95.5t-137.5 33.5q-29 0 -58 -6.5t-53 -17.5q-2 -23 -15.5 -46t-35.5 -40q-88 -59 -134.5 -174.5t-46.5 -265.5z" />
<glyph unicode="P" horiz-adv-x="1071" d="M132 75q0 164 3.5 326.5t11 318.5t20.5 302t32 277q5 37 33 57t66 30t80.5 12t77.5 2q101 0 197.5 -25t171.5 -77.5t120.5 -133t45.5 -192.5q0 -81 -30.5 -150t-82 -125t-121 -100t-147 -75.5t-160 -50t-160.5 -23.5q-3 -65 -4.5 -139.5t-3.5 -139.5q-1 -22 -1 -44 t-1 -45q0 -39 -24.5 -59.5t-53.5 -20.5q-26 0 -48 19t-22 56zM296 604q59 9 122 24.5t123.5 38.5t114 53.5t94 68.5t64.5 83.5t24 99.5q0 61 -31 110.5t-84 84.5t-125 53.5t-154 18.5q-38 0 -77 -3q-2 0 -10.5 -0.5t-10.5 -0.5q-8 -69 -15.5 -146.5t-13.5 -158.5t-11.5 -164 t-9.5 -162z" />
<glyph unicode="Q" horiz-adv-x="1284" d="M74 631q0 66 10 147t29.5 164t48.5 161.5t67.5 139.5t86.5 98t104 37q7 0 14 -0.5t15 -2.5l7 1q21 9 42 15t47 6q134 0 232 -47.5t162.5 -132.5t96 -204t31.5 -261q0 -68 -12.5 -133t-33 -124t-47.5 -111.5t-56 -95.5q20 -53 51.5 -83.5t61.5 -30.5q18 0 31 8t23 21 t18 30t15 35q7 16 14.5 32.5t17.5 30t22.5 21.5t29.5 8q26 0 46 -16.5t20 -45.5q0 -67 -23.5 -117.5t-58.5 -85t-74.5 -52t-71.5 -17.5q-28 0 -58.5 8.5t-61 27.5t-59 50.5t-52.5 78.5q-13 -20 -41 -46t-66.5 -49.5t-85 -40t-95.5 -16.5q-85 0 -151 28.5t-115.5 75.5 t-84 108.5t-56 127.5t-31 131.5t-9.5 120.5zM226 631q0 -54 10.5 -103t38.5 -95q25 41 59.5 82.5t76 74.5t88 54t94.5 21q28 0 62.5 -14.5t67.5 -43.5t59 -72t36 -100q18 27 34.5 61t29 72t19.5 77.5t7 77.5q0 109 -17.5 204t-58.5 165t-109 110t-169 40q-52 0 -96 -25 t-80.5 -68.5t-64.5 -102.5t-47.5 -127t-29.5 -141.5t-10 -146.5zM344 287q9 -19 26.5 -35t39.5 -27.5t46.5 -18t47.5 -6.5q43 0 84.5 16t74 38.5t52.5 46t20 38.5q-7 25 -21 55.5t-35 56t-49.5 43t-65.5 17.5q-38 0 -77.5 -22.5t-71.5 -56.5t-53 -73q-18 -36 -18 -66v-6z " />
<glyph unicode="R" horiz-adv-x="1291" d="M124 1162q0 19 4.5 40t16.5 42.5t33 43.5t54 42q28 17 67.5 35t82 32.5t85.5 23.5t79 9q91 0 168 -30.5t133 -80.5t87.5 -114t31.5 -130q0 -32 -11 -69t-31.5 -73t-50 -67.5t-65.5 -50.5q30 -5 74 -20t92 -44t95.5 -74t85 -111t61 -154.5t23.5 -204.5q0 -36 -2 -71.5 t-12 -63.5t-30.5 -45.5t-57.5 -17.5q-26 0 -47 18.5t-21 60.5q0 14 1 28t2 29q1 14 1.5 28.5t0.5 28.5q0 100 -22.5 184.5t-68 145.5t-114.5 95t-162 34q-53 0 -100 -6t-93 -18t-93 -31.5t-99 -46.5q4 -57 7 -125t5 -136.5t3 -133t1 -113.5q0 -24 -9 -43.5t-23 -34 t-31.5 -22.5t-33.5 -8q-23 0 -37.5 17t-16.5 55q-4 78 -8 167t-8 183.5t-8 191t-8.5 189.5t-9.5 179.5t-10 160.5v1q-3 17 -7 35t-4 40zM283 1176q4 -111 7.5 -228.5t14.5 -226.5l61 20q44 15 93.5 32.5t97.5 39t92 47.5t77.5 58t53 71t19.5 86q0 43 -21 80t-56 64.5t-82 43 t-98 15.5q-34 0 -70.5 -8t-71 -21.5t-65 -32.5t-52.5 -40z" />
<glyph unicode="S" horiz-adv-x="1139" d="M76 341q0 16 7 30t19 24t27 15.5t30 5.5q25 0 47.5 -12.5t30.5 -40.5q16 -61 50 -111t81.5 -86t105 -55.5t122.5 -19.5q64 0 122 16.5t102 48.5t70.5 79.5t26.5 109.5t-28 108t-78.5 80t-121.5 58t-157 42q-41 8 -89.5 20.5t-97 32.5t-93.5 50t-79.5 73.5t-55.5 102.5 t-21 137q0 74 36 141.5t98.5 118.5t147 81.5t181.5 30.5q73 -2 137.5 -23.5t113 -57.5t76.5 -83t28 -98q0 -35 -21.5 -56.5t-49.5 -21.5q-23 0 -40 19t-36 45q-15 21 -33.5 43.5t-43 41.5t-58 31t-78.5 12q-62 0 -115 -17t-92 -48.5t-61 -76t-22 -99.5q0 -65 28.5 -107.5 t76 -71t109.5 -46t129 -33.5q53 -13 108 -28.5t107 -38.5t98 -54.5t80 -77t54 -106t20 -140.5q0 -77 -23 -137t-62 -105t-89 -76t-105 -50.5t-110 -28t-103 -8.5q-197 0 -323.5 99.5t-177.5 300.5q-4 5 -4.5 9.5t-0.5 7.5z" />
<glyph unicode="T" horiz-adv-x="1143" d="M17 1299q0 29 21 52.5t59 22.5q35 0 68.5 -1.5t68 -3.5t70.5 -4t77 -2q84 0 175.5 3.5t179 10t164.5 16t133 21.5q5 2 9.5 2h9.5q35 0 54.5 -23.5t19.5 -51.5q0 -37 -45 -59t-116 -35t-157.5 -19.5t-169.5 -11.5q0 -80 4 -174.5t10.5 -197.5t16 -210t20.5 -212.5 t23 -205.5t25 -188v-14q0 -35 -23.5 -53t-52.5 -18q-24 0 -47 16t-28 51q-21 118 -40 251.5t-33 273.5t-22 282t-8 279q0 29 1.5 57.5t0.5 57.5h-92q-40 0 -83 0.5t-84.5 2.5t-79.5 7.5t-66.5 15t-45.5 25t-17 37.5z" />
<glyph unicode="U" horiz-adv-x="1141" d="M105 982q0 88 9 172t25 160v1q5 23 25 35.5t43 12.5q15 0 30 -5.5t27 -17t19 -29t7 -41.5q0 -36 -4 -72.5t-8.5 -73.5t-8 -75.5t-3.5 -78.5q0 -81 7.5 -168t24.5 -170t44 -157.5t66.5 -130.5t92 -89t120.5 -33q48 0 86 27.5t66.5 76t48.5 113.5t32.5 140.5t18 157.5 t5.5 164q0 28 -1.5 64t-4.5 75t-6.5 78.5t-6.5 74.5t-6.5 63.5t-5.5 44.5t4.5 29.5t18 23t26 14.5t29.5 5q27 0 46.5 -18.5t32 -49.5t19.5 -71t10.5 -83t4.5 -85.5t1 -78.5q0 -242 -27.5 -419t-84.5 -292.5t-144 -171.5t-205 -56q-82 0 -148.5 38.5t-119 106t-91 158 t-64 194.5t-38 215.5t-12.5 221.5z" />
<glyph unicode="V" horiz-adv-x="1188" d="M24 1226q0 19 9 36t22.5 29.5t30.5 19.5t33 7q29 0 51 -38q48 -111 109.5 -241t131 -265t145 -267.5t153.5 -247.5q26 64 54.5 146.5t57 173.5t56 186t52 185t44.5 170t33 141q8 35 33.5 55.5t54.5 20.5q26 0 47.5 -18.5t21.5 -54.5q0 -8 -2.5 -17t-5.5 -17 q-15 -86 -39 -183t-53 -197.5t-62 -202.5t-66.5 -197.5t-66 -182t-59.5 -156.5q-10 -24 -31 -36.5t-47 -12.5q-24 0 -46.5 9t-33.5 28l-1 1q-51 66 -105.5 146t-108 166.5t-105 176t-97.5 174.5t-84.5 162t-66.5 138.5t-43.5 104t-15.5 58.5z" />
<glyph unicode="W" horiz-adv-x="1498" d="M81 1109q0 38 1.5 76t5.5 78q1 25 19 35t42 10q16 0 33.5 -5t31.5 -14t23 -22t9 -29q0 -39 -7.5 -77.5t-7.5 -80.5q0 -71 9.5 -150.5t25.5 -160.5t36.5 -159.5t43.5 -146t46 -120t44 -81.5q17 40 32.5 94t29 117t25 131.5t20.5 138t16 137t11 127.5q3 24 13.5 43.5 t26 33.5t34 21.5t38.5 7.5q34 0 64 -23.5t43 -65.5q16 -60 38.5 -128t48.5 -138.5t54.5 -140t58.5 -132t60 -115t58 -89.5q17 33 35.5 90.5t35.5 129t32 154t26.5 165.5t18 163t6.5 147q0 42 -6 79t-6 75q0 16 7 28t18 20t25 12.5t29 4.5q32 0 51 -18t28.5 -49t12 -72.5 t2.5 -88.5q0 -105 -13 -221t-35 -228t-52 -213.5t-63 -178.5t-68.5 -122.5t-68.5 -45.5q-40 0 -82 39.5t-83.5 104t-80.5 145.5t-72.5 164.5t-59.5 161.5t-41 136q-5 -78 -16 -164t-28 -170t-40 -160t-51 -134t-61.5 -92.5t-71.5 -34.5q-24 0 -50 13.5t-52 42.5t-52 75 t-51 111q-25 64 -51.5 148t-48 182t-35.5 207t-14 222z" />
<glyph unicode="X" horiz-adv-x="1125" d="M53 1201q0 18 7.5 34.5t20.5 29.5t28.5 21t32.5 8q12 0 23 -5t22 -17q102 -105 202.5 -218t192.5 -222q78 138 139 262.5t106 232.5q8 20 22 28t33 8q16 0 31.5 -6.5t28 -18t20 -27t7.5 -34.5q0 -20 -7 -35v1q-51 -119 -120 -256.5t-154 -283.5q102 -126 194 -249.5 t173 -236.5v1q8 -12 11 -24t3 -23q0 -18 -7.5 -34.5t-20.5 -29.5t-29 -20.5t-32 -7.5q-34 0 -57 31q-69 96 -153.5 209.5t-173.5 227.5q-82 -133 -171 -257t-183 -230q-11 -14 -22 -20t-23 -6q-15 0 -29 8t-25.5 21t-18 30t-6.5 35q0 16 4.5 30t17.5 27q91 109 180.5 235 t173.5 260q-98 119 -205 241t-216 234q-20 20 -20 46z" />
<glyph unicode="Y" horiz-adv-x="1089" d="M31 1317q0 19 7.5 36t19 30t26 20.5t28.5 7.5q17 0 32 -11.5t26 -37.5v1q31 -91 69.5 -177.5t82 -164t91.5 -144t97 -116.5q21 41 51.5 95t66.5 114t76 122t79 120t75 107t65 83q20 19 52 19q16 0 31.5 -5t28 -14t20.5 -22t8 -28q0 -11 -5 -21t-13 -23 q-55 -79 -116 -164.5t-118 -172t-105.5 -172t-78.5 -164.5q2 -80 7 -158.5t11.5 -152t13.5 -140t13 -121.5q1 -8 1.5 -16t1.5 -22q0 -35 -25.5 -55t-56.5 -20q-13 0 -26.5 4.5t-24.5 13t-18.5 21t-9.5 29.5q-7 52 -13.5 121.5t-13 147t-12.5 159t-10 157.5 q-78 68 -145 148.5t-121 168.5t-95 181t-67 187q-5 8 -5.5 14.5t-0.5 14.5z" />
<glyph unicode="Z" horiz-adv-x="1221" d="M48 1174q0 16 5.5 32t15 28.5t22.5 20.5t29 8q20 -2 45 -2.5t50 -0.5q76 0 161.5 6.5t172.5 16.5t171 22t159 24q18 3 38.5 7t37.5 4q39 0 56 -24t17 -57q0 -20 -4 -41.5t-10.5 -41.5t-14 -38.5t-14.5 -31.5q-41 -70 -93 -149.5t-111.5 -162.5t-123.5 -167.5t-128.5 -164 t-126 -151.5t-116.5 -131q52 13 116.5 25.5t135.5 24.5t145 22.5t144.5 19t135 15t115.5 9.5q48 -2 74 -27t26 -60q0 -28 -17 -48.5t-55 -23.5q-51 -5 -120.5 -12t-147.5 -16.5t-160 -20.5t-159 -22.5t-143.5 -23t-114.5 -21.5q-2 -1 -7.5 -2t-11.5 -1.5t-11 -1.5h-5 q-55 2 -91 37.5t-36 89.5q0 24 13 53.5t41 59.5q45 46 101.5 112t118.5 143.5t126.5 163.5t124.5 173t113 170.5t93 156.5q-54 -11 -124.5 -24.5t-150 -25t-165.5 -19.5t-170 -8q-32 0 -63 1.5t-55 9t-39 23t-15 42.5z" />
<glyph unicode="[" horiz-adv-x="775" d="M170 171q0 77 0.5 183t1.5 225.5t3 244t4 239t5 211t7 159.5q0 27 29.5 42t72.5 22t92 8t88 1h56t55 -2h1q17 -1 30 -8.5t21.5 -19t13 -25.5t4.5 -29q0 -27 -15.5 -49.5t-48.5 -22.5q-45 0 -92 -2.5t-92 -5.5q-15 -1 -36 -2.5t-37 -1.5q-1 -41 -2 -119t-2 -175.5t-2 -206 t-1.5 -211t-0.5 -190v-143.5q0 -84 0.5 -168t1.5 -163.5t2.5 -151.5t3.5 -131q52 -6 99 -3t95 11q27 5 53.5 8t49.5 3q18 0 34 -8.5t28 -21.5t19 -30t7 -33q0 -29 -30.5 -47t-80.5 -27.5t-116 -12.5t-136 -3q-32 0 -63 1t-56 6.5t-40.5 17.5t-16.5 35q-7 156 -8 305.5 t-1 290.5z" />
<glyph unicode="\" horiz-adv-x="935" d="M46 1555q4 22 16.5 39.5t31.5 29t38.5 13t37 -8.5t28.5 -34l707 -1640q7 -17 0.5 -31.5t-21 -25.5t-34.5 -17.5t-39.5 -6t-36 9t-24.5 26.5l-698 1601q-10 23 -6 45z" />
<glyph unicode="]" horiz-adv-x="775" d="M39 -395q0 16 7 33t19 30t28 21.5t34 8.5q23 0 49.5 -3t53.5 -8q48 -8 95 -11t99 3q2 59 3.5 131t2.5 151.5t1.5 163.5t0.5 168v143.5t-0.5 190t-1.5 211t-2 206t-2 175.5t-2 119q-16 0 -37 1.5t-36 2.5q-45 3 -92 5.5t-92 2.5q-33 0 -48.5 22.5t-15.5 49.5q0 15 4.5 29 t13 25.5t21.5 19t30 8.5h1q27 2 55 2h56q39 0 88 -1t92 -8t72.5 -22t29.5 -42q4 -63 7 -159.5t5 -211t4 -239t3 -244t1.5 -225.5t0.5 -183q0 -141 -1 -290.5t-8 -305.5q-1 -23 -17 -35t-40.5 -17.5t-55.5 -6.5t-63 -1q-71 0 -136.5 3t-115.5 12.5t-80.5 27.5t-30.5 47z" />
<glyph unicode="^" horiz-adv-x="749" d="M95 1284q0 8 14.5 38t39 70t55.5 84t64 81.5t64.5 61.5t57.5 24q27 0 55.5 -25t57 -64t56 -87t53.5 -94q15 -23 29 -47.5t14 -51.5q0 -20 -7.5 -36.5t-19 -29t-25.5 -19.5t-28 -7q-16 0 -35 18.5t-38 45.5t-37.5 59t-33.5 59q-12 23 -22.5 40.5t-25.5 37.5 q-34 -46 -65 -86q-26 -35 -52 -70.5t-38 -54.5q-10 -17 -23.5 -24t-27.5 -7q-15 0 -30 6.5t-26.5 18t-18.5 27t-7 32.5z" />
<glyph unicode="_" horiz-adv-x="1127" d="M15 -330q0 30 16 54t46 27q26 2 56.5 4t64.5 4q93 6 207 13t229.5 13.5t223.5 11t189 4.5q32 0 47.5 -26.5t15.5 -61.5q0 -26 -9.5 -47t-23.5 -26q-72 -1 -154.5 -4t-170 -7t-177 -9t-175 -10.5t-164 -12t-143.5 -12.5h-6q-18 0 -31.5 7.5t-22.5 19.5t-13.5 27t-4.5 31z " />
<glyph unicode="`" horiz-adv-x="573" d="M111 1537.5v6.5q0 15 7.5 28t19.5 22.5t27 15t30 5.5q23 0 48 -30t52 -70q13 -20 29 -42t33.5 -44t37 -42t41.5 -36q29 -24 29 -50q0 -29 -25 -50t-60 -21q-36 0 -75.5 27.5t-76 71t-67 97t-49.5 105.5q-1 3 -1 6.5z" />
<glyph unicode="a" horiz-adv-x="1099" d="M65 881q0 22 18.5 39t48 30t68 22.5t79 15t79 8t69.5 2.5q63 0 125.5 -14.5t119.5 -42.5t106 -68t85 -91t56.5 -112t20.5 -131q0 -72 12.5 -125.5t30.5 -94t38.5 -68.5t37.5 -49q13 -17 21 -27t8 -18q0 -15 -5 -30.5t-14 -28.5t-21 -21t-26 -8q-23 0 -49.5 18.5t-52.5 50 t-47.5 74.5t-33.5 91q-15 -65 -61 -124t-104.5 -104t-120.5 -71.5t-109 -26.5q-74 0 -129.5 19.5t-92.5 53t-55.5 78.5t-18.5 96q0 52 17 107.5t48 107.5t75 98.5t98 81t116.5 55t130.5 20.5q16 0 45 -3t63 -8q-33 58 -75.5 91.5t-85.5 50t-81.5 21t-64.5 4.5 q-61 0 -121.5 -13t-129.5 -39h1q-9 -2 -19 -4t-18 -2q-20 0 -35 8t-25.5 20.5t-16 28.5t-5.5 32zM314 242q0 -19 7 -36.5t20.5 -30.5t33 -21t45.5 -8q35 0 73 13.5t74 36.5t68.5 54.5t57 67t39 73.5t14.5 75q0 28 -11 46t-29 28.5t-40.5 14.5t-44.5 4q-52 0 -106.5 -25 t-99 -68.5t-73 -101t-28.5 -122.5z" />
<glyph unicode="b" horiz-adv-x="974" d="M127 42q0 3 0.5 6t5.5 8q13 122 22.5 259.5t15.5 282.5t9 293t3 290q0 80 -2.5 159.5t-2.5 157.5q0 39 24 58.5t56 19.5q31 0 57 -19.5t26 -58.5q2 -48 1.5 -95.5t-0.5 -98.5q0 -81 -0.5 -173t-2.5 -178q115 0 216 -34.5t176 -95t118.5 -144t43.5 -181.5q0 -114 -56 -201 t-148 -149t-209.5 -100.5t-240.5 -54.5q-11 -5 -23 -8.5t-20 -3.5q-26 0 -47.5 15.5t-21.5 45.5zM293 160q84 21 163.5 52t141.5 73t100 95t38 118q0 54 -28.5 107t-80.5 95t-126.5 68.5t-165.5 26.5q-4 -80 -8.5 -164t-9.5 -166t-11 -160t-13 -145z" />
<glyph unicode="c" horiz-adv-x="946" d="M77 374q0 102 24.5 185t65 148.5t93.5 114t109.5 80t113 47t104.5 15.5q28 0 49 -3.5t40 -9t36.5 -13l38.5 -16.5h-1q27 -14 39.5 -36t12.5 -45q0 -26 -15 -47t-38 -21q-14 0 -28 6.5t-24 11.5q-27 10 -49 17t-47 7q-86 0 -154 -35.5t-115.5 -96.5t-73 -141.5 t-25.5 -171.5q0 -47 19.5 -86.5t52 -69t73.5 -46t85 -16.5q96 0 176.5 30.5t160.5 83.5q11 7 23.5 11.5t21.5 4.5q22 0 33.5 -17.5t11.5 -44.5q0 -36 -21.5 -66.5t-57 -55t-82.5 -43t-97.5 -31t-101 -18.5t-94.5 -6q-91 0 -158.5 29t-112 80t-66.5 119t-22 146z" />
<glyph unicode="d" horiz-adv-x="982" d="M78 473q0 84 44 162t120.5 138t180.5 96t225 36v111q0 112 2 220.5t8 212.5q1 20 8 35t18 24.5t25 14.5t29 5q27 0 49.5 -18t22.5 -55q0 -118 -6 -237t-6 -239q0 -114 3 -231.5t9.5 -233t16 -227t22.5 -214.5v-9q0 -35 -22 -53t-48 -18q-15 0 -26.5 4t-23.5 12 q-78 10 -156.5 27.5t-150.5 44t-135 63.5t-109.5 85t-73 109t-26.5 135zM241 473q0 -64 37.5 -113t99 -85t139.5 -61.5t159 -42.5l-26 578q-94 0 -169.5 -27.5t-129 -68.5t-82 -89.5t-28.5 -90.5z" />
<glyph unicode="e" horiz-adv-x="1066" d="M76 480q0 57 12 121t37.5 125.5t64 117.5t92 99t122 68t152.5 25q85 0 144.5 -25t97.5 -66t55.5 -92.5t17.5 -104.5q0 -56 -18 -102.5t-47 -84.5t-66 -66.5t-76 -49.5t-76 -34t-66 -19q-34 -7 -78 -7q-49 0 -106 13t-104 43q10 -80 45 -135t85.5 -89.5t112.5 -49.5 t125 -15q55 0 101.5 15t85.5 41t70 60.5t55 72.5q14 19 29 26.5t30 7.5q25 0 45.5 -21t20.5 -53q0 -26 -15 -51q-31 -50 -77.5 -96.5t-100.5 -81.5t-111.5 -56t-111.5 -21q-37 0 -92 3.5t-115.5 18.5t-121.5 45t-109.5 84t-78.5 135.5t-30 198.5zM237 554q35 -17 74 -23.5 t76 -6.5q25 0 59 2t70.5 10t71.5 23t62.5 41t44.5 64.5t17 92.5q0 19 -11 42.5t-31 43.5t-49.5 33.5t-66.5 13.5q-13 0 -26 -2t-27 -5q-54 -13 -102 -48t-84 -82t-57 -99.5t-21 -99.5z" />
<glyph unicode="f" horiz-adv-x="949" d="M17 836q0 25 21 41t54.5 26.5t76.5 17t87 12.5q14 2 35 5.5t35 5.5q0 60 4 123.5t15 124.5t29.5 115t46.5 95t67.5 65t91.5 24q46 0 96.5 -14.5t93 -39.5t70.5 -57.5t28 -69.5q0 -29 -18.5 -51t-47.5 -22q-9 0 -20.5 4t-22.5 10t-22 13.5t-18 13.5q-13 10 -24.5 18 t-25 13t-29.5 7.5t-37 2.5q-37 0 -61 -34.5t-38.5 -88t-21 -117.5t-7.5 -123q71 6 134 8t124 2q42 0 76 -1.5t59 -9.5t38.5 -24.5t13.5 -46.5q0 -29 -18.5 -49t-56.5 -20q-24 1 -43 1.5t-43 0.5q-63 0 -135 -4t-145 -12q3 -42 7.5 -83.5t11.5 -86t16 -94t20 -107.5 q5 -25 10 -54.5t9.5 -61.5t7 -65t2.5 -64q0 -32 -3.5 -59.5t-11 -47.5t-21 -31t-32.5 -11q-27 0 -51 22.5t-24 66.5v37q0 75 -12 157.5t-26 165.5q-11 70 -23 148.5t-18 153.5q-32 -5 -62.5 -10.5t-57.5 -10.5q-32 -6 -63.5 -11.5t-54.5 -5.5q-19 0 -35 8t-27 20.5t-17.5 28 t-6.5 30.5z" />
<glyph unicode="g" horiz-adv-x="1106" d="M48 -255q0 67 29.5 119.5t77.5 93t110.5 69.5t129 50.5t131.5 36.5t119 26l56 12t47 11q8 30 13.5 56.5t9.5 57t6 69t4 92.5q-44 -45 -92 -83t-96 -65.5t-94.5 -42.5t-88.5 -15q-132 0 -202.5 63t-70.5 189q0 62 25 122.5t67 115t96.5 101t113.5 80.5t118 53.5t110 19.5 q97 0 150.5 -38t78.5 -106.5t30 -163.5t5 -210q-1 -29 -3.5 -63t-6 -67.5t-8 -64.5t-10.5 -54q17 6 31.5 12.5t28.5 11.5t28 8t31 3q12 0 23 -6.5t20 -17.5t14 -24.5t5 -28.5q0 -22 -14 -41.5t-44 -28.5l1 1q-38 -10 -74.5 -19t-76.5 -17q-13 -55 -32.5 -115.5t-50 -118.5 t-72.5 -110t-100 -91.5t-132.5 -63t-169.5 -23.5q-61 0 -111 15.5t-85.5 43.5t-55 65t-19.5 81zM214 -223q0 -30 15.5 -47.5t38.5 -27.5t49.5 -13t48.5 -3q35 0 76 14.5t79 37t69.5 50.5t48.5 55q25 41 43 82.5t29 99.5q-24 -5 -51.5 -10.5t-54.5 -11t-52.5 -11.5t-44.5 -10 q-42 -10 -93 -31t-96 -48.5t-75 -60t-30 -65.5zM290 516q0 -75 34.5 -108t117.5 -33q31 0 76.5 21t92.5 57t90 83.5t69 100.5q-2 28 -2.5 59.5t-9 58.5t-29 44.5t-62.5 17.5q-37 0 -79.5 -14t-84.5 -37t-80.5 -53.5t-68 -64t-47 -68t-17.5 -64.5z" />
<glyph unicode="h" horiz-adv-x="1066" d="M122 119v44q12 69 17 151.5t5 168.5q0 22 1 43q1 64 -1 128q-2 86 -2 163q0 51 3 123.5t10 150.5t18.5 155t28.5 138t40.5 99t53.5 38q27 0 49 -25t22 -76q0 -12 -1 -23.5t-3 -25.5q-9 -53 -21.5 -120.5t-24 -142.5t-19.5 -152.5t-8 -150.5q0 -15 0.5 -35.5t1.5 -42 t2 -41.5t2 -35q75 81 164.5 128.5t184.5 47.5q67 0 119 -27t89 -67t59 -86t28 -84q11 -52 15.5 -108t4.5 -117q0 -57 -4.5 -114t-15.5 -106v-1q-8 -40 -34.5 -58t-54.5 -18q-26 0 -43 14.5t-17 43.5q0 60 7 116t7 116q0 31 -1 68t-6 74t-15.5 72t-30.5 62t-50.5 43t-74.5 16 q-51 0 -102.5 -23.5t-96.5 -61t-79.5 -85.5t-51.5 -97q-1 -37 -2 -78.5t-3.5 -82t-8 -78t-14.5 -66t-23 -45.5t-34 -17q-14 0 -30 4t-29.5 13.5t-22 26.5t-8.5 43z" />
<glyph unicode="i" horiz-adv-x="547" d="M56 1301q0 55 21.5 97t55 71t73.5 44t76 15q53 0 91.5 -19t63.5 -47.5t37 -62t12 -63.5q0 -45 -15.5 -85.5t-44 -72.5t-70.5 -53t-94 -27q-5 0 -8 -0.5t-6 -1.5q-5 -1 -9 -1q-45 0 -79 18.5t-57.5 48t-35 66.5t-11.5 73zM171 1301q0 -13 7 -29t19.5 -30.5t30.5 -24 t40 -9.5q18 0 35 9.5t30.5 23.5t21.5 31.5t8 33.5q0 22 -7.5 42t-20.5 35t-30.5 23.5t-36.5 8.5q-46 0 -69.5 -33t-27.5 -81zM174 843v10q0 15 7 26.5t19 19t27 11.5t31 4q29 0 53 -13t27 -43q16 -121 22.5 -256t6.5 -276q0 -35 1 -72.5t1 -74.5q0 -42 -2.5 -82.5t-10 -72 t-22 -51t-38.5 -19.5q-17 0 -33.5 7t-29 20.5t-20.5 33.5t-8 46q1 46 1.5 89.5t0.5 91.5q0 70 -1.5 147.5t-5.5 155.5t-10.5 154t-15.5 144z" />
<glyph unicode="j" horiz-adv-x="857" d="M24 226q0 32 21 50t49 18q11 0 23 -3.5t22.5 -11t18 -19t9.5 -28.5q7 -83 28 -142t49.5 -96.5t62 -54.5t66.5 -17q54 0 93 32t63.5 89t36 135t11.5 170q0 70 -5 143.5t-13 143.5t-19 132.5t-23 109.5l-3 19q0 17 8 31.5t20.5 25t28.5 16t32 5.5q25 0 45 -16.5t27 -53.5 q23 -125 43 -272t20 -313q0 -79 -8.5 -154.5t-28.5 -134.5q-18 -49 -47 -100t-69.5 -92t-91.5 -67.5t-113 -26.5q-85 0 -151 41.5t-111.5 109t-69.5 154.5t-24 177zM295 1332q0 51 21.5 92.5t54.5 70.5t72.5 44.5t76.5 15.5q53 0 91 -19t63 -47.5t37.5 -62.5t14.5 -65 q0 -42 -15.5 -82.5t-44.5 -73t-70.5 -54t-94.5 -26.5q-4 0 -7.5 -1t-6.5 -2h-6q-45 0 -80 18.5t-58.5 48.5t-35.5 67.5t-12 75.5zM418 1332q0 -14 5 -30t15 -29.5t25.5 -22.5t36.5 -9h7q40 0 64 28t24 67q0 19 -7 37t-19 31.5t-28 21.5t-34 8q-19 0 -35 -9t-28 -23.5 t-19 -33t-7 -36.5z" />
<glyph unicode="k" horiz-adv-x="1047" d="M126 47q0 355 16.5 712t44.5 719q5 38 30 59t52 21q32 0 51 -20t20 -58q-15 -198 -28.5 -405t-23.5 -399q40 33 88 65t97.5 60.5t99 52.5t95 41.5t84 27.5t65.5 10q36 0 55.5 -23.5t19.5 -52.5q0 -23 -13.5 -43t-46.5 -29q-95 -27 -197 -68.5t-208 -114.5 q48 -69 119 -138.5t149 -133.5t155.5 -118t139.5 -91q20 -11 28 -27t8 -30q0 -16 -6 -31t-16.5 -26.5t-24.5 -18.5t-30 -7q-9 0 -19.5 3t-20.5 9q-60 36 -135.5 87.5t-155.5 116t-159.5 140.5t-148.5 161q-7 -8 -15 -17.5t-15 -16.5q-4 -102 -6 -207.5t-2 -209.5 q0 -42 -22.5 -61.5t-49.5 -19.5q-28 0 -51 19.5t-23 61.5z" />
<glyph unicode="l" horiz-adv-x="514" d="M121 1461q0 43 30 62.5t93 19.5q19 0 38.5 -3.5t34.5 -14.5t24.5 -31t9.5 -52q0 -85 -3 -170t-6 -168q-6 -160 -6 -322v-46q1 -186 8 -366q4 -90 6.5 -174.5t2.5 -165.5q0 -28 -22 -45t-51 -17q-15 0 -29 5t-25 15t-18 26t-8 37q-10 155 -15.5 322.5t-5.5 338t6 338.5 t18 325l-12 1q-34 5 -52 30t-18 55z" />
<glyph unicode="m" horiz-adv-x="1445" d="M73 769q0 18 7 32t19 23.5t27 15t31 5.5q26 0 49 -21t31 -65q46 30 95.5 49t87.5 19q71 0 134 -22t115 -69q29 38 63.5 69.5t71 54t73 35t69.5 12.5q88 0 152 -24t108.5 -65t72 -94t42.5 -111t20 -117t5 -112q0 -61 -6.5 -119.5t-21.5 -104t-40 -73t-62 -27.5 q-21 0 -39 13.5t-18 43.5q0 33 4.5 66t10.5 66t10.5 66.5t4.5 68.5q0 31 -2.5 70t-10.5 80t-23.5 80t-40.5 69.5t-61.5 49t-87.5 18.5q-33 0 -68.5 -17t-65.5 -45.5t-49 -65t-19 -74.5q17 -92 27 -171t10 -147q0 -108 -24.5 -153.5t-66.5 -45.5q-25 0 -44 18t-19 47 q0 32 3.5 65.5t3.5 65.5q0 77 -8.5 155t-33 141t-70 102.5t-119.5 39.5q-18 0 -38 -5.5t-40.5 -15t-39.5 -23.5t-34 -30q8 -66 17 -135t16 -135t12 -126.5t5 -110.5q0 -46 -23.5 -68t-54.5 -22q-14 0 -28 5.5t-25 15.5t-17.5 25t-6.5 34q-1 69 -8.5 155t-19.5 176.5 t-26.5 179.5t-29.5 164q-5 5 -5.5 10t-0.5 9z" />
<glyph unicode="n" horiz-adv-x="1136" d="M91 841q0 32 22.5 51.5t51.5 19.5q43 0 70 -43.5t46 -135.5q34 37 74 70t82.5 57.5t85.5 39t84 14.5q109 0 189.5 -44.5t132.5 -118.5t77.5 -170.5t25.5 -201.5q0 -30 -1 -66.5t-4.5 -74.5t-11 -73.5t-21 -63.5t-34.5 -45t-51 -17q-23 0 -41.5 14.5t-18.5 43.5q0 3 0.5 7 t2.5 10q24 127 24 224q0 99 -16.5 175.5t-52 128t-91.5 78.5t-136 27q-35 0 -73 -19t-73.5 -48.5t-64.5 -66.5t-47 -73q19 -115 30.5 -234t11.5 -231q0 -44 -24.5 -65.5t-53.5 -21.5q-14 0 -28 5t-25 15t-18 24.5t-7 34.5q0 187 -27.5 371.5t-86.5 382.5q-2 5 -2.5 9.5 t-0.5 10.5z" />
<glyph unicode="o" horiz-adv-x="1054" d="M92 464q0 40 11 90t30 101.5t45 100t55 86.5t60 61t61 23q14 0 31 -3.5t38 -26.5q20 5 41 7.5t35 3.5q100 -5 185.5 -44t147.5 -99t97.5 -136t35.5 -155t-34 -157.5t-97.5 -141t-154 -101.5t-203.5 -39q-85 0 -155.5 36t-121.5 96t-79 137.5t-28 160.5zM260 494 q0 -66 15.5 -122.5t46.5 -98.5t78 -65.5t109 -23.5q58 0 110.5 24t92 64t63 92t23.5 109q0 62 -30 115t-78 92t-107 62t-117 25q-11 0 -26.5 -3.5t-29.5 -8.5q-5 -2 -10 -3t-12 -3q-26 -2 -49 -30.5t-40.5 -68t-28 -82.5t-10.5 -74z" />
<glyph unicode="p" horiz-adv-x="998" d="M133 861q0 21 7.5 36.5t19 25.5t26.5 14.5t30 4.5q88 0 174.5 -13t164.5 -38t144.5 -61.5t115.5 -83t76.5 -102.5t27.5 -121q0 -55 -22 -108.5t-61 -103.5t-92.5 -95t-117 -82.5t-134 -65.5t-143.5 -44q3 -44 5 -82.5t3.5 -75.5t2.5 -75t1 -81v-110q0 -40 -26 -60.5 t-56 -20.5q-28 0 -51.5 19.5t-23.5 55.5v128q0 133 -5.5 265.5t-14.5 261t-19.5 252t-20.5 239.5q-3 29 -5.5 60.5t-5.5 60.5zM293 781q7 -63 13.5 -136.5t13 -151.5t12 -158.5t10.5 -157.5q82 22 158 56.5t134.5 79.5t93.5 98t35 112q0 44 -37.5 87.5t-102 79t-150 60.5 t-180.5 31z" />
<glyph unicode="q" horiz-adv-x="1050" d="M127 523q0 62 27 115t75 96.5t113 77.5t141.5 57t160.5 35t169 12q13 0 33 -0.5t39 -6.5t32.5 -20t13.5 -41v-10q-5 -59 -10 -121.5t-11 -131.5q-10 -121 -20.5 -251.5t-20 -259.5t-16.5 -250.5t-10 -223.5q0 -40 -24 -60.5t-52 -20.5q-27 0 -49.5 20.5t-22.5 60.5 q0 95 3.5 195.5t11.5 225.5q-75 15 -147 43t-136.5 65.5t-119.5 83t-95 96t-62.5 105t-22.5 109.5zM291 523q0 -59 36 -113.5t95.5 -100t136.5 -81.5t160 -57q6 74 12.5 153t12.5 155.5t11.5 148t10.5 131.5q-98 -6 -184 -27t-151 -53t-102.5 -72t-37.5 -84z" />
<glyph unicode="r" horiz-adv-x="951" d="M74 907q0 36 25 57t55 21q21 0 36.5 -14.5t27.5 -38t20 -52.5l16 -58q2 -6 5 -17t6 -22.5t6 -21.5t5 -16q29 44 64.5 87t76.5 77t87 55t97 21q46 0 99.5 -11t99 -32t75.5 -52.5t30 -72.5q0 -32 -17 -57t-43 -25q-11 0 -22.5 4.5t-21.5 13.5q-23 19 -45 33t-45.5 22.5 t-50 12.5t-59.5 4q-40 0 -82 -28t-80.5 -71.5t-69 -97.5t-47.5 -105q16 -98 29.5 -198t16.5 -200q0 -44 -22.5 -65t-51.5 -21q-26 0 -46 17t-25 54q-7 91 -20 192.5t-30.5 202.5t-40 197t-49.5 177q-5 8 -7 15t-2 13z" />
<glyph unicode="s" horiz-adv-x="935" d="M93 767q0 81 32.5 145t86.5 109t123 68.5t142 23.5q99 0 177 -43t122 -130v2q8 -23 8 -43q0 -17 -6 -32.5t-16 -27t-23 -18t-26 -6.5q-27 0 -50 34q-21 32 -41 53t-42 34t-47.5 18t-58.5 5q-44 0 -84 -10.5t-70 -33t-48 -58.5t-18 -86q0 -47 22.5 -77t60 -49t85.5 -30.5 t99 -20.5q57 -11 114.5 -25t103 -40t74.5 -68.5t29 -110.5q0 -71 -29 -124.5t-76.5 -93.5t-109 -66.5t-127 -42.5t-130 -23t-118.5 -7q-76 0 -110.5 21t-34.5 59q0 27 21.5 44t56 27.5t78 16.5t88.5 10q58 5 115 12.5t102.5 24.5t74 48t28.5 82q0 35 -26 58t-65 38t-84 23.5 t-84 13.5q-5 1 -13 2t-16 3q-44 7 -95 23t-94.5 49t-72 86t-28.5 133z" />
<glyph unicode="t" horiz-adv-x="939" d="M25 929q0 26 16.5 46t45.5 20q21 0 40.5 -5.5t39 -12t41 -13t47.5 -7.5q12 106 32 219t43 231q10 28 29 45t39 17q28 0 52 -23t24 -64v-13t-2 -14q-21 -101 -37.5 -208t-25.5 -208q69 -7 137 -10q16 -1 32 0l104 6q26 2 53.5 4.5t50.5 2.5q32 0 48 -20t16 -45 q0 -39 -26.5 -59.5t-67.5 -30t-92 -11t-99 -1.5h-46t-41.5 1l-41 2t-44.5 4q-2 -44 -2.5 -76.5t-1.5 -58t-1 -45.5v-39q0 -91 3 -154t9.5 -105t16.5 -66t23.5 -36t30.5 -15t38 -3q66 0 119 27.5t101 76.5q32 26 58 26q31 0 51 -24t20 -55q0 -13 -5 -29t-18 -28 q-33 -32 -74 -61.5t-86 -52t-93 -35.5t-96 -13q-66 0 -114 23t-79.5 80t-46.5 153t-15 242q0 71 3 142.5t10 143.5q-43 9 -82.5 19t-69.5 24.5t-48 35t-18 50.5z" />
<glyph unicode="u" horiz-adv-x="1134" d="M103 535q0 152 38.5 229.5t95.5 77.5q24 0 40 -15t16 -43q0 -27 -4 -56.5t-8.5 -59.5t-8.5 -59.5t-4 -57.5q0 -73 10.5 -140t39.5 -118t82 -81.5t139 -30.5q41 0 81.5 22t74.5 63.5t58 100t31 132.5l-55 300q-1 5 -1.5 8t-0.5 8q0 36 22.5 54t50.5 18q27 0 52 -19.5 t30 -57.5q11 -89 29 -176t43.5 -165.5t58.5 -145.5t73 -116q8 -11 12 -24t4 -21q0 -29 -22 -50t-51 -21q-22 0 -45 18.5t-45 46.5t-41.5 60t-35.5 59q-26 -57 -61.5 -103.5t-76 -78.5t-83.5 -49.5t-83 -17.5q-128 0 -215 36t-140.5 102t-76.5 160t-23 211z" />
<glyph unicode="v" horiz-adv-x="977" d="M45 824q0 30 22 47.5t48 17.5q23 0 46 -15t33 -47q54 -158 137.5 -311t196.5 -293q49 76 92.5 165t77.5 182t57 186t31 177q4 37 26 55.5t49 18.5q28 0 50.5 -18t22.5 -53v-9q-18 -140 -51 -263.5t-77.5 -231.5t-98.5 -201t-114 -172q-12 -15 -27.5 -22.5t-29.5 -7.5 q-23 0 -44.5 11t-35.5 25q-36 37 -75 88t-78.5 111t-77.5 126.5t-71 135.5t-60 139t-45 136q-2 5 -3 10.5t-1 12.5z" />
<glyph unicode="w" horiz-adv-x="1425" d="M91 807q0 18 8 33t21.5 26t30 17t34.5 6q25 0 40.5 -15t15.5 -48q2 -69 10 -141.5t22 -141.5t33 -130t43.5 -107t54 -72.5t64.5 -26.5q23 0 43 25t36 66.5t28.5 95t20.5 110t12.5 112t4.5 100.5q0 19 7.5 34.5t20.5 26t28.5 16t32.5 5.5q26 0 46 -15.5t22 -43.5 q9 -54 28 -113.5t42.5 -116.5t50.5 -109.5t52.5 -91.5t48.5 -62.5t38 -23.5q29 0 53 29.5t41 84t26 130.5t9 169q0 60 -14.5 117.5t-28.5 101.5q-8 21 -13 39t-5 29q0 35 23.5 55.5t52.5 20.5q39 0 67.5 -33.5t47 -85.5t27.5 -115.5t9 -123.5q0 -144 -21.5 -255.5t-58 -187 t-85 -115t-102.5 -39.5q-55 0 -107 31t-96 83.5t-77 123t-51 148.5q-2 -71 -21 -141t-55 -125.5t-87.5 -89.5t-117.5 -34q-69 0 -121.5 38t-91 101t-64.5 144t-42.5 166t-25 168.5t-10.5 150.5z" />
<glyph unicode="x" horiz-adv-x="1050" d="M53 857q0 32 15.5 57.5t38.5 25.5q15 0 30 -12q96 -57 181.5 -123.5t167.5 -138.5q65 78 139.5 152t165.5 154q9 9 17 12.5t18 3.5q13 0 25.5 -7t22.5 -19t16 -27.5t6 -31.5t-6.5 -31t-18.5 -26q-67 -69 -139 -141.5t-133 -141.5q92 -85 183 -168t186 -149l-1 1 q16 -12 22.5 -27t6.5 -33q0 -14 -6.5 -28.5t-16.5 -26.5t-23.5 -19.5t-26.5 -7.5q-12 0 -21 2t-17 9q-115 77 -208.5 158.5t-178.5 162.5q-57 -77 -117.5 -174t-118.5 -201q-11 -17 -28.5 -25t-35.5 -8q-16 0 -31 4.5t-27 13t-19.5 20t-7.5 25.5t8 26q66 124 131.5 226.5 t135.5 196.5q-67 63 -139.5 122.5t-160.5 118.5q-19 13 -27 33t-8 42z" />
<glyph unicode="y" horiz-adv-x="1005" d="M54 -335q0 26 19 48.5t55 30.5q66 15 124.5 50.5t110 82t97 100.5t85.5 107q-76 55 -151 132t-138.5 166t-112 184.5t-72.5 188.5l-3.5 14t-1.5 12q0 22 8 40.5t21 32t28.5 21t30.5 7.5q17 0 30 -11.5t21 -34.5q56 -189 159.5 -344t262.5 -276q68 116 108.5 271.5 t65.5 364.5q3 38 25 54.5t50 16.5q27 0 49.5 -17.5t22.5 -52.5q0 -139 -21 -258.5t-56 -222t-81.5 -189.5t-97.5 -160t-104.5 -133t-101.5 -109q-33 -34 -78.5 -68.5t-94 -62.5t-96 -46t-83.5 -18q-20 0 -34.5 7t-25 18t-15.5 25t-5 29z" />
<glyph unicode="z" horiz-adv-x="1033" d="M56 874q0 15 6 28.5t16.5 24.5t24.5 17.5t31 6.5q11 0 29 -3.5t38 -7.5q30 -6 66 -11.5t75 -5.5q40 0 83 2t87 5t86.5 5t80.5 2q69 0 102 -22t33 -64q0 -29 -14.5 -59.5t-42.5 -58.5q-44 -44 -100 -109t-113 -137t-110 -143t-91 -128q40 0 102 2t136 8.5t155.5 18 t160.5 30.5q7 4 12 4.5t14 0.5q28 0 43.5 -20.5t15.5 -46.5q0 -23 -10.5 -44.5t-32.5 -27.5q-41 -13 -93 -24t-109 -19.5t-116 -14.5t-113.5 -10.5t-101.5 -6.5t-79 -2q-27 0 -57 4.5t-55.5 15.5t-42 28.5t-16.5 44.5q0 19 14 53v-1q22 44 55 95.5t72 105t82 107.5t85 104.5 t80.5 95.5t69.5 80l-301 -20q-130 0 -193.5 21t-63.5 76z" />
<glyph unicode="{" horiz-adv-x="925" d="M134 666q0 17 4 35t12 32.5t20 24t27 9.5q43 0 72 6t46 16.5t24.5 26t7.5 34.5q0 40 -12.5 92.5t-27.5 109t-27.5 112t-12.5 102.5q0 54 25.5 108.5t67.5 99t95.5 72.5t110.5 28q42 0 81 -12.5t78 -44.5h-1q19 -18 19 -47q0 -17 -6 -33t-17 -29t-25.5 -21t-32.5 -8 q-9 0 -19.5 5t-21.5 11q-16 8 -32 15t-31 7q-26 0 -49.5 -14t-41 -36t-27.5 -49t-10 -54q0 -56 17.5 -114.5t38.5 -117t38.5 -113.5t17.5 -103t-27.5 -85.5t-80.5 -59.5q37 -18 66.5 -49.5t49 -72t30 -89t10.5 -100.5q0 -28 -1.5 -73.5t-3 -96t-3 -98.5t-1.5 -82 q0 -60 6 -120t22.5 -108t46.5 -78t77 -30q42 0 63 -22t21 -51q0 -38 -27.5 -58t-85.5 -20q-55 0 -98 23.5t-76 62.5t-56 89.5t-37.5 104.5t-21 107t-6.5 98q0 29 1.5 76t4 97t4 96.5t1.5 75.5q0 68 -17 109t-43 64.5t-58.5 34t-63.5 17.5q-20 4 -38.5 10t-33 15.5 t-23.5 24.5t-9 38z" />
<glyph unicode="|" horiz-adv-x="566" d="M202 1499q0 33 22 50.5t51 17.5q23 0 44 -18t21 -59v-16q9 -169 16 -362t7 -393v-109.5v-138v-157t-0.5 -166t-1.5 -164.5t-3 -153t-4.5 -131.5t-5.5 -99.5q-2 -21 -10 -35.5t-19.5 -24.5t-25 -14.5t-25.5 -4.5q-25 0 -42 12.5t-17 33.5q0 91 3 187.5t6 199.5 q1 37 1 104.5t-0.5 151t-1 175t-1.5 175t-1.5 152t-0.5 105.5q0 183 -2 356.5t-10 325.5z" />
<glyph unicode="}" horiz-adv-x="925" d="M134 -399q0 29 21 51t63 22q47 0 77 30t46.5 78t22.5 108t6 120q0 34 -1.5 82t-3 98.5t-3 96t-1.5 73.5q0 52 10.5 100.5t30 89t48.5 72t67 49.5q-53 22 -80.5 59.5t-27.5 85.5t17.5 103t38.5 113.5t38.5 117t17.5 114.5q0 27 -10 54t-27.5 49t-41 36t-49.5 14 q-15 0 -31 -7t-32 -15q-11 -6 -21.5 -11t-19.5 -5q-18 0 -32.5 8t-25.5 21t-17 29t-6 33q0 29 19 47h-1q39 32 78 44.5t81 12.5q57 0 110.5 -28t95.5 -72.5t67.5 -99t25.5 -108.5q0 -47 -12.5 -102.5t-27.5 -112t-27.5 -109t-12.5 -92.5q0 -19 7.5 -34.5t24.5 -26t46 -16.5 t72 -6q15 0 27 -9.5t20 -24t12 -32.5t4 -35q0 -23 -9 -38t-23.5 -24.5t-33.5 -15.5t-38 -10q-31 -7 -63.5 -17.5t-58.5 -34t-43 -64.5t-17 -109q0 -29 1.5 -75.5t4 -96.5t4 -97t1.5 -76q0 -45 -6.5 -98t-21 -107t-37.5 -104.5t-56 -89.5t-76 -62.5t-98 -23.5q-58 0 -85.5 20 t-27.5 58z" />
<glyph unicode="~" horiz-adv-x="1162" d="M66 487q0 24 4.5 45.5t12.5 42.5q7 18 21 43.5t34 53.5t45 56t53.5 50t59.5 35.5t64 13.5q64 0 110.5 -23.5t80 -60.5t58 -81t44.5 -86q14 -29 27.5 -55t28 -45t32 -30t38.5 -11q44 0 70.5 16.5t42 43.5t22.5 61t13 68q4 27 9.5 51.5t14.5 43.5t23.5 30.5t38.5 11.5 q15 0 30 -5.5t27 -16.5t19 -27.5t7 -38.5q-2 -63 -20.5 -133.5t-56.5 -129t-97 -97t-143 -38.5q-51 0 -91 22t-71.5 56.5t-56.5 76t-46 80.5q-16 29 -30.5 55t-30.5 45.5t-33 31t-37 11.5q-25 0 -49.5 -15t-44.5 -37.5t-33.5 -47.5t-16.5 -44q-1 -6 -1 -14.5v-15.5 q0 -18 -1.5 -37t-8 -34.5t-20.5 -25.5t-39 -10q-28 0 -47.5 9.5t-32 25.5t-18 36.5t-5.5 43.5z" />
<glyph unicode="&#xa0;" horiz-adv-x="491" d="M0 2102v1h1v-1h-1z" />
<glyph unicode="&#xa1;" horiz-adv-x="770" d="M203 -289.5q0 7.5 2 14.5q51 237 79.5 458t41.5 419q4 32 24 46.5t47 14.5q18 0 34 -5t28 -13.5t19.5 -20t8.5 -24.5q-8 -106 -17.5 -219t-23.5 -230t-34 -236.5t-49 -236.5q-8 -29 -31 -42.5t-50 -13.5q-31 0 -55 17t-24 59v12.5zM231 1000q0 43 12 81.5t34.5 67.5 t55 45.5t73.5 16.5q36 0 67.5 -17t55 -46t37 -66.5t13.5 -77.5q0 -103 -83 -166l-39 -5q-35 -21 -70 -21q-30 0 -58.5 14t-50 39.5t-34.5 59.5t-13 75zM319 1017q0 -38 22.5 -65.5t64.5 -27.5q38 0 64 26.5t26 66.5q0 42 -27 66.5t-63 24.5q-19 0 -35 -7.5t-27.5 -20 t-18 -29t-6.5 -34.5z" />
<glyph unicode="&#xa2;" horiz-adv-x="946" d="M77 374q0 96 22.5 176t60 144t86.5 112.5t103 81.5t109 51.5t104 23.5l34 92q8 23 25.5 34.5t34.5 11.5q24 0 44.5 -20t20.5 -54q0 -15 -5 -29t-12 -33q-1 -2 -3.5 -9.5l-3.5 -10.5q57 -24 81 -47.5t24 -56.5q0 -26 -15 -47t-38 -21q-11 0 -27 5.5t-31 12.5h1 q-9 3 -18.5 6.5t-21.5 7.5q-23 -75 -48 -158t-49.5 -168t-48 -168.5t-43.5 -158.5q98 2 180 33t157 81q11 7 23.5 11.5t21.5 4.5q22 0 33.5 -17.5t11.5 -44.5q0 -36 -21.5 -66.5t-57 -55t-82.5 -43t-97.5 -31t-101 -18.5t-94.5 -6h-14q-7 -22 -9.5 -34t-4.5 -21 q-4 -16 -8 -31t-11.5 -27t-19.5 -19t-32 -7q-27 0 -50.5 12.5t-23.5 39.5q0 23 7.5 52.5t18.5 60.5q-107 45 -159.5 138t-52.5 210zM233 370q0 -49 27.5 -95.5t70.5 -82.5q19 72 41 151.5t45 159.5t45.5 156.5t43.5 143.5q-65 -23 -115.5 -66t-85.5 -100t-53.5 -125.5 t-18.5 -141.5z" />
<glyph unicode="&#xa3;" horiz-adv-x="1392" d="M94 200q0 33 13 75.5t44 82t81.5 69.5t124.5 36q26 -1 61 -10.5t70 -24.5q-8 29 -17.5 64t-20 71t-21 71l-19.5 65h-44q-42 0 -88 1.5t-85 9t-64.5 23.5t-25.5 45q0 15 5.5 30t16 26.5t25 19t33.5 7.5q26 0 54.5 -2.5t57.5 -4.5q15 -2 38.5 -4t38.5 -4q-11 45 -16 85.5 t-5 72.5q0 107 25 185.5t72.5 130t115 76.5t152.5 25q91 0 157 -29t108.5 -74t63 -98t20.5 -101q0 -57 -22 -81t-54 -24q-14 0 -28 5t-25 14t-18 22t-7 30q0 2 0.5 7t1.5 10t1.5 10t0.5 11q0 22 -12 48.5t-36.5 49t-61 37.5t-84.5 15q-65 0 -107.5 -16.5t-67.5 -50t-35 -84 t-10 -118.5q0 -36 4.5 -75.5t16.5 -86.5h61q44 0 88.5 2.5t87.5 5.5q41 3 79.5 5t76.5 2q41 0 63 -25.5t22 -55.5q0 -19 -13 -35t-43 -20h1q-87 -8 -183.5 -14t-202.5 -8q3 -12 8.5 -32.5t8.5 -32.5q24 -86 44.5 -167t25.5 -155q14 -14 32.5 -29t32.5 -27h-1q43 -38 85 -73 t83 -62t81.5 -43.5t79.5 -16.5q31 0 55 9t40 24t24.5 34.5t8.5 41.5q0 21 -9.5 38.5t-20.5 35.5q-10 15 -17.5 29.5t-7.5 29.5t6.5 29t17 24.5t25 17t29.5 6.5q33 0 57.5 -24.5t40 -59t23 -71t7.5 -60.5q0 -121 -66.5 -187.5t-212.5 -66.5q-64 0 -120.5 19.5t-107 50.5 t-96 70.5t-87.5 80.5q-19 -45 -48.5 -82.5t-69.5 -64.5t-91.5 -41.5t-113.5 -14.5q-30 0 -67 12.5t-69 43.5t-53.5 83t-21.5 132zM222 200q0 -41 8.5 -66t22.5 -39t31 -18.5t35 -4.5q48 0 83 13.5t58 36.5t35 53.5t15 63.5q-38 30 -75 49t-75 19q-24 0 -48.5 -3.5 t-44.5 -14.5t-32.5 -32t-12.5 -57z" />
<glyph unicode="&#xa4;" horiz-adv-x="1214" d="M41 1219q0 23 14 37.5t39 14.5q34 0 66.5 -27t79.5 -74q8 -8 21 -20.5t21 -20.5q18 27 33 44.5t31 27.5t34.5 13.5t43.5 3.5q9 0 17.5 -0.5t15.5 -0.5q8 -1 14 -1q12 0 35 5q24 5 57 10.5t63 5.5q70 0 129.5 -26t108.5 -69q18 28 42 59.5t48.5 58.5t49 44.5t44.5 17.5 q22 0 36 -14.5t14 -43.5q0 -37 -27 -82v1q-10 -14 -21.5 -30.5t-24.5 -34.5q-16 -23 -35 -50.5t-33 -48.5q33 -69 49.5 -141.5t16.5 -139.5q0 -78 -24.5 -167t-75.5 -172q21 -14 46 -35.5t50.5 -46t49.5 -50t42.5 -46.5t29.5 -35t11 -16q0 -12 -7.5 -24.5t-19.5 -22.5 t-27.5 -16t-31.5 -6q-20 0 -47 17t-58 44t-62 61.5t-58 70.5q-58 -48 -127 -75t-151 -27q-68 0 -126.5 22t-106.5 64q-14 -20 -31 -46.5t-28 -46.5q-25 -41 -45 -69.5t-37 -28.5q-13 0 -26.5 6.5t-25 18.5t-18.5 27.5t-7 33.5q0 14 11.5 39t30 55t43 62t50.5 61 q-30 65 -45.5 137t-15.5 146q0 65 11.5 145t31.5 163q-25 20 -57.5 50.5t-61.5 64t-49 66t-20 57.5zM339 645q0 -66 10.5 -124.5t35.5 -102t66 -68.5t102 -25q72 0 130 35.5t98.5 92t62 126.5t21.5 140q0 63 -9.5 128.5t-35.5 119t-72.5 87.5t-121.5 34q-67 0 -114.5 -20.5 t-79 -55t-50.5 -79.5t-28.5 -94.5t-12 -99.5t-2.5 -94z" />
<glyph unicode="&#xa5;" horiz-adv-x="1089" d="M31 1317q0 19 7.5 36t19 30t26 20.5t28.5 7.5q17 0 32 -11.5t26 -37.5v1q31 -91 69.5 -177.5t82 -164t91.5 -144t97 -116.5q21 42 57.5 107.5t80.5 139t92.5 147t93 133t81.5 96.5t60 37q16 0 31.5 -5t28 -14t20.5 -22t8 -28q0 -11 -5 -21t-13 -23q-22 -31 -44.5 -63.5 t-45.5 -65.5q-74 -104 -149.5 -217.5t-135.5 -224.5h116q40 0 74 -1t59 -8.5t39 -24t14 -47.5q0 -24 -12 -39t-33.5 -23t-50.5 -10.5t-63 -2.5h-29t-30 1q-17 1 -33 1h-33q-13 0 -31 -0.5t-31 -1.5q1 -19 2.5 -41.5t3 -45.5t3 -44.5t3.5 -39.5h109q50 0 96.5 -3t82.5 -12.5 t57.5 -29t21.5 -52.5q0 -29 -20 -51.5t-62 -22.5q-26 0 -53 1.5t-59 3.5q-35 2 -79 3.5t-82 1.5q2 -17 5.5 -39.5t5.5 -38.5q5 -41 9.5 -78t4.5 -68q0 -35 -25.5 -55t-56.5 -20q-30 0 -48.5 19.5t-28.5 52t-14.5 75t-7.5 89.5l-4 62q-35 -2 -75.5 -4t-74.5 -4 q-48 -2 -96.5 -4t-91.5 -4q-31 2 -49.5 21t-18.5 48q0 36 24.5 56t65 30t92.5 12.5t108 4.5q23 2 52 2.5t52 2.5l-7 87q-2 17 -4 40t-2 40q-14 -2 -36 -3t-37 -3q-62 -5 -124 -11t-113 -14h-7q-29 0 -43.5 24.5t-14.5 54.5t15.5 47t41.5 26t61 12t74 5l64 5 q-112 134 -189.5 278t-119.5 291q-5 8 -5.5 14.5t-0.5 14.5z" />
<glyph unicode="&#xa6;" horiz-adv-x="566" d="M199 819q0 23 0.5 53.5t1.5 65.5q0 15 0.5 41.5t1.5 58.5t1.5 67.5t1 68t1 60t0.5 43.5q0 33 -0.5 66t-1 62.5t-1.5 53.5t-2 40v6q0 30 19.5 46t43.5 16q26 0 42 -14t24.5 -40.5t11 -65t2.5 -88.5v-18.5t-0.5 -24t-0.5 -24.5v-21q0 -14 -1 -50t-1.5 -77.5t-1 -79 t-0.5 -53.5v-27q0 -48 -1 -87.5t-8.5 -68t-24 -44t-46.5 -15.5q-23 0 -42 12.5t-19 37.5zM205 -431q0 23 0.5 53.5t1.5 65.5q0 15 0.5 44t1 65t1 75t1 75t0.5 65.5v45.5q0 33 -0.5 66t-1.5 62.5t-1.5 54t-1.5 40.5v6q0 30 20 45.5t45 15.5t40 -13.5t23.5 -39.5t11 -63 t2.5 -85v-43t-1 -47q-1 -28 -1 -57.5v-61.5l-1 -255q0 -37 -2 -67t-10 -51.5t-23.5 -33t-41.5 -11.5q-24 0 -43.5 12.5t-19.5 36.5z" />
<glyph unicode="&#xa7;" d="M77 244q0 15 6.5 27t17.5 20.5t25 13t29 4.5q25 0 46.5 -14t29.5 -43q11 -41 32 -71t49 -50.5t60 -33.5t65.5 -20t65.5 -9.5t59 -2.5q65 0 111.5 15t76.5 39t44 54.5t14 62.5q0 38 -15 64.5t-41.5 45.5t-61.5 33t-74 28q-8 3 -18 6t-18 5q-22 0 -61 9.5t-84.5 28.5 t-92.5 46.5t-85.5 63t-62.5 79t-24 94.5q0 29 8.5 60t27.5 62t47.5 59.5t69.5 52.5q-32 19 -60 43t-48.5 54t-32.5 66t-12 80q0 41 20 88.5t62.5 88.5t110 68.5t163.5 27.5q73 0 132 -20.5t103.5 -53.5t73.5 -75t41 -85l-1 2q2 -8 3 -16.5t1 -15.5q0 -35 -22 -55.5 t-49 -20.5q-23 0 -39.5 18.5t-35.5 44.5q-15 21 -33 43.5t-42.5 41t-58 30.5t-78.5 12q-59 0 -94.5 -13t-55 -33t-26 -44.5t-6.5 -48.5q0 -38 10 -65t33 -46.5t60.5 -34t92.5 -29.5l-1 1q8 -2 16 -5.5t16 -5.5q36 -10 79.5 -22.5t87.5 -30.5t86 -42t74.5 -55.5t52 -72.5 t19.5 -93q0 -33 -12 -65t-33 -62t-49 -57t-60 -50q32 -21 60 -46t49 -55.5t33 -66t12 -76.5q0 -79 -35 -137.5t-90.5 -97t-125.5 -57.5t-140 -19q-75 0 -151.5 12t-143.5 46t-119.5 96t-77.5 162q-4 5 -4.5 9t-0.5 9zM331 748q0 -42 12.5 -71.5t39.5 -51t70.5 -37 t105.5 -28.5q66 0 113 13t77.5 34.5t44.5 49.5t14 57q0 39 -26 69t-64.5 50t-82 30t-78.5 10q-56 0 -98 -10t-70.5 -27.5t-43 -40t-14.5 -47.5z" />
<glyph unicode="&#xa8;" horiz-adv-x="942" d="M127 1662q0 20 7 39t21 34t36 24t52 9q21 0 40.5 -9t34.5 -24t24 -34t9 -39q0 -28 -9 -49t-24 -35t-34.5 -21t-40.5 -7q-60 0 -88 27.5t-28 84.5zM613 1685q0 20 8.5 39.5t23.5 35t35 25t43 9.5q28 0 49.5 -9.5t35.5 -25.5t21.5 -35.5t7.5 -38.5q0 -109 -114 -109 q-46 0 -78 27t-32 82z" />
<glyph unicode="&#xa9;" horiz-adv-x="1617" d="M59 728q0 102 27 197.5t77 178.5t119.5 151.5t155 117t183.5 75.5t204 27q99 0 191.5 -27t174 -76t149 -118t115.5 -153.5t75 -182t27 -202.5q0 -100 -27 -193.5t-75.5 -175.5t-117 -149.5t-152 -116t-178.5 -75.5t-198 -27q-102 0 -197.5 27t-179 76t-152 117 t-118 151.5t-76.5 179t-27 198.5zM186 728q0 -88 22.5 -169.5t63 -153t97.5 -130t126 -100.5t147.5 -65t162.5 -23q131 0 245 50.5t198 136.5t132 200t48 242q0 85 -22 165t-61.5 150.5t-95.5 128.5t-124 100t-146.5 65.5t-163.5 23.5q-87 0 -167 -23t-150 -65t-127.5 -99.5 t-98.5 -126.5t-63.5 -147t-22.5 -160zM402 716q0 90 28.5 176t81.5 153.5t128 110t167 44.5q29 1 72.5 -4.5t84.5 -21t71.5 -42.5t33.5 -70q0 -4 -0.5 -6.5t-2.5 -6.5l-3 -10q-5 -20 -15.5 -29.5t-28.5 -9.5q-8 0 -20 5t-27 13q-2 1 -3.5 1.5t-3.5 1.5q-26 13 -60.5 26 t-79.5 13q-43 0 -94.5 -17.5t-96.5 -58.5t-75 -108t-30 -167q0 -63 18 -121t53 -103t87 -72t121 -27q48 0 85 10t66 26.5t51.5 39t41.5 48.5q5 9 19 9q13 0 26 -6.5t24 -17t18 -24.5t7 -29q0 -8 -0.5 -13t-2.5 -11l1 1q-24 -42 -60.5 -74t-80 -54.5t-92.5 -34t-99 -11.5 q-96 0 -172 41t-129 107.5t-81 151t-28 171.5z" />
<glyph unicode="&#xaa;" horiz-adv-x="1099" d="M162 1487q0 28 33 46.5t81 29.5t101 15.5t93 4.5q79 0 157 -27t140 -77t100 -121.5t38 -160.5q0 -60 10.5 -106t25.5 -80.5t32 -59.5t31 -42q9 -11 16.5 -21.5t7.5 -15.5q0 -12 -4 -25t-11.5 -23.5t-17.5 -17.5t-21 -7q-19 0 -41 15.5t-43 41t-37.5 59t-23.5 69.5l-6 1 q-13 -54 -53 -102.5t-91 -84.5t-104 -57.5t-93 -21.5q-62 0 -108.5 16.5t-77.5 45t-46.5 66.5t-15.5 82t14.5 90.5t40.5 90.5t63 83.5t83 69t98.5 46.5t110.5 17q11 0 38.5 -1.5t56.5 -8.5q-29 51 -65.5 80t-73.5 43.5t-70 18t-55 3.5q-53 0 -103 -11.5t-108 -32.5 q-3 -1 -8.5 -2t-11.5 -1.5t-11 -0.5h-6q-30 1 -47.5 24t-17.5 50zM181 514q0 22 19.5 40t54.5 18q158 -3 315 -7t316 -7q49 -1 69.5 -23t20.5 -51q0 -22 -10.5 -39t-27.5 -17l-635 10q-65 0 -93.5 23.5t-28.5 52.5zM373 943q0 -33 23 -57.5t68 -24.5t94 25t90 64t67.5 87.5 t26.5 95.5q0 24 -9.5 40t-24.5 25t-34 12.5t-38 3.5q-44 0 -90.5 -21.5t-84.5 -58t-63 -86t-25 -105.5z" />
<glyph unicode="&#xab;" horiz-adv-x="1677" d="M150 515q0 33 35 76.5t91 91t127 94.5t142 88.5t136.5 73t110.5 46.5q15 6 35 6q18 0 32 -7.5t24.5 -19t16 -26t5.5 -29.5q0 -20 -12.5 -38t-35.5 -27h1q-33 -12 -74 -31.5t-84.5 -44t-87 -52t-83 -55t-71.5 -53t-52 -46.5q37 -43 86 -90t102 -91.5t105.5 -82t96.5 -60.5 q36 -18 54.5 -45.5t18.5 -54.5q0 -16 -5.5 -31t-16 -26.5t-25 -18.5t-32.5 -7q-32 0 -72 17t-83.5 45t-89.5 64t-90.5 75t-84.5 77t-73 69q-6 6 -14 13t-14 12q-20 0 -41.5 6.5t-38.5 18.5t-28 28t-11 35zM780 515q0 33 35 76.5t91 90.5t126.5 94.5t141.5 89t135.5 73 t109.5 46.5q18 6 33 6q18 0 32.5 -7.5t25 -19t16 -26t5.5 -29.5q0 -20 -11 -38t-34 -27h1q-34 -12 -75 -31.5t-85 -44t-88 -52t-83 -54.5t-71 -52.5t-53 -46.5q37 -43 86 -90.5t102.5 -92t107 -82t98.5 -60.5q35 -18 52 -45t17 -55q0 -32 -20 -57.5t-55 -25.5 q-31 0 -68.5 15.5t-79 41.5t-85.5 60.5t-87 71t-83.5 73.5t-74.5 69q-11 11 -23.5 22t-21.5 19q-20 0 -40.5 6.5t-37.5 18.5t-28 28t-11 35z" />
<glyph unicode="&#xac;" horiz-adv-x="1371" d="M194 788q0 8 2 15t4 15v-1q7 17 17.5 32.5t33.5 19.5q112 7 207 10t187 3q110 0 220.5 -6.5t237.5 -18.5h-1q19 -3 33 -27t23 -62.5t14 -87.5t8 -103t3.5 -109.5t0.5 -105.5q0 -34 -3.5 -58.5t-12.5 -41t-25.5 -24.5t-42.5 -8q-30 0 -53 16.5t-23 46.5v58t-0.5 78t-1 87 t-2 86.5t-3.5 75.5t-5 54h-638q-42 0 -75 2t-56.5 8t-36 17t-12.5 29z" />
<glyph unicode="&#xad;" horiz-adv-x="909" d="M108 725q0 13 5 26.5t14.5 24t23.5 17t31 5.5q133 -3 264.5 -7t264.5 -7q25 0 42.5 -7.5t28 -19.5t15.5 -28t5 -32q0 -27 -10.5 -47t-26.5 -22l-534 9q-64 2 -93.5 29t-29.5 59z" />
<glyph unicode="&#xae;" horiz-adv-x="1000" d="M73 1152q0 87 34 164.5t92.5 135.5t138 91.5t171.5 33.5q85 0 161 -34t133 -92.5t90 -137t33 -168.5q0 -86 -33.5 -162.5t-91 -133.5t-135.5 -90t-167 -33q-88 0 -165.5 33t-135.5 91t-91.5 135.5t-33.5 166.5zM180 1152q0 -69 25 -129t68.5 -105t101 -71t123.5 -26 q67 0 125 21.5t101 63t68 101.5t25 138q0 65 -24.5 124t-67.5 103.5t-100 71t-122 26.5q-68 0 -126.5 -26.5t-102.5 -70.5t-69 -101.5t-25 -119.5zM322 1239q-5 41 9 74.5t49 55.5q30 16 61 24t58 8q38 0 66 -13.5t46 -34t27 -43.5t9 -42q0 -17 -7.5 -38t-21.5 -41 q16 -7 35 -20.5t35 -36t26.5 -55t10.5 -77.5q0 -11 -0.5 -21.5t-6 -19t-17 -14t-32.5 -5.5q-20 0 -32 8t-12 29q0 28 -1.5 51t-9 39.5t-23 25.5t-44.5 9q-18 0 -36 -4t-33.5 -9t-27.5 -11.5t-19 -10.5q0 -12 1 -29t2 -35t1.5 -34.5t0.5 -26.5q0 -23 -15 -37.5t-37 -14.5 q-14 0 -28 10t-14 28q-1 30 -3.5 74t-6.5 100q-2 29 -5 64t-5 73zM421 1281l4 -114q25 10 48 21.5t41 24.5t28.5 26.5t10.5 27.5q0 21 -16 31.5t-36 10.5q-46 0 -80 -28z" />
<glyph unicode="&#xaf;" horiz-adv-x="909" d="M108 1490q0 13 5 26t14.5 23.5t23.5 17t31 5.5q133 -3 264.5 -7t264.5 -7q25 0 42.5 -7.5t28 -19.5t15.5 -28t5 -32q0 -27 -10.5 -46.5t-26.5 -21.5l-534 8q-32 1 -55 9t-38 20t-22.5 27.5t-7.5 32.5z" />
<glyph unicode="&#xb0;" horiz-adv-x="1054" d="M177 1192q0 34 9.5 76.5t25.5 86t37.5 84.5t46 73t51 51.5t51.5 19.5q14 0 27 -3.5t31 -23.5q4 1 11 2.5t11 2.5q11 2 23 3.5t23 2.5q84 -5 156 -37.5t124.5 -83t82.5 -115t30 -132.5q0 -66 -29 -132t-83 -119t-131 -86.5t-173 -33.5q-71 0 -130.5 30.5t-102.5 81.5 t-67 116.5t-24 135.5zM317 1219q0 -57 13 -106t40 -84.5t67 -55.5t94 -20q49 0 94 20.5t79 54.5t54 78.5t20 92.5q0 53 -25.5 99t-66.5 79.5t-91.5 53t-100.5 20.5q-15 0 -31 -4t-34 -11q-23 -3 -43.5 -27.5t-35.5 -58t-24 -69.5t-9 -62z" />
<glyph unicode="&#xb1;" horiz-adv-x="1050" d="M53 364q0 26 18 47.5t50 21.5q189 -4 377 -8.5t378 -8.5q27 0 46.5 -11t32.5 -27.5t19 -36.5t6 -40q0 -24 -7.5 -42t-20.5 -18l-761 11q-35 0 -61 10t-43 26t-25.5 36t-8.5 40zM66 1020q0 17 4 34t12.5 30.5t20 22t26.5 8.5q45 0 93.5 -2t93.5 -3h131q-2 32 -3.5 79 t-1.5 88q0 61 4.5 103.5t14.5 69t25.5 38.5t37.5 12q18 0 35 -8.5t30 -23.5t21 -35.5t8 -43.5q-1 -28 -2 -62.5t-2 -71t-1.5 -72.5t-0.5 -67q75 -6 150.5 -1t153.5 5q32 0 49 -20t17 -47q0 -35 -17.5 -55.5t-46 -32t-65.5 -15t-75 -3.5q-25 0 -45.5 0.5t-40.5 1.5t-41 1 t-46 -1q-1 -4 -1.5 -25t-0.5 -51.5t0.5 -66.5t0.5 -70.5t0.5 -63t0.5 -44.5q0 -42 -24 -60t-53 -18q-23 0 -44.5 10.5t-23.5 27.5q-4 44 -7 93.5t-5 98t-3 93.5t-1 81q-29 -2 -89 -5.5t-141 -3.5q-29 0 -56 1t-47.5 7.5t-32.5 22t-12 44.5z" />
<glyph unicode="&#xb2;" horiz-adv-x="1058" d="M217 1264q0 59 26 105.5t66 79t88 49.5t93 17q56 0 108 -17t92.5 -49.5t66.5 -78t31 -102.5q5 -60 -2 -112t-28 -98t-56.5 -88.5t-87.5 -84.5q-8 -9 -19.5 -19.5t-24 -21t-25 -20.5t-21.5 -19t-18.5 -17.5t-16.5 -14.5t-11 -10t-2 -4q29 0 62.5 3.5t66.5 9.5t64.5 12.5 t56.5 12.5q10 2 18 5.5t15.5 6t14 3t13.5 -3.5q12 -6 22 -17t16.5 -24.5t9.5 -28.5t1 -28q-4 -31 -33 -42q-12 -5 -35 -10.5t-58 -12.5q-40 -8 -88.5 -16.5t-98.5 -16t-99 -12t-89 -4.5q-13 0 -24.5 7t-19 20t-10.5 32t2 42q9 26 24 53t34 53.5t40.5 52t43.5 48.5 q48 54 97 99t85 81q17 22 28 59t9 70q-3 31 -14.5 57t-30.5 44.5t-46.5 28t-61.5 8.5q-50 0 -76 -20t-34 -58q11 -36 -17 -59q-29 -21 -63 -21q-18 0 -33.5 2t-27 9.5t-17.5 21.5t-6 38z" />
<glyph unicode="&#xb3;" horiz-adv-x="1063" d="M197 1314q0 45 28.5 82t71.5 64t94.5 42t96.5 15q40 0 87.5 -11.5t87.5 -36t67 -62t27 -88.5q0 -57 -10 -108t-40 -81q30 -4 58.5 -20.5t51 -42t36.5 -58.5t14 -70q0 -61 -31.5 -114t-78 -96.5t-101 -78t-100.5 -58.5q-75 -41 -123 -69q-45 -17 -67.5 1t-32.5 54 q-7 28 10 59q20 32 65 39q18 8 48.5 22t65.5 33t70.5 41.5t64.5 48.5t47 53.5t18 56.5q0 63 -58 63q-56 0 -122 -29q-30 -26 -69 -44q-40 -18 -73 -8q-38 7 -53 44q-13 37 6 64q18 24 49 43.5t67 37.5q25 16 54 37.5t52 47t35 56t4 65.5q-3 18 -17 34.5t-32.5 28.5t-39 19.5 t-37.5 7.5q-21 0 -43.5 -5.5t-41 -16.5t-32.5 -28t-18 -40q-8 -35 -27.5 -53t-45.5 -18q-15 0 -30 5t-26.5 15t-19 24.5t-7.5 32.5z" />
<glyph unicode="&#xb4;" horiz-adv-x="573" d="M109 1458q0 12 6.5 25t21.5 24q41 31 74 74.5t59 84.5q28 43 55 75t53 32q15 0 30.5 -5.5t27.5 -15t19.5 -22.5t7.5 -28q0 -8 -1 -9l-3 -4q-18 -53 -49 -106.5t-67.5 -97.5t-75.5 -71.5t-74 -27.5t-59.5 21.5t-24.5 50.5z" />
<glyph unicode="&#xb5;" horiz-adv-x="1068" d="M106 -177q6 71 11.5 155t10 173.5t7.5 181t5.5 178t3.5 165t1 141.5q0 36 24 53t53 17q16 0 31 -5t26.5 -15.5t18 -27t5.5 -39.5q-3 -72 -7 -142.5t-4 -140.5q7 -89 31 -153.5t58 -106.5t75 -62.5t82 -20.5q85 0 139 31t84.5 83.5t42 121t11.5 143.5q0 50 -5.5 110 t-14.5 110q3 26 19.5 47.5t39.5 21.5q26 0 55.5 -22.5t45.5 -67.5q18 -51 25 -113.5t7 -129.5q0 -122 -9 -243.5t-9 -240.5q0 -36 -23 -53.5t-52 -17.5q-15 0 -30.5 5t-27.5 15t-19 25.5t-6 36.5v72q-38 -29 -80.5 -44.5t-83 -23.5t-75 -9.5t-56.5 -1.5q-21 0 -56 9.5 t-71 26.5t-67 41.5t-46 54.5q-1 -13 -2 -33t-2 -41.5t-1.5 -42.5t-1.5 -36q-3 -68 -8.5 -135t-10.5 -131q-2 -25 -21 -43.5t-46 -18.5q-14 0 -29.5 9.5t-27.5 27.5t-18 44.5t-2 61.5z" />
<glyph unicode="&#xb6;" horiz-adv-x="1136" d="M106 1049q0 72 20 133.5t54 111t78 87t93 63t99 38.5t95 13q56 -7 106.5 -11t100.5 -7t101.5 -5t109.5 -3q23 -7 32.5 -29t9.5 -51q0 -23 -4 -53.5t-10 -59.5q-13 -133 -23 -285t-17 -307.5t-12 -306.5t-8.5 -281.5t-5.5 -233t-3 -159.5q-1 -68 -3 -103q-1 -38 -24.5 -55 t-53.5 -17q-15 0 -30.5 5t-28 15t-20.5 24.5t-8 32.5q2 42 6 125t9 192.5t10.5 239t11 264.5t11 268.5t10.5 251.5t8.5 213.5t5.5 154.5l-181 5l-76 -1739q0 -14 -8 -24t-20 -16t-26.5 -9t-29.5 -3q-29 0 -52.5 11t-23.5 34l32 1020q-99 57 -163.5 105.5t-102.5 99.5 t-53.5 111t-15.5 140z" />
<glyph unicode="&#xb7;" horiz-adv-x="674" d="M110 714q0 40 15.5 87t45.5 87.5t74.5 67.5t102.5 27q55 0 92 -22t59 -57t31.5 -79t9.5 -89q0 -67 -29 -113.5t-71 -76t-90 -43t-86 -13.5q-28 0 -55.5 13t-49.5 40.5t-35.5 69.5t-13.5 101zM222 731q0 -15 6 -33.5t18 -34t28.5 -26t37.5 -10.5q27 0 48.5 10.5t35.5 28 t21.5 40t7.5 46.5q0 20 -6.5 38.5t-19 32.5t-30.5 22.5t-40 8.5q-25 0 -45 -11.5t-33.5 -29.5t-21 -40t-7.5 -42z" />
<glyph unicode="&#xb8;" horiz-adv-x="740" d="M107 -335q0 26 16.5 44.5t36.5 18.5q5 0 10 -2l10 -4q29 -16 52 -28t42.5 -20.5t37 -12.5t36.5 -4q24 0 47 3t41 15t29.5 35t11.5 63q0 18 -12 31.5t-28.5 22t-34 13t-29.5 4.5q-21 0 -33.5 -1t-20 -3t-11 -4t-6.5 -4q-2 -1 -3.5 -1.5t-8.5 -0.5q-10 0 -21 2t-20.5 6 t-15.5 10t-6 15q0 4 2 7q14 45 30 92.5t31 93.5l139 -17l-26 -99q43 0 84.5 -11.5t74 -33.5t52 -54t19.5 -73q0 -54 -23 -97t-62 -73t-90.5 -46t-107.5 -16q-52 0 -96.5 11t-77 29.5t-51 41.5t-18.5 47z" />
<glyph unicode="&#xb9;" horiz-adv-x="1058" d="M209 662q0 17 3.5 33.5t11.5 30.5t22 23.5t35 12.5l181 27q1 49 -3.5 116t-8.5 137.5t-5 137t7 113.5q-6 -2 -17.5 -4t-24.5 -4t-25.5 -4t-20.5 -5q-58 -18 -84 4q-25 23 -25 59q0 26 16 58q18 32 72 32q20 0 46 9t55 27q27 16 48 30t50 24q36 19 71 -10q37 -27 19 -90 q-17 -63 -22.5 -144t-5.5 -164q0 -81 5 -160t5 -146q56 9 132 -8q75 -16 95 -54q7 -41 -41 -76q-49 -33 -105 -13q-80 18 -194 -5q-57 -11 -109.5 -23.5t-102.5 -25.5q-17 -5 -30 -1t-23 13t-16.5 22.5t-10.5 27.5z" />
<glyph unicode="&#xba;" horiz-adv-x="1054" d="M156 514q0 22 20 40t55 18q158 -3 314.5 -7t314.5 -7q25 0 42.5 -6.5t28 -16.5t15.5 -23.5t5 -27.5q0 -22 -10.5 -39t-27.5 -17l-634 10q-65 0 -94 23.5t-29 52.5zM177 1192q0 34 9.5 76.5t25.5 86t37.5 84.5t46 73t51 51.5t51.5 19.5q14 0 27 -3.5t31 -23.5q17 4 33.5 7 t33.5 4q84 -5 156.5 -37.5t125 -83t82.5 -115t30 -132.5q0 -66 -29 -132t-83 -119t-131 -86.5t-173 -33.5q-71 0 -130.5 30.5t-102.5 81.5t-67 116.5t-24 135.5zM317 1219q0 -57 13 -106t40 -84.5t67 -55.5t94 -20q49 0 94 20.5t79 54.5t54 78.5t20 92.5q0 53 -25.5 99 t-66.5 79.5t-91.5 53t-100.5 20.5q-15 0 -31 -4t-34 -11q-23 -3 -43.5 -27.5t-35.5 -58t-24 -69.5t-9 -62z" />
<glyph unicode="&#xbb;" horiz-adv-x="1677" d="M150 909q0 15 5.5 29.5t15.5 26t24.5 19t32.5 7.5q16 0 34 -6q45 -15 109.5 -46.5t135.5 -73t141.5 -89t126.5 -94.5t91 -90.5t35 -76.5q0 -19 -11 -35t-28 -28t-38 -18.5t-40 -6.5q-10 -8 -22 -19t-23 -22q-34 -32 -74.5 -69t-83.5 -73.5t-87 -71t-85.5 -60.5 t-79.5 -41.5t-68 -15.5q-35 0 -55.5 25.5t-20.5 57.5q0 28 17.5 55t52.5 45q45 23 98 60.5t106.5 82t103 92t86.5 90.5q-31 31 -87 72t-121 81.5t-130.5 75t-116.5 52.5h1q-23 9 -34 27t-11 38zM776 909q0 15 5.5 29.5t16 26t24.5 19t32 7.5q20 0 35 -6q45 -15 110.5 -46.5 t136.5 -73t142 -88.5t127 -94.5t91 -91t35 -76.5q0 -19 -11 -35t-28.5 -28t-38.5 -18.5t-42 -6.5q-6 -5 -13.5 -12t-13.5 -13q-33 -31 -73.5 -69t-84.5 -77t-90 -75t-90 -64t-83.5 -45t-71.5 -17q-18 0 -32.5 7t-25 18.5t-16.5 26.5t-6 31q0 27 19 54.5t55 45.5 q44 23 96.5 60.5t105.5 82t102 91.5t86 90q-20 21 -52 46.5t-71.5 53t-83.5 55t-87.5 52t-84.5 44t-74 31.5h1q-23 9 -35 27t-12 38z" />
<glyph unicode="&#xbc;" horiz-adv-x="1858" d="M89 1250q-6 33 16 61.5t68 36.5q45 0 108 24q32 13 56 23t41 19q30 11 50 6t33 -19q26 -28 10 -77q-18 -50 -18 -131v-170q0 -81 9 -159q9 -77 9 -117h71q44 0 71 -8q54 -23 37 -73q-16 -48 -79 -57q-23 0 -39.5 -0.5t-25.5 -2.5q-17 -4 -45 -4q-19 -5 -39 -9t-43 -9 q-23 -4 -56.5 -9.5t-78.5 -13.5q-36 -11 -53.5 6.5t-26.5 49.5q0 25 12 48q7 13 22 20t38 14q8 2 15.5 4.5t13.5 5.5q8 2 21.5 7.5t39.5 13.5q0 33 -9 107q-5 36 -7.5 72t-2.5 72q-9 84 -9 152.5t9 108.5q-22 -12 -49 -22.5t-60 -18.5q-43 -11 -71 4q-29 18 -38 45zM457 25 q0 16 8 34l676 1360q10 35 42 40q30 4 51 -4q13 -5 23 -14.5t15.5 -21.5t5 -26.5t-9.5 -27.5q-63 -135 -143.5 -292t-171.5 -338q-45 -86 -90.5 -175.5t-90.5 -185.5q-45 -95 -87 -185t-83 -177q-14 -28 -28 -43t-27 -20q-26 -9 -54 1q-9 9 -17.5 20.5t-13.5 25t-5 29.5z M1082 293q0 39 11 89t29 104.5t41.5 110t47.5 106t47 92.5t41 69q17 27 45 27q22 0 40.5 -20t18.5 -47q0 -11 -4 -21.5t-9 -20.5q-27 -46 -53.5 -101t-50 -113t-43 -116t-33.5 -109q18 0 51.5 1t70 3.5t71 6.5t54.5 9q0 39 2.5 87t6.5 99.5t8.5 103.5t9.5 100q3 22 19.5 32 t36.5 10q13 0 25.5 -4.5t22.5 -13t15.5 -21.5t4.5 -30q-5 -40 -9.5 -85t-7.5 -90.5t-5 -88.5t-2 -79q23 3 51 8.5t54 5.5q24 0 36 -18t12 -40q0 -29 -17.5 -45t-42.5 -23.5t-51 -8.5t-42 -1q-3 -49 -5 -106.5t-5 -107.5q0 -27 -20 -43t-44 -16q-21 0 -42 15t-21 48 q0 55 3.5 101.5t6.5 91.5q-29 -7 -61 -12t-64.5 -8.5t-63.5 -5t-58 -1.5q-37 0 -61.5 4.5t-39.5 13.5t-21 23.5t-6 34.5z" />
<glyph unicode="&#xbd;" horiz-adv-x="1858" d="M89 1250q-6 33 16 61.5t68 36.5q45 0 108 24q32 13 56 23t41 19q30 11 50 6t33 -19q26 -28 10 -77q-18 -50 -18 -131v-170q0 -81 9 -159q9 -77 9 -117h71q44 0 71 -8q54 -23 37 -73q-16 -48 -79 -57q-23 0 -39.5 -0.5t-25.5 -2.5q-17 -4 -45 -4q-19 -5 -39 -9t-43 -9 q-23 -4 -56.5 -9.5t-78.5 -13.5q-36 -11 -53.5 6.5t-26.5 49.5q0 25 12 48q7 13 22 20t38 14q8 2 15.5 4.5t13.5 5.5q8 2 21.5 7.5t39.5 13.5q0 33 -9 107q-5 36 -7.5 72t-2.5 72q-9 84 -9 152.5t9 108.5q-22 -12 -49 -22.5t-60 -18.5q-43 -11 -71 4q-29 18 -38 45zM457 25 q0 16 8 34l676 1360q10 35 42 40q30 4 51 -4q13 -5 23 -14.5t15.5 -21.5t5 -26.5t-9.5 -27.5q-63 -135 -143.5 -292t-171.5 -338q-45 -86 -90.5 -175.5t-90.5 -185.5q-45 -95 -87 -185t-83 -177q-14 -28 -28 -43t-27 -20q-26 -9 -54 1q-9 9 -17.5 20.5t-13.5 25t-5 29.5z M1114 575q4 50 27.5 93t65.5 70q84 53 176 70q51 3 98 -6.5t92 -32.5t76.5 -56.5t50.5 -68.5q20 -54 17 -104.5t-15 -87.5q-13 -42 -54.5 -89.5t-119.5 -100.5l-127 -107l271 28q80 9 94 -41q8 -24 -5 -52t-45 -41q-26 -7 -71 -14.5t-109 -15.5q-63 -9 -133.5 -15.5 t-155.5 -14.5q-17 2 -29 15t-19 30q-5 12 -3.5 29t8.5 37q18 45 55.5 94t87.5 90q54 46 103.5 81.5t85.5 69.5q33 38 35.5 78.5t-18.5 75.5q-15 25 -35 39.5t-42.5 21t-46.5 6.5t-46 -3q-35 -8 -68 -29q-30 -18 -22 -40q2 -18 -5.5 -32t-20.5 -24t-29.5 -15t-33.5 -6 q-36 0 -64 10q-26 11 -26 58z" />
<glyph unicode="&#xbe;" horiz-adv-x="1858" d="M120 1193q-16 25 8 71q14 27 39.5 55.5t63.5 47.5q39 20 81 33.5t88 17.5q45 0 85.5 -11t75.5 -28q36 -17 61 -51.5t39 -77.5q14 -42 9.5 -77.5t-18.5 -68.5q-16 -33 -28.5 -49t-14.5 -19q7 0 64 -28q60 -25 87 -65q45 -70 17 -134q-14 -32 -30.5 -67.5t-47.5 -66.5 q-29 -27 -60 -52t-64 -49q-33 -23 -58.5 -40t-45.5 -28q-8 -8 -19.5 -20.5t-26.5 -26.5q-15 -7 -38.5 -14t-41.5 -7q-27 -4 -47.5 -0.5t-34 11.5t-20 19.5t-6.5 23.5q0 22 18 45t64 31q18 15 40.5 33t48.5 36t53 36t54 34q56 39 91.5 80t35.5 86q0 32 -54 35q-27 2 -58.5 -2 t-67.5 -15q-18 -9 -32.5 -21t-29.5 -17q-14 -4 -25 -9t-22 -7q-25 -5 -51.5 6t-37.5 39q-8 17 -6.5 29.5t15.5 23.5q18 15 50.5 26.5t76.5 36.5q27 19 51.5 43.5t47.5 55.5q45 62 35 114q-9 19 -23 32.5t-30.5 21.5t-35 11.5t-35.5 3.5q-47 8 -83 -7t-44 -29v-33 q-5 -21 -17 -33t-28.5 -17.5t-35.5 -5.5t-37 3q-30 9 -45 35zM545 25q0 16 8 34l676 1360q10 35 42 40q17 2 29 1t22 -5q13 -5 23 -14.5t15.5 -21.5t5 -26.5t-9.5 -27.5q-63 -135 -143.5 -292t-171.5 -338q-45 -86 -90.5 -175.5t-90.5 -185.5q-45 -95 -87 -185t-83 -177 q-28 -54 -55 -63q-26 -9 -54 1q-9 9 -17 20.5t-13.5 25t-5.5 29.5zM1082 293q0 39 11 89t29 104.5t41.5 110t47.5 106t47 92.5t41 69q17 27 45 27q22 0 40.5 -20t18.5 -47q0 -11 -4 -21.5t-9 -20.5q-27 -46 -53.5 -101t-50 -113t-43 -116t-33.5 -109q18 0 51.5 1t70 3.5 t71 6.5t54.5 9q0 39 2.5 87t6.5 99.5t8.5 103.5t9.5 100q3 22 19.5 32t36.5 10q13 0 25.5 -4.5t22.5 -13t15.5 -21.5t4.5 -30q-5 -40 -9.5 -85t-7.5 -90.5t-5 -88.5t-2 -79q23 3 51 8.5t54 5.5q24 0 36 -18t12 -40q0 -29 -17.5 -45t-42.5 -23.5t-51 -8.5t-42 -1 q-3 -49 -5 -106.5t-5 -107.5q0 -27 -20 -43t-44 -16q-21 0 -42 15t-21 48q0 55 3.5 101.5t6.5 91.5q-29 -7 -61 -12t-64.5 -8.5t-63.5 -5t-58 -1.5q-37 0 -61.5 4.5t-39.5 13.5t-21 23.5t-6 34.5z" />
<glyph unicode="&#xbf;" horiz-adv-x="1073" d="M121 -21q0 65 19.5 117.5t50.5 96t69.5 80.5t76.5 70q32 28 61.5 55.5t52.5 56.5t36.5 61.5t13.5 70.5q0 25 -2 52.5t-2 52.5q0 32 26 49t56 17q27 0 42 -16t23 -41t10 -56.5t2 -62.5q0 -45 -21 -92.5t-54 -92.5t-74 -86t-80 -75q-21 -18 -45.5 -42.5t-46.5 -54.5 t-36.5 -66.5t-14.5 -79.5q0 -65 26 -110t65 -73t83.5 -40t81.5 -12q51 0 89.5 16.5t64 45t38.5 65t13 77.5q0 20 -2 34t-4 31q-3 20 3 37.5t17.5 30t27 20t32.5 7.5q41 0 67 -37.5t26 -109.5q0 -57 -21 -121t-67.5 -118t-121.5 -90t-183 -36q-81 0 -153 26.5t-126.5 74.5 t-86.5 116t-32 152zM362 1016q0 55 16 96.5t41.5 69t58.5 41t68 13.5q34 0 66 -12.5t57 -39t40 -67t15 -96.5q0 -42 -27 -83.5t-72 -73.5l-32 -4q-20 -10 -37 -14t-37 -4q-28 0 -56 13t-50.5 36.5t-36.5 55t-14 69.5zM452 1039q0 -19 7.5 -36.5t19.5 -31t26.5 -21.5t29.5 -8 q19 0 37 7.5t31.5 20.5t21.5 30.5t8 38.5q0 51 -29 73.5t-69 22.5q-43 0 -63 -27t-20 -69z" />
<glyph unicode="&#xc0;" horiz-adv-x="1165" d="M15 92q0 46 8 105t20.5 125.5t29 137.5t33.5 140.5t33 135.5t28 121q13 59 31 121.5t41 122t51 112.5t61.5 93t72.5 63t84 23q38 0 70.5 -11.5t64 -37t63 -65.5t67.5 -97q19 -31 44.5 -84.5t55.5 -121t61.5 -145t61.5 -156t57 -154t47.5 -139.5t32.5 -112.5t12 -73.5 q0 -22 -8.5 -40.5t-21.5 -32t-29.5 -21t-32.5 -7.5q-32 0 -43 38q-15 51 -30 98.5t-28 89.5q-32 103 -58 180.5t-44 109.5l-605 -85q-20 -118 -36.5 -232.5t-36.5 -223.5v1q-6 -29 -26 -43.5t-45 -14.5q-33 0 -59.5 21t-26.5 59zM275 685l368 58q38 5 77 10t62 7 q-15 41 -31.5 90.5t-35.5 98.5t-39.5 95t-44 81.5t-48.5 57t-53 21.5q-37 0 -67 -28t-55 -73.5t-45.5 -102.5t-36.5 -114.5t-28.5 -110.5t-22.5 -90zM387 1770.5v5.5q0 15 7.5 28t19.5 22.5t27 15t31 5.5q24 0 47 -29t51 -71q29 -43 63.5 -88t79.5 -78v1q14 -11 20 -24.5 t6 -25.5q0 -14 -7 -27.5t-18.5 -24t-27 -16.5t-32.5 -6q-36 0 -75 28t-75.5 72.5t-67 98.5t-48.5 107v1q-1 2 -1 5.5z" />
<glyph unicode="&#xc1;" horiz-adv-x="1165" d="M15 92q0 46 8 105t20.5 125.5t29 137.5t33.5 140.5t33 135.5t28 121q13 59 31 121.5t41 122t51 112.5t61.5 93t72.5 63t84 23q38 0 70.5 -11.5t64 -37t63 -65.5t67.5 -97q19 -31 44.5 -84.5t55.5 -121t61.5 -145t61.5 -156t57 -154t47.5 -139.5t32.5 -112.5t12 -73.5 q0 -22 -8.5 -40.5t-21.5 -32t-29.5 -21t-32.5 -7.5q-32 0 -43 38q-15 51 -30 98.5t-28 89.5q-32 103 -58 180.5t-44 109.5l-605 -85q-20 -118 -36.5 -232.5t-36.5 -223.5v1q-6 -29 -26 -43.5t-45 -14.5q-33 0 -59.5 21t-26.5 59zM275 685l368 58q38 5 77 10t62 7 q-15 41 -31.5 90.5t-35.5 98.5t-39.5 95t-44 81.5t-48.5 57t-53 21.5q-37 0 -67 -28t-55 -73.5t-45.5 -102.5t-36.5 -114.5t-28.5 -110.5t-22.5 -90zM420 1530q0 27 30 49q42 32 74 75t58 83q14 21 28 40.5t27.5 34t26.5 23.5t26 9q16 0 31 -5t27 -14.5t19.5 -22.5t7.5 -28 v-5t-1 -5v-2q-18 -53 -49 -107t-68.5 -98.5t-77 -72.5t-73.5 -28q-35 0 -60.5 22.5t-25.5 51.5z" />
<glyph unicode="&#xc2;" horiz-adv-x="1165" d="M15 92q0 46 8 105t20.5 125.5t29 137.5t33.5 140.5t33 135.5t28 121q13 59 31 121.5t41 122t51 112.5t61.5 93t72.5 63t84 23q38 0 70.5 -11.5t64 -37t63 -65.5t67.5 -97q19 -31 44.5 -84.5t55.5 -121t61.5 -145t61.5 -156t57 -154t47.5 -139.5t32.5 -112.5t12 -73.5 q0 -22 -8.5 -40.5t-21.5 -32t-29.5 -21t-32.5 -7.5q-32 0 -43 38q-15 51 -30 98.5t-28 89.5q-32 103 -58 180.5t-44 109.5l-605 -85q-20 -118 -36.5 -232.5t-36.5 -223.5v1q-6 -29 -26 -43.5t-45 -14.5q-33 0 -59.5 21t-26.5 59zM275 685l368 58q38 5 77 10t62 7 q-15 41 -31.5 90.5t-35.5 98.5t-39.5 95t-44 81.5t-48.5 57t-53 21.5q-37 0 -67 -28t-55 -73.5t-45.5 -102.5t-36.5 -114.5t-28.5 -110.5t-22.5 -90zM297 1496q0 8 14.5 37.5t39 69t55.5 83.5t64 80.5t64.5 60.5t57.5 24q27 0 55 -24.5t56.5 -63t56.5 -86t54 -92.5 q15 -27 23.5 -44t13.5 -27.5t6.5 -16.5t1.5 -10q0 -20 -7.5 -37.5t-19.5 -30t-26.5 -19.5t-28.5 -7q-15 0 -33 17.5t-36.5 43.5t-36.5 57.5t-33 58.5t-27.5 48.5t-25.5 35.5q-34 -46 -65 -86l-52 -70t-38 -54q-11 -17 -24 -24t-27 -7q-15 0 -30 6.5t-26.5 17.5t-18.5 26.5 t-7 32.5z" />
<glyph unicode="&#xc3;" horiz-adv-x="1165" d="M15 92q0 46 8 105t20.5 125.5t29 137.5t33.5 140.5t33 135.5t28 121q13 59 31 121.5t41 122t51 112.5t61.5 93t72.5 63t84 23q38 0 70.5 -11.5t64 -37t63 -65.5t67.5 -97q19 -31 44.5 -84.5t55.5 -121t61.5 -145t61.5 -156t57 -154t47.5 -139.5t32.5 -112.5t12 -73.5 q0 -22 -8.5 -40.5t-21.5 -32t-29.5 -21t-32.5 -7.5q-32 0 -43 38q-15 51 -30 98.5t-28 89.5q-32 103 -58 180.5t-44 109.5l-605 -85q-20 -118 -36.5 -232.5t-36.5 -223.5v1q-6 -29 -26 -43.5t-45 -14.5q-33 0 -59.5 21t-26.5 59zM158 1561q0 66 23.5 114.5t60.5 81t81 48.5 t85 16q30 0 56 -9t49.5 -24t45 -33t41.5 -36q38 -33 74 -59t80 -26q21 0 36 7t25.5 19t18 27.5t14.5 31.5q5 13 11.5 26t15.5 23t21 16.5t28 6.5q14 0 28 -5t25.5 -14.5t18.5 -23t7 -31.5q0 -2 -0.5 -3t-0.5 -2q-5 -53 -27 -96.5t-55.5 -75t-75.5 -49t-87 -17.5 q-33 0 -62 8.5t-55 23t-49.5 32t-45.5 35.5q-39 32 -77 56t-80 24q-24 0 -39.5 -8t-25 -21t-15 -30t-9.5 -34q-4 -14 -8 -26.5t-11 -22.5t-17.5 -16t-26.5 -6q-29 0 -53.5 18t-24.5 54zM275 685l368 58q38 5 77 10t62 7q-15 41 -31.5 90.5t-35.5 98.5t-39.5 95t-44 81.5 t-48.5 57t-53 21.5q-37 0 -67 -28t-55 -73.5t-45.5 -102.5t-36.5 -114.5t-28.5 -110.5t-22.5 -90z" />
<glyph unicode="&#xc4;" horiz-adv-x="1165" d="M15 92q0 46 8 105t20.5 125.5t29 137.5t33.5 140.5t33 135.5t28 121q13 59 31 121.5t41 122t51 112.5t61.5 93t72.5 63t84 23q38 0 70.5 -11.5t64 -37t63 -65.5t67.5 -97q19 -31 44.5 -84.5t55.5 -121t61.5 -145t61.5 -156t57 -154t47.5 -139.5t32.5 -112.5t12 -73.5 q0 -22 -8.5 -40.5t-21.5 -32t-29.5 -21t-32.5 -7.5q-32 0 -43 38q-15 51 -30 98.5t-28 89.5q-32 103 -58 180.5t-44 109.5l-605 -85q-20 -118 -36.5 -232.5t-36.5 -223.5v1q-6 -29 -26 -43.5t-45 -14.5q-33 0 -59.5 21t-26.5 59zM215 1691q0 50 31 80t82 30q20 0 39.5 -9.5 t35 -25t25 -35t9.5 -40.5q0 -49 -31 -78t-78 -29q-113 0 -113 107zM275 685l368 58q38 5 77 10t62 7q-15 41 -31.5 90.5t-35.5 98.5t-39.5 95t-44 81.5t-48.5 57t-53 21.5q-37 0 -67 -28t-55 -73.5t-45.5 -102.5t-36.5 -114.5t-28.5 -110.5t-22.5 -90zM724 1691q0 22 9.5 42 t25 35t35 24t40.5 9q24 0 44.5 -8.5t36 -23t24 -34.5t8.5 -44q0 -54 -32.5 -80.5t-80.5 -26.5q-53 0 -81.5 31.5t-28.5 75.5z" />
<glyph unicode="&#xc5;" horiz-adv-x="1165" d="M15 92q0 46 8 105t20.5 125.5t29 137.5t33.5 140.5t33 135.5t28 121q13 59 31 121.5t41 122t51 112.5t61.5 93t72.5 63t84 23q38 0 70.5 -11.5t64 -37t63 -65.5t67.5 -97q19 -31 44.5 -84.5t55.5 -121t61.5 -145t61.5 -156t57 -154t47.5 -139.5t32.5 -112.5t12 -73.5 q0 -22 -8.5 -40.5t-21.5 -32t-29.5 -21t-32.5 -7.5q-32 0 -43 38q-15 51 -30 98.5t-28 89.5q-32 103 -58 180.5t-44 109.5l-605 -85q-20 -118 -36.5 -232.5t-36.5 -223.5v1q-6 -29 -26 -43.5t-45 -14.5q-33 0 -59.5 21t-26.5 59zM275 685l368 58q38 5 77 10t62 7 q-15 41 -31.5 90.5t-35.5 98.5t-39.5 95t-44 81.5t-48.5 57t-53 21.5q-37 0 -67 -28t-55 -73.5t-45.5 -102.5t-36.5 -114.5t-28.5 -110.5t-22.5 -90zM313 1603q0 55 21.5 97.5t55 71.5t73.5 44.5t76 15.5q53 0 92 -19t64 -47.5t37 -62t12 -63.5q0 -46 -15.5 -87t-44.5 -73.5 t-70.5 -53t-94.5 -25.5q-3 0 -7 -0.5t-6 -0.5q-3 -1 -5.5 -1h-4.5q-45 0 -79 18t-57.5 47.5t-35 66t-11.5 72.5zM428 1603q0 -12 7 -28t19.5 -30t30.5 -23.5t40 -9.5q18 0 35 9t30 23.5t21 31.5t8 33q0 21 -7 40.5t-20 34.5t-30 24t-37 9q-45 0 -69.5 -33t-27.5 -81z" />
<glyph unicode="&#xc6;" horiz-adv-x="1785" d="M31 71q0 13 6 28q37 87 77 182.5t80.5 192t81 192t77.5 184.5q44 102 103.5 197t125.5 167.5t133.5 116.5t129.5 44q29 0 58 -10t55 -32q17 7 51 13t79 11t98 8t109 3q63 0 131.5 -3.5t125.5 -14t94 -31.5t37 -55q0 -44 -21 -66.5t-56 -22.5q-17 0 -44 3t-58 8 q-44 7 -94.5 12.5t-106.5 5.5q-55 0 -117.5 -2.5t-116.5 -6.5q-8 -29 -14.5 -68t-12 -81.5t-9 -84.5t-6 -75.5t-3.5 -55.5t-1 -24q19 -1 58.5 -3t90 -4.5t108 -5t112 -4.5t102 -3t78.5 -1q42 0 63.5 -25.5t21.5 -55.5q0 -23 -15 -44t-46 -26q-63 -11 -135.5 -14t-148.5 -3 t-152 -0.5t-146 -4.5q0 -36 0.5 -91t2 -116.5t5 -123.5t9.5 -113q3 0 39.5 7.5t91 19.5t119 26t123 28t104 25t61.5 16q14 5 27 7.5t27 2.5q32 0 48.5 -19.5t16.5 -45.5q0 -31 -27 -54t-70 -40t-97 -31t-109 -27q-44 -10 -87.5 -23.5t-88.5 -25.5t-91 -20.5t-94 -8.5 q-61 0 -94 16t-48.5 60.5t-18.5 124t-3 205.5q0 40 0.5 89t2.5 91l-468 -65l-186 -462q-5 -29 -30.5 -42t-56.5 -13q-17 0 -33.5 4t-29 12t-20.5 19.5t-8 26.5zM462 686l405 64q2 45 7 97.5t10 100.5q6 50 10.5 95t4.5 83q0 28 -6.5 44.5t-16 25t-19.5 11t-16 2.5 q-30 0 -68 -29.5t-77.5 -76.5t-78 -105.5t-70.5 -116.5t-54.5 -110t-30.5 -85z" />
<glyph unicode="&#xc7;" horiz-adv-x="1190" d="M75 709q0 144 39 266t110.5 211t172 139t223.5 50q43 0 90.5 -5.5t92.5 -17.5t86 -30t72 -43t49 -57.5t18 -72.5q0 -19 -8 -33t-21 -23.5t-28 -14t-30 -4.5q-23 0 -37.5 10.5t-14.5 32.5q-100 100 -269 100q-74 0 -143 -29.5t-122 -92t-85 -158.5t-32 -228 q0 -140 35.5 -240t93.5 -164t132 -94t150 -30q36 0 83 8t94 28t90.5 53t73.5 83q11 22 26 30.5t30 8.5q26 0 47.5 -23t21.5 -59q0 -14 -3.5 -27.5t-14.5 -27.5l-1 -1q-27 -55 -75.5 -96.5t-106 -70t-120 -45t-117.5 -20.5l-25 -91q43 0 84.5 -11.5t74 -33t52 -54t19.5 -74.5 q0 -55 -23 -98t-62 -73t-90 -45.5t-108 -15.5q-53 0 -97 11t-76.5 29.5t-50.5 41.5t-18 47q0 26 16 45t37 19q10 0 14 -2.5t6 -3.5q25 -21 47.5 -34.5t42.5 -21t38.5 -10t37.5 -2.5q24 0 47.5 3.5t42 16t30 35.5t11.5 62q0 19 -12 32.5t-28.5 22.5t-34.5 13.5t-29 4.5 q-26 0 -38.5 -2t-19.5 -5t-11.5 -5t-14.5 -2t-20.5 2t-19.5 5.5t-15 9.5t-6 14v4q13 42 27 87t28 87q-105 18 -189.5 71.5t-144.5 140.5t-92 204.5t-32 262.5z" />
<glyph unicode="&#xc8;" horiz-adv-x="1122" d="M132 468q-2 100 1.5 203.5t11 205.5t18 200.5t22.5 189.5q3 26 26.5 44.5t59.5 30.5t80 18.5t88 10t84 4t69 0.5q98 0 193.5 -11t196.5 -29h-1q27 -8 38.5 -29t11.5 -47q0 -31 -17 -56.5t-47 -25.5q-2 0 -5.5 0.5t-6.5 2.5q-87 15 -171.5 24.5t-177.5 9.5 q-64 0 -130 -4.5t-136 -18.5l-10 -11q-11 -90 -18.5 -189.5t-13.5 -195.5q105 -4 185.5 -6.5t150.5 -3.5t137 -1t146 1q30 1 45.5 -19.5t15.5 -46.5q0 -29 -18.5 -46t-47.5 -26t-66.5 -12t-74.5 -3q-134 0 -252.5 5.5t-227.5 16.5q-7 -116 -4.5 -238t8.5 -237q67 9 153 23.5 t176 30t178 30.5t159 26q43 0 62 -25t19 -55q0 -25 -12.5 -46t-38.5 -26q-68 -12 -154 -29.5t-174 -36t-170 -37t-142 -33.5q-12 -5 -23.5 -6.5t-24.5 -1.5q-28 0 -56 9.5t-51 25t-37.5 35.5t-14.5 41q0 8 2 12q-7 82 -10.5 171t-3.5 181zM364 1769v5q0 15 7.5 28t19.5 22.5 t27 14.5t30 5q26 0 50.5 -30.5t52.5 -73.5q28 -41 61 -85.5t77 -76.5q16 -11 22 -23.5t6 -24.5q0 -14 -7 -27.5t-18.5 -24t-26.5 -16.5t-32 -6q-36 0 -75.5 28t-76.5 72.5t-67.5 98.5t-48.5 107v2q-1 2 -1 5z" />
<glyph unicode="&#xc9;" horiz-adv-x="1122" d="M132 468q-2 100 1.5 203.5t11 205.5t18 200.5t22.5 189.5q3 26 26.5 44.5t59.5 30.5t80 18.5t88 10t84 4t69 0.5q98 0 193.5 -11t196.5 -29q26 -8 37.5 -29t11.5 -47q0 -31 -17 -56.5t-47 -25.5q-2 0 -5.5 0.5t-6.5 2.5q-87 15 -171.5 24.5t-177.5 9.5q-64 0 -130 -4.5 t-136 -18.5l-10 -11q-11 -90 -18.5 -189.5t-13.5 -195.5q105 -4 185.5 -6.5t150.5 -3.5t137 -1t146 1q30 1 45.5 -19.5t15.5 -46.5q0 -29 -18.5 -46t-47.5 -26t-66.5 -12t-74.5 -3q-134 0 -252.5 5.5t-227.5 16.5q-7 -116 -4.5 -238t8.5 -237q67 9 153 23.5t176 30t178 30.5 t159 26q43 0 62 -25t19 -55q0 -25 -12.5 -46t-38.5 -26q-68 -12 -154 -29.5t-174 -36t-170 -37t-142 -33.5q-12 -5 -23.5 -6.5t-24.5 -1.5q-28 0 -56 9.5t-51 25t-37.5 35.5t-14.5 41q0 8 2 12q-7 82 -10.5 171t-3.5 181zM402 1530q0 11 5.5 24.5t19.5 22.5q45 34 78 78 t59 83q28 42 54.5 74t52.5 32q15 0 29.5 -5t26.5 -14.5t19.5 -22.5t7.5 -28v-5t-1 -5v-2q-18 -53 -49 -107t-67.5 -98.5t-76 -72.5t-74.5 -28q-17 0 -32 6t-26.5 16.5t-18.5 24t-7 27.5z" />
<glyph unicode="&#xca;" horiz-adv-x="1122" d="M132 468q-2 100 1.5 203.5t11 205.5t18 200.5t22.5 189.5q3 26 26.5 44.5t59.5 30.5t80 18.5t88 10t84 4t69 0.5q98 0 193.5 -11t196.5 -29q26 -8 37.5 -29t11.5 -47q0 -31 -17 -56.5t-47 -25.5q-2 0 -5.5 0.5t-6.5 2.5q-87 15 -171.5 24.5t-177.5 9.5q-64 0 -130 -4.5 t-136 -18.5l-10 -11q-11 -90 -18.5 -189.5t-13.5 -195.5q105 -4 185.5 -6.5t150.5 -3.5t137 -1t146 1q30 1 45.5 -19.5t15.5 -46.5q0 -29 -18.5 -46t-47.5 -26t-66.5 -12t-74.5 -3q-134 0 -252.5 5.5t-227.5 16.5q-7 -116 -4.5 -238t8.5 -237q67 9 153 23.5t176 30t178 30.5 t159 26q43 0 62 -25t19 -55q0 -25 -12.5 -46t-38.5 -26q-68 -12 -154 -29.5t-174 -36t-170 -37t-142 -33.5q-12 -5 -23.5 -6.5t-24.5 -1.5q-28 0 -56 9.5t-51 25t-37.5 35.5t-14.5 41q0 8 2 12q-7 82 -10.5 171t-3.5 181zM274 1520q0 11 16 40t42.5 65.5t59.5 76.5t67.5 73 t66.5 54.5t56 21.5q23 0 49 -20t53 -51.5t53.5 -70.5t50.5 -76q14 -23 28 -44t28 -41v1q7 -12 9 -21.5t2 -18.5q0 -17 -7.5 -31t-19.5 -25t-27 -17t-30 -6q-16 0 -35 16t-39 40.5t-39.5 53t-34.5 52.5q-13 20 -24.5 35.5t-22.5 28.5q-37 -39 -69 -74q-14 -15 -27.5 -30.5 t-26 -30t-22.5 -26.5t-15 -20l1 2q-12 -15 -27.5 -22.5t-29.5 -7.5q-16 0 -31.5 5.5t-27.5 15.5t-19.5 23.5t-7.5 28.5z" />
<glyph unicode="&#xcb;" horiz-adv-x="1122" d="M132 468q-2 100 1.5 203.5t11 205.5t18 200.5t22.5 189.5q3 26 26.5 44.5t59.5 30.5t80 18.5t88 10t84 4t69 0.5q98 0 193.5 -11t196.5 -29q26 -8 37.5 -29t11.5 -47q0 -31 -17 -56.5t-47 -25.5q-2 0 -5.5 0.5t-6.5 2.5q-87 15 -171.5 24.5t-177.5 9.5q-64 0 -130 -4.5 t-136 -18.5l-10 -11q-11 -90 -18.5 -189.5t-13.5 -195.5q105 -4 185.5 -6.5t150.5 -3.5t137 -1t146 1q30 1 45.5 -19.5t15.5 -46.5q0 -29 -18.5 -46t-47.5 -26t-66.5 -12t-74.5 -3q-134 0 -252.5 5.5t-227.5 16.5q-7 -116 -4.5 -238t8.5 -237q67 9 153 23.5t176 30t178 30.5 t159 26q43 0 62 -25t19 -55q0 -25 -12.5 -46t-38.5 -26q-68 -12 -154 -29.5t-174 -36t-170 -37t-142 -33.5q-12 -5 -23.5 -6.5t-24.5 -1.5q-28 0 -56 9.5t-51 25t-37.5 35.5t-14.5 41q0 8 2 12q-7 82 -10.5 171t-3.5 181zM194 1691q0 50 30.5 80t80.5 30q21 0 40.5 -9.5 t35.5 -25t25.5 -35t9.5 -40.5q0 -49 -31.5 -78t-79.5 -29q-111 0 -111 107zM703 1691q0 22 9 42t23.5 35t33.5 24t39 9q51 0 84 -31t33 -79q0 -54 -33 -80.5t-84 -26.5q-24 0 -43.5 8.5t-33 23t-21 34t-7.5 41.5z" />
<glyph unicode="&#xcc;" horiz-adv-x="942" d="M84 1217q0 13 4 26t13 23t22.5 16.5t32.5 6.5q44 0 110.5 7.5t137 18.5t136 23t109.5 21q6 2 12.5 2h11.5q28 0 42 -17.5t14 -42.5q0 -28 -20.5 -56.5t-61.5 -41.5l1 1q-30 -6 -69 -12.5t-92 -12.5q0 -24 -1 -49t-1 -50q0 -105 6 -214.5t16.5 -219.5t25 -218t30.5 -209 q56 7 105 11t84 4q54 0 82.5 -22.5t28.5 -57.5q0 -25 -19.5 -47.5t-57.5 -22.5q-55 0 -130 -7.5t-153.5 -19t-153.5 -25t-131 -25.5q-7 -2 -12 -2h-9q-31 0 -47 19.5t-16 46.5q0 31 19.5 51t55.5 33.5t86.5 22.5t112.5 20q-13 84 -27 182.5t-25.5 205t-19 217t-7.5 217.5 q0 33 1 64.5t6 71.5q-53 -5 -99 -9t-81 -4q-36 0 -54 22.5t-18 51.5zM256 1764v8q0 15 7.5 27.5t19.5 22t27 14.5t31 5q23 0 47.5 -30t50.5 -71q13 -20 28.5 -42t33.5 -43.5t38 -41.5t42 -36q14 -11 22 -24.5t8 -25.5q0 -14 -7 -27t-19 -23.5t-27.5 -16.5t-32.5 -6 q-36 0 -75.5 28t-76.5 72t-67.5 98t-48.5 106q-1 2 -1 6z" />
<glyph unicode="&#xcd;" horiz-adv-x="942" d="M84 1217q0 13 4 26t13 23t22.5 16.5t32.5 6.5q44 0 110.5 7.5t137 18.5t136 23t109.5 21q6 2 12.5 2h11.5q28 0 42 -17.5t14 -42.5q0 -28 -20.5 -56.5t-61.5 -41.5l1 1q-30 -6 -69 -12.5t-92 -12.5q0 -24 -1 -49t-1 -50q0 -105 6 -214.5t16.5 -219.5t25 -218t30.5 -209 q56 7 105 11t84 4q54 0 82.5 -22.5t28.5 -57.5q0 -25 -19.5 -47.5t-57.5 -22.5q-55 0 -130 -7.5t-153.5 -19t-153.5 -25t-131 -25.5q-7 -2 -12 -2h-9q-31 0 -47 19.5t-16 46.5q0 31 19.5 51t55.5 33.5t86.5 22.5t112.5 20q-13 84 -27 182.5t-25.5 205t-19 217t-7.5 217.5 q0 33 1 64.5t6 71.5q-53 -5 -99 -9t-81 -4q-36 0 -54 22.5t-18 51.5zM304 1537q0 14 6 26t20 22q43 32 76 75.5t59 83.5q29 43 55.5 75t52.5 32q15 0 29.5 -5t26.5 -14.5t19.5 -22.5t7.5 -28v-8l-2 -4q-18 -53 -49 -107t-67.5 -97.5t-75.5 -71.5t-74 -28q-17 0 -32 6 t-26.5 15.5t-18.5 22.5t-7 28z" />
<glyph unicode="&#xce;" horiz-adv-x="942" d="M84 1217q0 13 4 26t13 23t22.5 16.5t32.5 6.5q44 0 110.5 7.5t137 18.5t136 23t109.5 21q6 2 12.5 2h11.5q28 0 42 -17.5t14 -42.5q0 -28 -20.5 -56.5t-61.5 -41.5l1 1q-30 -6 -69 -12.5t-92 -12.5q0 -24 -1 -49t-1 -50q0 -105 6 -214.5t16.5 -219.5t25 -218t30.5 -209 q56 7 105 11t84 4q54 0 82.5 -22.5t28.5 -57.5q0 -25 -19.5 -47.5t-57.5 -22.5q-55 0 -130 -7.5t-153.5 -19t-153.5 -25t-131 -25.5q-7 -2 -12 -2h-9q-31 0 -47 19.5t-16 46.5q0 31 19.5 51t55.5 33.5t86.5 22.5t112.5 20q-13 84 -27 182.5t-25.5 205t-19 217t-7.5 217.5 q0 33 1 64.5t6 71.5q-53 -5 -99 -9t-81 -4q-36 0 -54 22.5t-18 51.5zM123 1463q0 8 15 39.5t39.5 74t56 90.5t64.5 88t65.5 66t58.5 26q22 0 47 -22.5t50.5 -58t51 -80t49.5 -88.5q23 -43 36 -68.5t20 -40.5t8.5 -23t1.5 -14q0 -20 -7.5 -37.5t-19 -30t-26.5 -19.5t-30 -7 q-13 0 -29 17.5t-33 45t-34.5 60t-33.5 62.5q-16 32 -31 58t-31 43q-34 -52 -64 -98l-26 -40t-24.5 -38.5t-20.5 -34t-15 -25.5l1 2q-13 -16 -27 -22.5t-29 -6.5q-16 0 -31 6.5t-26.5 17.5t-18.5 26t-7 32z" />
<glyph unicode="&#xcf;" horiz-adv-x="942" d="M73 1691q0 50 31.5 80t83.5 30q20 0 39.5 -9.5t34.5 -25t24.5 -35t9.5 -40.5q0 -49 -30.5 -78t-77.5 -29q-115 0 -115 107zM84 1217q0 13 4 26t13 23t22.5 16.5t32.5 6.5q44 0 110.5 7.5t137 18.5t136 23t109.5 21q6 2 12.5 2h11.5q28 0 42 -17.5t14 -42.5 q0 -28 -20.5 -56.5t-61.5 -41.5l1 1q-29 -6 -68.5 -12.5t-92.5 -12.5q0 -24 -1 -49t-1 -50q0 -105 6 -214.5t16.5 -219.5t25 -218t30.5 -209q56 7 105 11t84 4q55 0 83 -22.5t28 -57.5q0 -25 -19.5 -47.5t-57.5 -22.5q-55 0 -130 -7.5t-153.5 -19t-153.5 -25t-131 -25.5 q-7 -2 -12 -2h-9q-31 0 -47 19.5t-16 46.5q0 31 19.5 51t55.5 33.5t86.5 22.5t112.5 20q-13 84 -27 182.5t-25.5 205t-19 217t-7.5 217.5q0 33 1 64.5t7 71.5q-54 -5 -100 -9t-81 -4q-36 0 -54 22.5t-18 51.5zM586 1691q0 22 9 42t23.5 35t33.5 24t40 9q50 0 82.5 -31 t32.5 -79q0 -54 -32.5 -80.5t-82.5 -26.5q-51 0 -78.5 31.5t-27.5 75.5z" />
<glyph unicode="&#xd0;" horiz-adv-x="1230" d="M59 784q0 16 5.5 32.5t16 29t26 20.5t34.5 7l96 -2q-2 45 -5.5 97.5t-6.5 94.5q-5 78 -8.5 146t-3.5 127q0 21 7.5 38.5t20.5 30t29 19t34 6.5q5 0 11.5 -1t11.5 -1q26 6 53.5 7t55.5 1q90 0 178.5 -17t168 -49t147 -79t117 -107t77.5 -132.5t28 -155.5 q0 -119 -30.5 -222t-85 -190.5t-129.5 -160.5t-164 -130.5t-188 -101t-201 -71.5q-2 -1 -4 -1t-4 -1h2q-10 -2 -15 -2q-15 0 -27 7.5t-20 19t-12.5 26t-4.5 28.5q-3 60 -6.5 131t-7 147.5t-6.5 157t-6 159.5q-14 0 -33.5 1t-33.5 1q-62 3 -89.5 28.5t-27.5 61.5zM374 1271 q5 -91 9.5 -197t8.5 -208q67 -2 141 -3.5t140 -3.5q45 -1 63 -27t18 -61q0 -17 -4 -32.5t-10 -27.5t-14 -19t-17 -7l-308 4q3 -59 5.5 -123t5.5 -127.5t5.5 -124t4.5 -111.5q120 45 224 112.5t181 153t121 187t44 214.5q0 60 -21.5 113t-59.5 98.5t-90 81.5t-112 61 t-125.5 38.5t-131.5 13.5q-16 0 -34 -0.5t-44 -4.5z" />
<glyph unicode="&#xd1;" horiz-adv-x="1303" d="M124 1272q0 16 8.5 28.5t22 21.5t30.5 13.5t35 4.5q34 0 57.5 -19t29.5 -53q102 -107 195 -214t179.5 -219t169.5 -230.5t166 -248.5q6 122 4.5 245t-9.5 246.5t-21 246.5t-29 246q-2 5 -2 10v10q0 33 23 49t52 16q28 0 51.5 -17t31.5 -52q26 -177 43 -376.5t17 -427.5 q0 -74 -2.5 -154t-14 -147t-35.5 -110t-66 -43q-14 0 -33.5 4.5t-30.5 22.5q-159 238 -324.5 468t-353.5 445q1 -20 3.5 -45.5t5 -53t5 -53.5t4.5 -46q12 -124 22.5 -248.5t10.5 -255.5q0 -73 -3.5 -147t-14.5 -152q-5 -38 -26 -55.5t-50 -17.5q-26 0 -47 17.5t-21 53.5 q0 66 4.5 131t4.5 132q0 120 -7 242.5t-19 244.5t-27.5 241t-32.5 232q-5 7 -5.5 9.5t-0.5 4.5zM207 1566q0 65 23.5 113.5t60.5 81t80.5 48.5t84.5 16q29 0 55.5 -9t50.5 -23.5t45.5 -32.5t41.5 -36q18 -16 36.5 -31.5t37.5 -27.5t39 -19.5t42 -7.5q21 0 35.5 7t24.5 19 t17.5 27.5t15.5 31.5q5 13 11.5 26.5t15 23.5t20.5 16.5t29 6.5q14 0 28 -5t25.5 -15t18.5 -23.5t7 -31.5l-1 -3q-1 -3 -1.5 -6t-0.5 -8q-8 -50 -30.5 -91.5t-55.5 -71.5t-73.5 -46.5t-83.5 -16.5q-33 0 -62 9t-55 23t-49.5 31.5t-45.5 35.5q-40 32 -77.5 56t-79.5 24 q-24 0 -39.5 -8t-25 -21t-15 -30t-10.5 -34q-4 -14 -8 -26.5t-11 -22.5t-17.5 -16t-26.5 -6q-29 0 -53 19t-24 54z" />
<glyph unicode="&#xd2;" horiz-adv-x="1158" d="M76 620q0 112 19.5 208t55 173.5t85 136t108.5 96.5q-3 14 -3.5 18.5t-0.5 9.5q0 27 19 46.5t50 32.5t70.5 19t79.5 6q103 0 197.5 -39t166.5 -115.5t115 -189.5t43 -260q0 -200 -40.5 -339.5t-112 -227t-169.5 -127t-213 -39.5t-203 42.5t-147 120t-89.5 186.5 t-30.5 242zM235 659q0 -127 21 -216t60.5 -144.5t96 -81t128.5 -25.5q95 0 164.5 37t115 106.5t67.5 169t22 223.5q0 112 -23 201t-66.5 151t-105 95.5t-137.5 33.5q-29 0 -58 -6.5t-53 -17.5q-2 -23 -15.5 -46t-35.5 -40q-88 -59 -134.5 -174.5t-46.5 -265.5zM374 1772 q0 15 7.5 27.5t20 22t28 14.5t31.5 5q25 0 49 -30.5t53 -72.5q28 -42 61.5 -85.5t76.5 -76.5q15 -10 22 -23.5t7 -25.5q0 -14 -7 -27t-19 -23.5t-27.5 -16.5t-32.5 -6q-36 0 -75 28t-76 72t-67.5 98t-48.5 106q-3 9 -3 14z" />
<glyph unicode="&#xd3;" horiz-adv-x="1158" d="M76 620q0 112 19.5 208t55 173.5t85 136t108.5 96.5q-3 14 -3.5 18.5t-0.5 9.5q0 27 19 46.5t50 32.5t70.5 19t79.5 6q103 0 197.5 -39t166.5 -115.5t115 -189.5t43 -260q0 -200 -40.5 -339.5t-112 -227t-169.5 -127t-213 -39.5t-203 42.5t-147 120t-89.5 186.5 t-30.5 242zM235 659q0 -127 21 -216t60.5 -144.5t96 -81t128.5 -25.5q95 0 164.5 37t115 106.5t67.5 169t22 223.5q0 112 -23 201t-66.5 151t-105 95.5t-137.5 33.5q-29 0 -58 -6.5t-53 -17.5q-2 -23 -15.5 -45.5t-34.5 -39.5q-89 -60 -135.5 -175.5t-46.5 -265.5zM404 1527 q0 12 6.5 25.5t20.5 23.5q43 32 76 75.5t59 83.5q28 42 55 74t53 32q16 0 31 -5t27 -14.5t19.5 -22t7.5 -27.5v-5t-2 -5l-2 -4q-18 -52 -48.5 -106t-67.5 -98t-76 -72t-74 -28q-17 0 -32.5 6t-27 16.5t-18.5 23.5t-7 27z" />
<glyph unicode="&#xd4;" horiz-adv-x="1158" d="M76 620q0 112 19.5 208t55 173.5t85 136t108.5 96.5q-3 14 -3.5 18.5t-0.5 9.5q0 27 19 46.5t50 32.5t70.5 19t79.5 6q103 0 197.5 -39t166.5 -115.5t115 -189.5t43 -260q0 -200 -40.5 -339.5t-112 -227t-169.5 -127t-213 -39.5t-203 42.5t-147 120t-89.5 186.5 t-30.5 242zM235 659q0 -127 21 -216t60.5 -144.5t96 -81t128.5 -25.5q95 0 164.5 37t115 106.5t67.5 169t22 223.5q0 112 -23 201t-66.5 151t-105 95.5t-137.5 33.5q-29 0 -58 -6.5t-53 -17.5q-2 -23 -15.5 -45.5t-34.5 -39.5q-89 -60 -135.5 -175.5t-46.5 -265.5zM332 1496 q0 9 15 39t39 70t55.5 84t64 81.5t64.5 61.5t58 24q25 0 51.5 -23t54 -59.5t54.5 -81.5t53 -89v1q18 -32 28 -52.5t15 -33t6.5 -19t1.5 -12.5q0 -20 -7.5 -36.5t-19.5 -29t-27 -19.5t-30 -7q-14 0 -32 18t-36.5 45t-36.5 58.5t-33 58.5q-13 23 -24 42.5t-25 36.5 q-34 -45 -65 -85l-52 -70t-38 -56l1 2q-12 -17 -26 -24.5t-28 -7.5q-15 0 -30 6.5t-26 17.5t-18 26.5t-7 32.5z" />
<glyph unicode="&#xd5;" horiz-adv-x="1158" d="M76 620q0 112 19.5 208t55 173.5t85 136t108.5 96.5q-3 14 -3.5 18.5t-0.5 9.5q0 27 19 46.5t50 32.5t70.5 19t79.5 6q103 0 197.5 -39t166.5 -115.5t115 -189.5t43 -260q0 -200 -40.5 -339.5t-112 -227t-169.5 -127t-213 -39.5t-203 42.5t-147 120t-89.5 186.5 t-30.5 242zM194 1555q0 66 23.5 115t60 81.5t80.5 48.5t85 16q29 0 55 -9t50 -23t45.5 -32.5t41.5 -36.5q37 -33 74.5 -59.5t81.5 -26.5q21 0 35.5 7t25 19t17.5 27.5t15 31.5l12 26t14.5 23.5t20 17t28.5 6.5q15 0 29 -5t25.5 -15t18.5 -23.5t7 -31.5q0 -2 -2 -5 q-2 -8 -2 -14q-8 -50 -30.5 -91.5t-55 -71t-73 -46t-83.5 -16.5q-33 0 -61.5 9t-55 23t-50 32t-45.5 36q-40 32 -77.5 56t-79.5 24q-24 0 -39 -8t-25 -21t-15.5 -30t-10.5 -34q-4 -14 -8 -26.5t-10.5 -23t-17 -16.5t-27.5 -6q-29 0 -53 18.5t-24 53.5zM235 659 q0 -127 21 -216t60.5 -144.5t96 -81t128.5 -25.5q95 0 164.5 37t115 106.5t67.5 169t22 223.5q0 112 -23 201t-66.5 151t-105 95.5t-137.5 33.5q-29 0 -58 -6.5t-53 -17.5q-2 -23 -15.5 -45.5t-34.5 -39.5q-89 -60 -135.5 -175.5t-46.5 -265.5z" />
<glyph unicode="&#xd6;" horiz-adv-x="1158" d="M76 620q0 112 19.5 208t55 173.5t85 136t108.5 96.5q-3 14 -3.5 18.5t-0.5 9.5q0 27 19 46.5t50 32.5t70.5 19t79.5 6q103 0 197.5 -39t166.5 -115.5t115 -189.5t43 -260q0 -200 -40.5 -339.5t-112 -227t-169.5 -127t-213 -39.5t-203 42.5t-147 120t-89.5 186.5 t-30.5 242zM220 1691q0 50 31 80t82 30q20 0 39.5 -9.5t35 -25t25 -35t9.5 -40.5q0 -49 -30.5 -78t-78.5 -29q-113 0 -113 107zM235 659q0 -127 21 -216t60.5 -144.5t96 -81t128.5 -25.5q95 0 164.5 37t115 106.5t67.5 169t22 223.5q0 112 -23 201t-66.5 151t-105 95.5 t-137.5 33.5q-29 0 -58 -6.5t-53 -17.5q-2 -23 -15.5 -45.5t-34.5 -39.5q-89 -60 -135.5 -175.5t-46.5 -265.5zM730 1691q0 22 9.5 42t24.5 35t34.5 24t40.5 9q24 0 45 -8.5t36 -23t24 -34.5t9 -44q0 -54 -33 -80.5t-81 -26.5q-26 0 -46 8.5t-34 23t-21.5 34t-7.5 41.5z" />
<glyph unicode="&#xd7;" horiz-adv-x="1050" d="M53 995q0 31 15.5 56.5t38.5 25.5q15 0 30 -12q96 -57 181.5 -123t167.5 -138q65 77 139.5 151.5t165.5 153.5q9 9 17 12.5t18 3.5q13 0 25.5 -7t22.5 -19t16 -27.5t6 -31.5q0 -34 -25 -57q-19 -20 -37 -38.5t-36 -37.5q-52 -51 -103 -104t-96 -102q7 -6 17.5 -16 t16.5 -16l334 -285q16 -12 22.5 -27t6.5 -33q0 -14 -6.5 -28.5t-16.5 -26.5t-23.5 -19.5t-26.5 -7.5q-12 0 -21 2t-17 9q-115 77 -208.5 158.5t-178.5 162.5q-57 -77 -117.5 -174t-118.5 -201q-11 -17 -28.5 -24.5t-35.5 -7.5q-16 0 -31 4.5t-27 12.5t-19.5 19.5t-7.5 25.5 t8 26q66 124 131.5 227t135.5 196q-67 63 -139.5 122.5t-160.5 118.5q-19 13 -27 33t-8 43z" />
<glyph unicode="&#xd8;" horiz-adv-x="1158" d="M76 620q0 112 19.5 208t55 173.5t85 136t108.5 96.5q-3 14 -3.5 18.5t-0.5 9.5q0 27 19 46.5t50 32.5t70.5 19t79.5 6q51 0 101 -10t97 -29l48 110q8 22 26.5 31.5t35.5 9.5q16 0 32.5 -7t29 -19t20.5 -28t8 -35q0 -20 -5 -37q-14 -29 -27 -58l-26 -58q82 -77 132 -195.5 t50 -278.5q0 -200 -40.5 -339.5t-112 -227t-169.5 -127t-213 -39.5q-88 0 -163 26q-11 -26 -22 -51.5t-22 -51.5q-30 -36 -70 -36q-33 0 -58.5 23t-25.5 57q0 8 2 14t4 11l51 119q-83 77 -124.5 199.5t-41.5 280.5zM235 659q0 -125 20 -212.5t58 -143.5l383 883 q-26 11 -56 17t-62 6q-29 0 -58 -6.5t-53 -17.5q-2 -23 -15.5 -45.5t-34.5 -39.5q-89 -60 -135.5 -175.5t-46.5 -265.5zM449 204q40 -12 92 -12q95 0 164.5 37t115 106.5t67.5 169t22 223.5q0 109 -21 195t-63 149q-88 -197 -180.5 -411.5t-196.5 -456.5z" />
<glyph unicode="&#xd9;" horiz-adv-x="1141" d="M105 982q0 88 9 172t25 160v1q5 23 25 35.5t43 12.5q15 0 30 -5.5t27 -17t19 -29t7 -41.5q0 -19 -2.5 -46.5t-6.5 -57.5q-6 -43 -10.5 -92.5t-4.5 -103.5q0 -81 7.5 -168t24.5 -170t44 -157.5t66.5 -130.5t92 -89t120.5 -33q48 0 86 27.5t66.5 76t48.5 113.5t32.5 140.5 t18 157.5t5.5 164q0 40 -2 90.5t-6 103t-9 103t-12 91.5q-2 5 -2 12q0 16 6.5 29.5t17.5 23t25 14.5t29 5q27 0 46.5 -18.5t32 -49.5t19.5 -71t10.5 -83t4.5 -85.5t1 -78.5q0 -242 -27.5 -419t-84.5 -292.5t-144 -171.5t-205 -56q-82 0 -148.5 38.5t-119 106t-91 158 t-64 194.5t-38 215.5t-12.5 221.5zM364 1755.5v6.5q0 15 7.5 27.5t19.5 22t27 15t31 5.5q25 0 49.5 -30t53.5 -73q27 -42 60.5 -86t76.5 -76q16 -11 22.5 -24t6.5 -25q0 -15 -7 -27.5t-18.5 -22.5t-27 -15.5t-32.5 -5.5q-36 0 -75.5 27.5t-76 71t-67.5 97t-49 105.5v1 q-1 2 -1 6.5z" />
<glyph unicode="&#xda;" horiz-adv-x="1141" d="M105 982q0 88 9 172t25 160v1q5 23 25 35.5t43 12.5q15 0 30 -5.5t27 -17t19 -29t7 -41.5q0 -19 -2.5 -46.5t-6.5 -57.5q-6 -43 -10.5 -92.5t-4.5 -103.5q0 -81 7.5 -168t24.5 -170t44 -157.5t66.5 -130.5t92 -89t120.5 -33q48 0 86 27.5t66.5 76t48.5 113.5t32.5 140.5 t18 157.5t5.5 164q0 40 -2 90.5t-6 103t-9 103t-12 91.5q-2 5 -2 12q0 16 6.5 29.5t17.5 23t25 14.5t29 5q27 0 46.5 -18.5t32 -49.5t19.5 -71t10.5 -83t4.5 -85.5t1 -78.5q0 -242 -27.5 -419t-84.5 -292.5t-144 -171.5t-205 -56q-82 0 -148.5 38.5t-119 106t-91 158 t-64 194.5t-38 215.5t-12.5 221.5zM420 1527q0 12 8 25.5t22 24.5q42 32 74.5 75t57.5 83q29 42 55.5 74t52.5 32q16 0 31 -5t27 -14.5t19.5 -22t7.5 -27.5v-8t-1 -6q-18 -52 -49 -106t-68.5 -98t-77 -72t-73.5 -28q-17 0 -32.5 6t-27.5 16.5t-19 23.5t-7 27z" />
<glyph unicode="&#xdb;" horiz-adv-x="1141" d="M105 982q0 88 9 172t25 160v1q5 23 25 35.5t43 12.5q15 0 30 -5.5t27 -17t19 -29t7 -41.5q0 -19 -2.5 -46.5t-6.5 -57.5q-6 -43 -10.5 -92.5t-4.5 -103.5q0 -81 7.5 -168t24.5 -170t44 -157.5t66.5 -130.5t92 -89t120.5 -33q48 0 86 27.5t66.5 76t48.5 113.5t32.5 140.5 t18 157.5t5.5 164q0 40 -2 90.5t-6 103t-9 103t-12 91.5q-2 5 -2 12q0 16 6.5 29.5t17.5 23t25 14.5t29 5q27 0 46.5 -18.5t32 -49.5t19.5 -71t10.5 -83t4.5 -85.5t1 -78.5q0 -242 -27.5 -419t-84.5 -292.5t-144 -171.5t-205 -56q-82 0 -148.5 38.5t-119 106t-91 158 t-64 194.5t-38 215.5t-12.5 221.5zM313 1511q0 8 15 36.5t39 66t55.5 79.5t64 77t64.5 58t58 23q30 0 64 -31t68 -76.5t65.5 -98.5t57.5 -96q5 -13 8.5 -24.5t3.5 -24.5q0 -20 -7.5 -37.5t-19 -30t-26.5 -19.5t-30 -7q-14 0 -30.5 16t-34 40t-35 53.5t-32.5 56.5 q-17 28 -29 49.5t-31 41.5q-35 -45 -66 -85q-13 -17 -26.5 -35t-25 -34t-21 -29.5t-15.5 -22.5q-20 -29 -51 -29q-16 0 -31 6.5t-26.5 17.5t-18.5 26.5t-7 32.5z" />
<glyph unicode="&#xdc;" horiz-adv-x="1141" d="M105 982q0 88 9 172t25 160v1q5 23 25 35.5t43 12.5q15 0 30 -5.5t27 -17t19 -29t7 -41.5q0 -19 -2.5 -46.5t-6.5 -57.5q-6 -43 -10.5 -92.5t-4.5 -103.5q0 -81 7.5 -168t24.5 -170t44 -157.5t66.5 -130.5t92 -89t120.5 -33q48 0 86 27.5t66.5 76t48.5 113.5t32.5 140.5 t18 157.5t5.5 164q0 40 -2 90.5t-6 103t-9 103t-12 91.5q-2 5 -2 12q0 16 6.5 29.5t17.5 23t25 14.5t29 5q27 0 46.5 -18.5t32 -49.5t19.5 -71t10.5 -83t4.5 -85.5t1 -78.5q0 -242 -27.5 -419t-84.5 -292.5t-144 -171.5t-205 -56q-82 0 -148.5 38.5t-119 106t-91 158 t-64 194.5t-38 215.5t-12.5 221.5zM235 1691q0 50 30.5 80t80.5 30q20 0 40 -9.5t36 -25t26 -35t10 -40.5q0 -49 -32 -78t-80 -29q-59 0 -85 26t-26 81zM744 1691q0 22 9 42t23.5 35t33.5 24t40 9q50 0 83 -31t33 -79q0 -54 -33 -80.5t-83 -26.5q-24 0 -44 8.5t-33.5 23 t-21 34t-7.5 41.5z" />
<glyph unicode="&#xdd;" horiz-adv-x="1089" d="M31 1317q0 19 7.5 36t19 30t26 20.5t28.5 7.5q17 0 32 -11.5t26 -37.5v1q31 -91 69.5 -177.5t82 -164t91.5 -144t97 -116.5q21 41 51.5 95t66.5 114t76 122t79 120t75 107t65 83q20 19 52 19q16 0 31.5 -5t28 -14t20.5 -22t8 -28q0 -11 -5 -21t-13 -23q-35 -48 -72 -102 q-50 -70 -100.5 -143t-96.5 -146t-84.5 -144t-64.5 -138q2 -80 7 -158.5t11.5 -152t13.5 -140t13 -121.5q1 -8 1.5 -14.5t1.5 -13.5v-10q0 -35 -25.5 -55t-56.5 -20q-13 0 -26.5 4.5t-24.5 13t-18.5 21t-9.5 29.5q-7 52 -13.5 121.5t-13 147t-12.5 159t-10 157.5 q-78 68 -145 148.5t-121 168.5t-95 181t-67 187q-5 8 -5.5 14.5t-0.5 14.5zM357 1527q0 12 6.5 25.5t20.5 23.5q43 32 76 75.5t58 83.5q15 21 28.5 40t27 34t26.5 23.5t26 8.5q16 0 31 -5t27 -14.5t19.5 -22t7.5 -27.5v-8t-1 -6q-18 -52 -49.5 -106t-68 -98t-76 -72 t-74.5 -28q-17 0 -32.5 6t-27 16.5t-18.5 23.5t-7 27z" />
<glyph unicode="&#xde;" horiz-adv-x="1007" d="M127 42q0 2 0.5 4t5.5 7q15 143 29.5 307t26 335.5t18.5 343.5t7 330v129q0 39 24 58.5t56 19.5q30 0 56 -19.5t26 -58.5q1 -79 1 -144.5t-1 -126.5q116 0 217 -34.5t175.5 -95.5t117.5 -143.5t43 -179.5q0 -110 -52.5 -194.5t-139.5 -146.5t-198.5 -101.5t-229.5 -58.5 q-2 -17 -4 -40.5t-4 -41.5q-3 -41 -8 -79t-16 -67.5t-30.5 -47.5t-50.5 -18q-27 0 -48 16t-21 47zM321 433q84 20 164.5 51.5t143 74.5t100.5 96.5t38 118.5q0 54 -28 107.5t-80 96t-125 68.5t-164 26q-3 -61 -7 -129t-9.5 -137t-11 -137.5t-11.5 -129.5q-2 -23 -5 -53 t-5 -53z" />
<glyph unicode="&#xdf;" horiz-adv-x="1169" d="M125 1347q0 37 25.5 56.5t57.5 19.5h14t11 -2q42 14 92 21.5t101 7.5q232 0 354 -88.5t122 -256.5q0 -90 -48 -167t-131 -140q81 -24 154.5 -62.5t129 -89.5t88.5 -113.5t33 -134.5q0 -79 -19.5 -139t-53.5 -105t-80 -75.5t-99 -49t-110.5 -26.5t-115.5 -8q-41 0 -75.5 3 t-59 13t-38.5 28.5t-14 48.5q0 28 17.5 52t52.5 24q22 0 45.5 -2.5t46.5 -2.5q61 0 123 10t111.5 35.5t80.5 68.5t31 108q0 36 -20 72t-55 68.5t-81.5 60.5t-99 48.5t-108.5 32t-109 11.5q-21 0 -44.5 -3.5t-46 -9t-44 -11.5t-37.5 -11v-138q0 -123 -3.5 -242.5 t-11.5 -241.5q-2 -43 -28 -63.5t-55 -20.5q-28 0 -51 19.5t-23 57.5q0 126 8.5 248t8.5 247q0 170 -5 352.5t-28 359.5q-5 37 -9 69.5t-4 60.5zM290 1259q10 -75 15.5 -161.5t10.5 -172.5l6 -124q76 9 151 35.5t135 68t97.5 96t37.5 120.5q0 19 -12.5 47t-42 53.5 t-78.5 44.5t-122 21h-23q-35 0 -82.5 -5.5t-92.5 -22.5z" />
<glyph unicode="&#xe0;" horiz-adv-x="1099" d="M65 881q0 22 18.5 39t48 30t68 22.5t79 15t79 8t69.5 2.5q63 0 125.5 -14.5t119.5 -42.5t106 -68t85 -91t56.5 -112t20.5 -131q0 -72 12.5 -125.5t30.5 -94t38.5 -68.5t37.5 -49q13 -17 21 -27t8 -18q0 -15 -5 -30.5t-14 -28.5t-21 -21t-26 -8q-23 0 -50.5 18.5t-53.5 49 t-47 70.5t-30 83q-10 -43 -34.5 -83t-58.5 -74.5t-74 -63.5t-80.5 -49.5t-79.5 -31.5t-70 -11q-74 0 -129.5 19.5t-92.5 53t-55.5 78.5t-18.5 96q0 52 17 107.5t48 107.5t75 98.5t98 81t116.5 55t130.5 20.5q16 0 45 -3t63 -8q-33 58 -75.5 91.5t-85.5 50t-81.5 21 t-64.5 4.5q-61 0 -121.5 -13t-129.5 -39h1q-9 -2 -19 -4t-18 -2q-20 0 -35 8t-25.5 20.5t-16 28.5t-5.5 32zM297 1486.5v5.5q0 15 7.5 28t19.5 22t27 14.5t30 5.5q23 0 48 -30t51 -69q13 -20 29 -42t33.5 -44t37.5 -42t42 -36q13 -11 19.5 -24t6.5 -26q0 -15 -6.5 -28 t-18 -22.5t-27 -15.5t-32.5 -6q-36 0 -75.5 27.5t-75.5 71t-66.5 97.5t-48.5 106v2q-1 2 -1 5.5zM314 242q0 -19 7 -36.5t20.5 -30.5t33 -21t45.5 -8q35 0 73 13.5t74 36.5t68.5 54.5t57 67t39 73.5t14.5 75q0 28 -11 46t-29 28.5t-40.5 14.5t-44.5 4q-52 0 -106.5 -25 t-99 -68.5t-73 -101t-28.5 -122.5z" />
<glyph unicode="&#xe1;" horiz-adv-x="1099" d="M65 881q0 22 18.5 39t48 30t68 22.5t79 15t79 8t69.5 2.5q63 0 125.5 -14.5t119.5 -42.5t106 -68t85 -91t56.5 -112t20.5 -131q0 -72 12.5 -125.5t30.5 -94t38.5 -68.5t37.5 -49q13 -17 21 -27t8 -18q0 -15 -5 -30.5t-14 -28.5t-21 -21t-26 -8q-23 0 -50.5 18.5t-53.5 49 t-47 70.5t-30 83q-10 -43 -34.5 -83t-58.5 -74.5t-74 -63.5t-80.5 -49.5t-79.5 -31.5t-70 -11q-74 0 -129.5 19.5t-92.5 53t-55.5 78.5t-18.5 96q0 52 17 107.5t48 107.5t75 98.5t98 81t116.5 55t130.5 20.5q16 0 45 -3t63 -8q-33 58 -75.5 91.5t-85.5 50t-81.5 21 t-64.5 4.5q-61 0 -121.5 -13t-129.5 -39h1q-9 -2 -19 -4t-18 -2q-20 0 -35 8t-25.5 20.5t-16 28.5t-5.5 32zM287 1249q0 11 7.5 25.5t18.5 25.5q44 34 78 77.5t61 83.5q27 42 51.5 71.5t50.5 29.5q15 0 30 -5.5t27 -14.5t19.5 -22t7.5 -28l-1 -13q-18 -52 -48.5 -106 t-67 -97.5t-75.5 -71t-74 -27.5q-17 0 -32.5 6t-27 15.5t-18.5 22.5t-7 28zM314 242q0 -19 7 -36.5t20.5 -30.5t33 -21t45.5 -8q35 0 73 13.5t74 36.5t68.5 54.5t57 67t39 73.5t14.5 75q0 28 -11 46t-29 28.5t-40.5 14.5t-44.5 4q-52 0 -106.5 -25t-99 -68.5t-73 -101 t-28.5 -122.5z" />
<glyph unicode="&#xe2;" horiz-adv-x="1099" d="M65 881q0 22 18.5 39t48 30t68 22.5t79 15t79 8t69.5 2.5q63 0 125.5 -14.5t119.5 -42.5t106 -68t85 -91t56.5 -112t20.5 -131q0 -72 12.5 -125.5t30.5 -94t38.5 -68.5t37.5 -49q13 -17 21 -27t8 -18q0 -15 -5 -30.5t-14 -28.5t-21 -21t-26 -8q-23 0 -50.5 18.5t-53.5 49 t-47 70.5t-30 83q-10 -43 -34.5 -83t-58.5 -74.5t-74 -63.5t-80.5 -49.5t-79.5 -31.5t-70 -11q-74 0 -129.5 19.5t-92.5 53t-55.5 78.5t-18.5 96q0 52 17 107.5t48 107.5t75 98.5t98 81t116.5 55t130.5 20.5q16 0 45 -3t63 -8q-33 58 -75.5 91.5t-85.5 50t-81.5 21 t-64.5 4.5q-61 0 -121.5 -13t-129.5 -39h1q-9 -2 -19 -4t-18 -2q-20 0 -35 8t-25.5 20.5t-16 28.5t-5.5 32zM215 1231q0 8 15 40t39 74.5t55.5 90t64 87.5t64.5 66t58 26q21 0 46.5 -24t52.5 -61t53.5 -81t48.5 -84q14 -25 28 -50.5t28 -48.5q5 -12 7.5 -22.5t2.5 -21.5 q0 -20 -7.5 -37t-19.5 -29.5t-26.5 -19.5t-29.5 -7q-14 0 -31 16.5t-34.5 41.5t-35 54.5t-32.5 56.5q-8 13 -14.5 25t-13 22.5t-14 20.5t-17.5 21q-35 -47 -66 -87q-13 -18 -26.5 -36l-25.5 -34t-21.5 -29.5t-14.5 -22.5q-19 -30 -51 -30q-16 0 -31 6.5t-26.5 17.5 t-18.5 26.5t-7 32.5zM314 242q0 -19 7 -36.5t20.5 -30.5t33 -21t45.5 -8q35 0 73 13.5t74 36.5t68.5 54.5t57 67t39 73.5t14.5 75q0 28 -11 46t-29 28.5t-40.5 14.5t-44.5 4q-52 0 -106.5 -25t-99 -68.5t-73 -101t-28.5 -122.5z" />
<glyph unicode="&#xe3;" horiz-adv-x="1099" d="M65 881q0 22 18.5 39t48 30t68 22.5t79 15t79 8t69.5 2.5q63 0 125.5 -14.5t119.5 -42.5t106 -68t85 -91t56.5 -112t20.5 -131q0 -72 12.5 -125.5t30.5 -94t38.5 -68.5t37.5 -49q13 -17 21 -27t8 -18q0 -15 -5 -30.5t-14 -28.5t-21 -21t-26 -8q-23 0 -50.5 18.5t-53.5 49 t-47 70.5t-30 83q-10 -43 -34.5 -83t-58.5 -74.5t-74 -63.5t-80.5 -49.5t-79.5 -31.5t-70 -11q-74 0 -129.5 19.5t-92.5 53t-55.5 78.5t-18.5 96q0 52 17 107.5t48 107.5t75 98.5t98 81t116.5 55t130.5 20.5q16 0 45 -3t63 -8q-33 58 -75.5 91.5t-85.5 50t-81.5 21 t-64.5 4.5q-61 0 -121.5 -13t-129.5 -39h1q-9 -2 -19 -4t-18 -2q-20 0 -35 8t-25.5 20.5t-16 28.5t-5.5 32zM110 1176q0 66 23.5 115.5t60.5 82t81 48.5t85 16q29 0 54.5 -8.5t48.5 -22.5t43.5 -31.5t39.5 -35.5q18 -17 36.5 -32.5t38 -28.5t41 -20.5t45.5 -7.5 q21 0 35.5 7.5t25 19.5t18 27.5t14.5 31.5q6 13 12 25.5t14.5 22.5t20 16t27.5 6q14 0 28.5 -5t26 -15t18.5 -23.5t7 -31.5q0 -2 -0.5 -4t-0.5 -4q-2 -4 -1.5 -5.5t0.5 -2.5q-8 -51 -30.5 -93t-55.5 -72t-73.5 -46.5t-82.5 -16.5q-33 0 -60 9.5t-50.5 24.5t-44 33.5 t-39.5 37.5q-17 17 -34 32.5t-35 27.5t-37.5 19.5t-41.5 7.5q-23 0 -39.5 -8.5t-28 -22.5t-20 -31.5t-15.5 -35.5q-6 -15 -13 -29t-16 -25.5t-20.5 -18.5t-27.5 -7q-15 0 -29 5t-25 14.5t-17.5 23t-6.5 31.5zM314 242q0 -19 7 -36.5t20.5 -30.5t33 -21t45.5 -8q35 0 73 13.5 t74 36.5t68.5 54.5t57 67t39 73.5t14.5 75q0 28 -11 46t-29 28.5t-40.5 14.5t-44.5 4q-52 0 -106.5 -25t-99 -68.5t-73 -101t-28.5 -122.5z" />
<glyph unicode="&#xe4;" horiz-adv-x="1099" d="M65 881q0 22 18.5 39t48 30t68 22.5t79 15t79 8t69.5 2.5q63 0 125.5 -14.5t119.5 -42.5t106 -68t85 -91t56.5 -112t20.5 -131q0 -72 12.5 -125.5t30.5 -94t38.5 -68.5t37.5 -49q13 -17 21 -27t8 -18q0 -15 -5 -30.5t-14 -28.5t-21 -21t-26 -8q-23 0 -50.5 18.5t-53.5 49 t-47 70.5t-30 83q-10 -43 -34.5 -83t-58.5 -74.5t-74 -63.5t-80.5 -49.5t-79.5 -31.5t-70 -11q-74 0 -129.5 19.5t-92.5 53t-55.5 78.5t-18.5 96q0 52 17 107.5t48 107.5t75 98.5t98 81t116.5 55t130.5 20.5q16 0 45 -3t63 -8q-33 58 -75.5 91.5t-85.5 50t-81.5 21 t-64.5 4.5q-61 0 -121.5 -13t-129.5 -39h1q-9 -2 -19 -4t-18 -2q-20 0 -35 8t-25.5 20.5t-16 28.5t-5.5 32zM165 1347q0 47 31 77.5t82 30.5q20 0 40 -9.5t35.5 -24.5t25 -34.5t9.5 -39.5q0 -51 -31 -80.5t-79 -29.5q-113 0 -113 110zM314 242q0 -19 7 -36.5t20.5 -30.5 t33 -21t45.5 -8q35 0 73 13.5t74 36.5t68.5 54.5t57 67t39 73.5t14.5 75q0 28 -11 46t-29 28.5t-40.5 14.5t-44.5 4q-52 0 -106.5 -25t-99 -68.5t-73 -101t-28.5 -122.5zM674 1347q0 21 9.5 40.5t25 34.5t35 24t40.5 9q24 0 44.5 -8.5t36 -23t24 -34t8.5 -42.5 q0 -55 -32.5 -82.5t-80.5 -27.5q-53 0 -81.5 32t-28.5 78z" />
<glyph unicode="&#xe5;" horiz-adv-x="1099" d="M65 881q0 22 18.5 39t48 30t68 22.5t79 15t79 8t69.5 2.5q63 0 125.5 -14.5t119.5 -42.5t106 -68t85 -91t56.5 -112t20.5 -131q0 -72 12.5 -125.5t30.5 -94t38.5 -68.5t37.5 -49q13 -17 21 -27t8 -18q0 -15 -5 -30.5t-14 -28.5t-21 -21t-26 -8q-23 0 -50.5 18t-53.5 48 t-47 70t-30 84q-10 -43 -34.5 -83t-58.5 -74.5t-74 -63t-80.5 -49t-79.5 -31.5t-70 -11q-74 0 -129.5 19.5t-92.5 53t-55.5 78.5t-18.5 96q0 52 17 107.5t48 107.5t75 98.5t98 81t116.5 55t130.5 20.5q16 0 45 -3t63 -8q-33 58 -75.5 91.5t-85.5 50t-81.5 21t-64.5 4.5 q-61 0 -121.5 -13t-129.5 -39h1q-9 -2 -19 -4t-18 -2q-20 0 -35 8t-25.5 20.5t-16 28.5t-5.5 32zM274 1380q0 54 22 96.5t55.5 71.5t73.5 44.5t76 15.5q53 0 92 -19t65 -48t38.5 -62.5t12.5 -63.5q0 -46 -15.5 -87t-44.5 -73t-71 -52.5t-95 -25.5q-3 0 -7.5 -0.5t-7.5 -0.5 q-4 -1 -10 -1q-44 0 -78.5 18.5t-58 47.5t-35.5 66t-12 73zM314 242q0 -19 7 -36.5t20.5 -30.5t33 -21t45.5 -8q35 0 73 13.5t74 36.5t68.5 54.5t57 67t39 73.5t14.5 75q0 28 -11 46t-29 28.5t-40.5 14.5t-44.5 4q-52 0 -106.5 -25t-99 -68.5t-73 -101t-28.5 -122.5z M390 1381q0 -13 7 -29.5t20 -30.5t31.5 -24t40.5 -10q18 0 35 9t30.5 23.5t21.5 31.5t8 33q0 22 -7.5 41.5t-20.5 34.5t-30.5 24t-36.5 9q-46 0 -70 -32.5t-29 -79.5z" />
<glyph unicode="&#xe6;" horiz-adv-x="1780" d="M59 881q0 22 18.5 39t48 30t68 22.5t79 15t79 8t69.5 2.5q60 0 120 -13.5t115 -39t103 -62t85 -83.5q28 49 66.5 92t87.5 75t109 50.5t132 18.5q85 0 144.5 -25t97.5 -66t55.5 -92.5t17.5 -104.5q0 -56 -17.5 -102.5t-47 -84.5t-66.5 -66.5t-75.5 -49.5t-76 -34 t-66.5 -19q-34 -7 -79 -7q-42 0 -90 9t-92 31q13 -73 37.5 -122.5t53.5 -78.5q23 -23 52.5 -37t62 -21.5t67 -10.5t67.5 -3q55 0 102 15t85.5 41t69.5 60.5t55 72.5l-1 -1q15 20 30.5 27.5t29.5 7.5q26 0 46 -21t20 -53q0 -26 -15 -51q-31 -50 -77 -96.5t-100 -81.5 t-111.5 -56t-110.5 -21q-29 0 -69.5 2t-87 9.5t-96 23t-95.5 42.5t-86 68t-67 99q-24 -56 -68.5 -103.5t-97 -83t-106 -55.5t-96.5 -20q-74 0 -129.5 19.5t-92.5 53t-55.5 78.5t-18.5 96q0 52 17 107.5t48 107.5t75 98.5t98 81t116.5 55t130.5 20.5q17 0 45.5 -3t62.5 -8 q-33 58 -75.5 91.5t-85.5 50t-81.5 21t-64.5 4.5q-61 0 -121.5 -13t-129.5 -39h1q-8 -2 -18.5 -4t-18.5 -2q-20 0 -35 8t-25.5 20.5t-16 28.5t-5.5 32zM308 242q0 -19 7 -36.5t20.5 -30.5t33.5 -21t46 -8q52 0 109.5 29t105.5 75.5t79 103t31 112.5q0 28 -11 46t-29 28.5 t-40.5 14.5t-44.5 4q-52 0 -106.5 -25t-99 -68.5t-73 -101t-28.5 -122.5zM934 548q32 -14 67.5 -19t67.5 -5q25 0 59.5 2t70.5 10t71.5 23t63.5 41t45 64.5t17 92.5q0 19 -11 42.5t-31.5 43.5t-50.5 33.5t-67 13.5q-13 0 -25.5 -2t-27.5 -5q-51 -15 -100 -49t-85.5 -80 t-55 -99t-8.5 -107z" />
<glyph unicode="&#xe7;" horiz-adv-x="946" d="M77 374q0 102 24.5 185t65 148.5t93.5 114t109.5 80t113 47t104.5 15.5q56 0 95 -12t69 -30h-1q27 -14 39.5 -36t12.5 -45q0 -26 -15 -47t-38 -21q-14 0 -28 6.5t-24 11.5q-27 10 -49 17t-47 7q-86 0 -154 -35.5t-115.5 -96.5t-73 -141.5t-25.5 -171.5q0 -47 19.5 -86.5 t52 -69t73.5 -46t85 -16.5q96 0 176.5 30.5t160.5 83.5q11 7 23.5 11.5t21.5 4.5q22 0 33.5 -17.5t11.5 -44.5q0 -44 -30.5 -79t-79.5 -61t-110 -44t-121 -27l-19 -69q44 0 86 -11.5t74.5 -33.5t52 -54t19.5 -73q0 -54 -23 -97t-62 -73t-90 -46t-108 -16q-52 0 -96.5 11 t-77 29.5t-51 41.5t-18.5 47q0 26 17 44.5t37 18.5q9 0 19 -4q47 -37 90 -52t78 -15q66 0 98 25.5t32 90.5q0 18 -12 31.5t-29 22t-34.5 13t-29.5 4.5q-21 0 -33.5 -1t-20 -3t-11.5 -4t-7 -4l-3 -1.5t-8 -0.5q-10 0 -21.5 2t-21 6.5t-15 12t-2.5 17.5q9 32 19.5 65.5 t21.5 67.5q-82 6 -143 37t-101 80.5t-59.5 115t-19.5 140.5z" />
<glyph unicode="&#xe8;" horiz-adv-x="1066" d="M76 480q0 57 12 121t37.5 125.5t64 117.5t92 99t122 68t152.5 25q85 0 144.5 -25t97.5 -66t55.5 -92.5t17.5 -104.5q0 -64 -21.5 -116t-57 -92t-81 -69.5t-93 -48.5t-93 -28t-81.5 -9q-49 0 -106 13t-104 43q10 -80 45 -135t85.5 -89.5t112.5 -49.5t125 -15 q55 0 101.5 15t85.5 41t70 60.5t55 72.5q14 19 29 26.5t30 7.5q25 0 45.5 -21t20.5 -53q0 -26 -15 -51q-31 -50 -77.5 -96.5t-100.5 -81.5t-111.5 -56t-111.5 -21q-37 0 -92 3.5t-115.5 18.5t-121.5 45t-109.5 84t-78.5 135.5t-30 198.5zM237 554q35 -17 74 -23.5t76 -6.5 q25 0 59 2t70.5 10t71.5 23t62.5 41t44.5 64.5t17 92.5q0 19 -11 42.5t-31 43.5t-49.5 33.5t-66.5 13.5q-13 0 -26 -2t-27 -5q-54 -13 -102 -48t-84 -82t-57 -99.5t-21 -99.5zM357 1496v7q0 15 7.5 27.5t19.5 22t27 14.5t31 5q23 0 48 -30t52 -71q26 -41 61 -86t79 -77v1 q14 -11 21.5 -24.5t7.5 -25.5q0 -14 -7 -27t-18.5 -23t-27 -16t-32.5 -6q-36 0 -75.5 27.5t-76 71t-67.5 97t-49 106.5v1q-1 2 -1 6z" />
<glyph unicode="&#xe9;" horiz-adv-x="1066" d="M76 480q0 57 12 121t37.5 125.5t64 117.5t92 99t122 68t152.5 25q85 0 144.5 -25t97.5 -66t55.5 -92.5t17.5 -104.5q0 -56 -18 -102.5t-47 -84.5t-66 -66.5t-76 -49.5t-76 -34t-66 -19q-34 -7 -78 -7q-49 0 -106 13t-104 43q10 -80 45 -135t85.5 -89.5t112.5 -49.5 t125 -15q55 0 101.5 15t85.5 41t70 60.5t55 72.5q14 19 29 26.5t30 7.5q25 0 45.5 -21t20.5 -53q0 -26 -15 -51q-31 -50 -77.5 -96.5t-100.5 -81.5t-111.5 -56t-111.5 -21q-37 0 -92 3.5t-115.5 18.5t-121.5 45t-109.5 84t-78.5 135.5t-30 198.5zM237 554q35 -17 74 -23.5 t76 -6.5q25 0 59 2t70.5 10t71.5 23t62.5 41t44.5 64.5t17 92.5q0 19 -11 42.5t-31 43.5t-49.5 33.5t-66.5 13.5q-13 0 -26 -2t-27 -5q-54 -13 -102 -48t-84 -82t-57 -99.5t-21 -99.5zM386 1251q0 11 7 25.5t18 25.5q44 34 78 77.5t61 83.5q29 42 52.5 72t49.5 30 q16 0 31 -5.5t27 -15t19.5 -22.5t7.5 -28q0 -7 -1 -10l-1 -3q-18 -52 -49 -105.5t-67.5 -97t-75.5 -71t-73 -27.5q-35 0 -59.5 21t-24.5 50z" />
<glyph unicode="&#xea;" horiz-adv-x="1066" d="M76 480q0 57 12 121t37.5 125.5t64 117.5t92 99t122 68t152.5 25q85 0 144.5 -25t97.5 -66t55.5 -92.5t17.5 -104.5q0 -56 -18 -102.5t-47 -84.5t-66 -66.5t-76 -49.5t-76 -34t-66 -19q-34 -7 -78 -7q-49 0 -106 13t-104 43q10 -80 45 -135t85.5 -89.5t112.5 -49.5 t125 -15q55 0 101.5 15t85.5 41t70 60.5t55 72.5q14 19 29 26.5t30 7.5q25 0 45.5 -21t20.5 -53q0 -26 -15 -51q-31 -50 -77.5 -96.5t-100.5 -81.5t-111.5 -56t-111.5 -21q-37 0 -92 3.5t-115.5 18.5t-121.5 45t-109.5 84t-78.5 135.5t-30 198.5zM237 554q35 -17 74 -23.5 t76 -6.5q25 0 59 2t70.5 10t71.5 23t62.5 41t44.5 64.5t17 92.5q0 19 -11 42.5t-31 43.5t-49.5 33.5t-66.5 13.5q-13 0 -26 -2t-27 -5q-54 -13 -102 -48t-84 -82t-57 -99.5t-21 -99.5zM237 1262q0 9 15 40.5t39 74t55.5 90t64 87t64.5 65.5t58 26q25 0 51 -23.5t52.5 -61 t52.5 -83.5t50 -91q13 -23 25 -45.5t23 -42.5q9 -24 9 -47q0 -20 -7 -37t-18.5 -29t-26 -19t-29.5 -7t-33 17.5t-37 44.5t-37 58.5t-33 59.5q-14 24 -24 42.5t-26 35.5q-36 -47 -67 -87q-26 -35 -51 -69.5t-36 -52.5l1 1q-13 -16 -26 -22.5t-26 -6.5q-16 0 -31 6.5 t-26.5 17.5t-18.5 26t-7 32z" />
<glyph unicode="&#xeb;" horiz-adv-x="1066" d="M76 480q0 57 12 121t37.5 125.5t64 117.5t92 99t122 68t152.5 25q85 0 144.5 -25t97.5 -66t55.5 -92.5t17.5 -104.5q0 -56 -18 -102.5t-47 -84.5t-66 -66.5t-76 -49.5t-76 -34t-66 -19q-34 -7 -78 -7q-49 0 -106 13t-104 43q10 -80 45 -135t85.5 -89.5t112.5 -49.5 t125 -15q55 0 101.5 15t85.5 41t70 60.5t55 72.5q14 19 29 26.5t30 7.5q25 0 45.5 -21t20.5 -53q0 -26 -15 -51q-31 -50 -77.5 -96.5t-100.5 -81.5t-111.5 -56t-111.5 -21q-37 0 -92 3.5t-115.5 18.5t-121.5 45t-109.5 84t-78.5 135.5t-30 198.5zM187 1347q0 47 30.5 77.5 t80.5 30.5q20 0 40 -9.5t36 -24.5t26 -34.5t10 -39.5q0 -51 -31.5 -80.5t-80.5 -29.5q-59 0 -85 26.5t-26 83.5zM237 554q35 -17 74 -23.5t76 -6.5q25 0 59 2t70.5 10t71.5 23t62.5 41t44.5 64.5t17 92.5q0 19 -11 42.5t-31 43.5t-49.5 33.5t-66.5 13.5q-13 0 -26 -2t-27 -5 q-54 -13 -102 -48t-84 -82t-57 -99.5t-21 -99.5zM697 1347q0 21 9 40.5t23.5 34.5t33.5 24t40 9q25 0 46 -8.5t36.5 -23t24.5 -34t9 -42.5q0 -55 -33 -82.5t-83 -27.5t-78 32t-28 78z" />
<glyph unicode="&#xec;" horiz-adv-x="547" d="M77 1500q0 15 7.5 28t19.5 22t27.5 14t30.5 5q12 0 25 -8.5t26.5 -23t26.5 -33t27 -38.5q27 -39 61 -83t76 -76q14 -11 20.5 -24t6.5 -27q0 -28 -24.5 -50t-59.5 -22q-36 0 -75.5 27.5t-76.5 71.5t-68 97.5t-49 106.5v2q-1 2 -1 11zM175 843q0 37 25.5 54t57.5 17 q30 0 53.5 -13t27.5 -43q15 -121 21.5 -256t6.5 -276q0 -35 1 -72.5t1 -74.5q0 -42 -2.5 -82.5t-10 -72t-21.5 -51t-38 -19.5q-17 0 -33.5 7t-29.5 20.5t-21 33.5t-8 46q1 46 1.5 89.5t0.5 91.5q0 70 -1.5 147.5t-5.5 155.5t-10 154t-15 144z" />
<glyph unicode="&#xed;" horiz-adv-x="547" d="M116 1256q0 13 6 26t22 24q42 32 74 74t59 83q29 44 55 75t53 31q15 0 30 -5t27 -14t19.5 -22t7.5 -28q0 -9 -1 -11v-2q-18 -53 -49.5 -106.5t-68 -97.5t-76 -71.5t-74.5 -27.5t-59.5 22t-24.5 50zM175 843q0 37 25.5 54t57.5 17q30 0 53.5 -13t27.5 -43 q15 -121 21.5 -256t6.5 -276q0 -35 1 -72.5t1 -74.5q0 -42 -2.5 -82.5t-10 -72t-21.5 -51t-38 -19.5q-17 0 -33.5 7t-29.5 20.5t-21 33.5t-8 46q1 46 1.5 89.5t0.5 91.5q0 70 -1.5 147.5t-5.5 155.5t-10 154t-15 144z" />
<glyph unicode="&#xee;" horiz-adv-x="547" d="M-8 1190q0 9 14.5 40.5t39 74.5t55.5 90t64 87t64.5 66t57.5 26q23 0 49 -23t53 -60t53 -82t50 -89q14 -23 27 -48.5t26 -45.5q4 -11 6.5 -22.5t2.5 -22.5q0 -20 -7.5 -37t-19 -29.5t-26.5 -19.5t-30 -7q-14 0 -31 16.5t-35 42t-36 55.5t-33 57q-15 29 -30 52.5t-26 35.5 q-34 -46 -65 -86l-52 -70t-38 -54v1q-20 -29 -51 -29t-56.5 23t-25.5 58zM175 843q0 37 25.5 54t57.5 17q30 0 53.5 -13t27.5 -43q15 -121 21.5 -256t6.5 -276q0 -35 1 -72.5t1 -74.5q0 -42 -2.5 -82.5t-10 -72t-21.5 -51t-38 -19.5q-17 0 -33.5 7t-29.5 20.5t-21 33.5 t-8 46q1 46 1.5 89.5t0.5 91.5q0 70 -1.5 147.5t-5.5 155.5t-10 154t-15 144z" />
<glyph unicode="&#xef;" horiz-adv-x="547" d="M-35 1347q0 47 31.5 77.5t82.5 30.5q20 0 39.5 -9.5t35 -24.5t25 -34.5t9.5 -39.5q0 -51 -31 -80.5t-78 -29.5q-114 0 -114 110zM178 843q0 37 25.5 54t57.5 17q30 0 53.5 -13t27.5 -43q15 -121 21.5 -256t6.5 -276q0 -35 1 -72.5t1 -74.5q0 -42 -2.5 -82.5t-10 -72 t-21.5 -51t-38 -19.5q-17 0 -33.5 7t-29.5 20.5t-21 33.5t-8 46q1 46 1.5 89.5t0.5 91.5q0 70 -1.5 147.5t-5.5 155.5t-10 154t-15 144zM351 1347q0 21 9 40.5t23.5 34.5t33.5 24t40 9q24 0 45.5 -8.5t37 -23t24.5 -34t9 -42.5q0 -55 -33.5 -82.5t-82.5 -27.5q-50 0 -78 32 t-28 78z" />
<glyph unicode="&#xf0;" horiz-adv-x="1059" d="M63 434q0 86 35.5 149.5t89.5 105t118.5 61.5t123.5 20q41 0 93.5 -8t106 -24.5t102 -43t81.5 -63.5q-8 98 -42 204.5t-90 199.5q-85 -24 -169.5 -56.5t-173.5 -74.5q-9 -6 -13 -6q-13 0 -26.5 7t-24.5 19t-18 26.5t-7 29.5q0 11 6 22t21 19q76 43 156.5 75.5t161.5 56.5 q-32 35 -66 61t-72 40q-32 13 -45.5 33.5t-13.5 42.5q0 30 25 54.5t68 24.5q17 0 35 -5.5t41 -14.5q68 -35 118 -83.5t90 -105.5q45 10 88 18t84 14h11q19 0 36 -7t30 -18.5t20.5 -25.5t7.5 -28q0 -17 -16.5 -32t-51.5 -21q-34 -5 -67 -10.5t-66 -12.5q4 -5 6.5 -11t5.5 -11 h-1q21 -41 42 -97.5t38 -124t27.5 -144t10.5 -156.5q0 -131 -34 -236.5t-95.5 -179.5t-146 -114.5t-185.5 -40.5q-90 0 -172 34t-145 96.5t-100.5 149.5t-37.5 192zM221 406q0 -49 22 -98t58.5 -88.5t83.5 -64t98 -24.5q56 0 108 13t91.5 41.5t63.5 73.5t24 108 q0 69 -33 116t-83.5 75.5t-109.5 41t-110 12.5q-64 -4 -105 -24.5t-65 -50t-33.5 -64.5t-9.5 -67z" />
<glyph unicode="&#xf1;" horiz-adv-x="1136" d="M91 841q0 32 22.5 51.5t51.5 19.5q43 0 69.5 -43.5t46.5 -135.5q34 37 74 70t82.5 57.5t85.5 39t84 14.5q109 0 189.5 -44.5t132.5 -118.5t77.5 -170.5t25.5 -201.5q0 -30 -1 -66.5t-4.5 -74.5t-11 -73.5t-21 -63.5t-34.5 -45t-51 -17q-23 0 -41.5 14.5t-18.5 43.5 q0 3 0.5 7t2.5 10q24 127 24 224q0 99 -16.5 175.5t-52 128t-91.5 78.5t-136 27q-35 0 -73 -19t-73.5 -48.5t-64.5 -66.5t-47 -73q19 -115 30.5 -234t11.5 -231q0 -44 -24.5 -65.5t-53.5 -21.5q-14 0 -28 5t-25 15t-18 24.5t-7 34.5q0 187 -27.5 371.5t-86.5 382.5 q-2 5 -2.5 9.5t-0.5 10.5zM149 1245q0 66 23.5 115.5t60.5 81.5t81 48t85 16q29 0 54.5 -8.5t48.5 -22.5t43.5 -31.5t39.5 -35.5q18 -17 36.5 -32.5t38 -28t41 -20t45.5 -7.5q22 0 36.5 7t24.5 19t17.5 27.5t14.5 31.5q6 13 12.5 26t14.5 23t19.5 16t27.5 6q15 0 29 -5.5 t25.5 -15t18.5 -23.5t7 -32l-2 -15q-8 -51 -30.5 -93t-55.5 -72.5t-73.5 -47t-82.5 -16.5q-33 0 -60 9.5t-50 24.5t-43.5 33.5t-39.5 37.5q-17 17 -34.5 32.5t-35.5 27.5t-37 19.5t-41 7.5q-24 0 -40.5 -8.5t-28 -22.5t-20 -31.5t-15.5 -35.5q-6 -15 -13 -29t-16 -25.5 t-20.5 -18.5t-27.5 -7q-15 0 -29 5t-25 15t-17.5 23.5t-6.5 31.5z" />
<glyph unicode="&#xf2;" horiz-adv-x="1054" d="M92 464q0 40 11 90t30 101.5t45 100t55 86.5t60 61t61 23q14 0 31 -3.5t38 -26.5q20 5 41 7.5t35 3.5q100 -5 185.5 -44t147.5 -99t97.5 -136t35.5 -155t-34 -157.5t-97.5 -141t-154 -101.5t-203.5 -39q-85 0 -155.5 36t-121.5 96t-79 137.5t-28 160.5zM260 494 q0 -66 15.5 -122.5t46.5 -98.5t78 -65.5t109 -23.5q58 0 110.5 24t92 64t63 92t23.5 109q0 62 -30 115t-78 92t-107 62t-117 25q-11 0 -26.5 -3.5t-29.5 -8.5q-5 -2 -10 -3t-12 -3q-26 -2 -49 -30.5t-40.5 -68t-28 -82.5t-10.5 -74zM343 1497v6q0 15 7.5 27.5t19.5 22 t27 14.5t31 5q24 0 47 -28.5t51 -70.5q28 -41 62.5 -85.5t80.5 -78.5q11 -11 18 -24.5t7 -25.5q0 -28 -25 -50t-60 -22q-36 0 -75 27.5t-75 71t-66 97t-48 106.5l-1 3q-1 2 -1 5z" />
<glyph unicode="&#xf3;" horiz-adv-x="1054" d="M92 464q0 40 11 90t30 101.5t45 100t55 86.5t60 61t61 23q14 0 31 -3.5t38 -26.5q20 5 41 7.5t35 3.5q100 -5 185.5 -44t147.5 -99t97.5 -136t35.5 -155t-34 -157.5t-97.5 -141t-154 -101.5t-203.5 -39q-85 0 -155.5 36t-121.5 96t-79 137.5t-28 160.5zM260 494 q0 -66 15.5 -122.5t46.5 -98.5t78 -65.5t109 -23.5q58 0 110.5 24t92 64t63 92t23.5 109q0 62 -30 115t-78 92t-107 62t-117 25q-11 0 -26.5 -3.5t-29.5 -8.5q-5 -2 -10 -3t-12 -3q-26 -2 -49 -30.5t-40.5 -68t-28 -82.5t-10.5 -74zM353 1249q0 11 7 25.5t21 25.5 q42 33 74.5 75.5t58.5 80.5q29 44 55 75t53 31q15 0 29.5 -5.5t26.5 -14.5t19.5 -22t7.5 -28v-5.5t-1 -5.5v-2q-18 -52 -49 -106t-68 -97.5t-76 -71t-74 -27.5q-17 0 -32.5 6t-27 15.5t-18 22.5t-6.5 28z" />
<glyph unicode="&#xf4;" horiz-adv-x="1054" d="M92 464q0 40 11 90t30 101.5t45 100t55 86.5t60 61t61 23q14 0 31 -3.5t38 -26.5q20 5 41 7.5t35 3.5q100 -5 185.5 -44t147.5 -99t97.5 -136t35.5 -155t-34 -157.5t-97.5 -141t-154 -101.5t-203.5 -39q-85 0 -155.5 36t-121.5 96t-79 137.5t-28 160.5zM243 1192 q0 9 14.5 41t39 74.5t55.5 90t64 87t64.5 65.5t57.5 26q25 0 51 -24t53 -62t53 -85t51 -93q11 -21 24 -42t22 -40q5 -11 8 -22.5t3 -24.5q0 -20 -7.5 -37t-19 -29t-26 -19t-27.5 -7q-15 0 -34 18t-38 45t-37.5 59t-33.5 59q-13 22 -25.5 42.5t-23.5 34.5q-34 -45 -64 -85 q-26 -35 -52 -69.5t-39 -54.5v1q-11 -15 -24 -22t-27 -7q-16 0 -30.5 6t-26 17t-18.5 25.5t-7 31.5zM260 494q0 -66 15.5 -122.5t46.5 -98.5t78 -65.5t109 -23.5q58 0 110.5 24t92 64t63 92t23.5 109q0 62 -30 115t-78 92t-107 62t-117 25q-11 0 -26.5 -3.5t-29.5 -8.5 q-5 -2 -10 -3t-12 -3q-26 -2 -49 -30.5t-40.5 -68t-28 -82.5t-10.5 -74z" />
<glyph unicode="&#xf5;" horiz-adv-x="1054" d="M92 464q0 40 11 90t30 101.5t45 100t55 86.5t60 61t61 23q14 0 31 -3.5t38 -26.5q20 5 36 8t40 3q100 -5 185.5 -44t147.5 -99t97.5 -136t35.5 -155t-34 -157.5t-97.5 -141t-154 -101.5t-203.5 -39q-85 0 -155.5 36t-121.5 96t-79 137.5t-28 160.5zM110 1245 q0 66 23.5 115.5t60.5 81.5t81 48t85 16q29 0 54.5 -8.5t48.5 -22.5t43.5 -31.5t39.5 -35.5q18 -17 36.5 -32.5t38 -28t41 -20t45.5 -7.5q21 0 35.5 7t25 19t18 27.5t14.5 31.5l12 26t14.5 23t20 16t27.5 6q14 0 28.5 -5.5t26 -15t18.5 -23.5t7 -32l-2 -15q-8 -51 -30.5 -93 t-55.5 -72.5t-73.5 -47t-82.5 -16.5q-33 0 -60 9.5t-50.5 24.5t-44 33.5t-39.5 37.5q-17 17 -34 32.5t-35 27.5t-37.5 19.5t-41.5 7.5q-23 0 -39.5 -8.5t-28 -22.5t-20 -31.5t-15.5 -35.5q-6 -15 -13 -29t-16 -25.5t-20.5 -18.5t-27.5 -7q-15 0 -29 5t-25 15t-17.5 23.5 t-6.5 31.5zM260 494q0 -66 15.5 -122.5t46.5 -98.5t78 -65.5t109 -23.5q58 0 110.5 24t92 64t63 92t23.5 109q0 62 -30 115t-78 92t-107 62t-117 25q-11 0 -26.5 -3.5t-29.5 -8.5q-5 -2 -10 -3t-12 -3q-26 -2 -49 -30.5t-40.5 -68t-28 -82.5t-10.5 -74z" />
<glyph unicode="&#xf6;" horiz-adv-x="1054" d="M92 464q0 40 11 90t30 101.5t45 100t55 86.5t60 61t61 23q14 0 31 -3.5t38 -26.5q20 5 35 8t41 3q100 -5 185.5 -44t147.5 -99t97.5 -136t35.5 -155t-34 -157.5t-97.5 -141t-154 -101.5t-203.5 -39q-85 0 -155.5 36t-121.5 96t-79 137.5t-28 160.5zM183 1339 q0 48 30 78.5t81 30.5q20 0 40 -9.5t35.5 -24.5t25 -34.5t9.5 -40.5q0 -50 -31.5 -79.5t-78.5 -29.5q-58 0 -84.5 25.5t-26.5 83.5zM260 494q0 -66 15.5 -122.5t46.5 -98.5t78 -65.5t109 -23.5q58 0 110.5 24t92 64t63 92t23.5 109q0 62 -30 115t-78 92t-107 62t-117 25 q-11 0 -26.5 -3.5t-29.5 -8.5q-5 -2 -10 -3t-12 -3h2q-26 -2 -49.5 -30.5t-41.5 -68t-28.5 -82.5t-10.5 -74zM692 1339q0 21 9 41t24 35t34 24t40 9q50 0 83 -31t33 -78q0 -56 -33 -82.5t-83 -26.5t-78.5 32t-28.5 77z" />
<glyph unicode="&#xf7;" horiz-adv-x="1233" d="M52 682q0 26 17.5 44t49.5 18q240 -3 478 -7t478 -7q27 -1 46.5 -11t32 -25.5t18.5 -34.5t6 -37q0 -21 -7 -37.5t-20 -16.5l-962 10q-35 0 -61 9.5t-43 24.5t-25 33.5t-8 36.5zM406 189q0 41 15 88t45 87.5t74.5 67.5t103.5 27q55 0 92 -22t59 -57.5t31.5 -80t9.5 -88.5 q0 -67 -28.5 -113.5t-70.5 -75.5t-89.5 -42t-84.5 -13q-29 0 -57.5 12.5t-50.5 39.5t-35.5 69t-13.5 101zM406 1067q0 41 15 88.5t45 88t74.5 67t103.5 26.5q55 0 92 -22t59 -57.5t31.5 -79t9.5 -86.5q0 -68 -28.5 -115t-70.5 -76t-89.5 -42t-84.5 -13q-29 0 -57.5 12.5 t-50.5 39.5t-35.5 68.5t-13.5 100.5zM518 207q0 -15 7 -33.5t19 -34.5t29 -26.5t37 -10.5q27 0 48 10.5t35.5 28.5t22 40.5t7.5 46.5q0 19 -7 37.5t-19.5 33t-31 23t-40.5 8.5q-24 0 -44 -11.5t-34 -29.5t-21.5 -40t-7.5 -42zM518 1087q0 -16 7 -34.5t19 -34t29 -25.5 t37 -10q27 0 48 10t35.5 27t22 39t7.5 46q0 19 -7 38t-19.5 34t-31 24t-40.5 9q-24 0 -44 -11.5t-34 -29.5t-21.5 -40t-7.5 -42z" />
<glyph unicode="&#xf8;" horiz-adv-x="1054" d="M92 464q0 40 11 90t30 101.5t45 100t55 86.5t60 61t61 23q14 0 31 -3.5t38 -26.5q20 5 41 8t35 3q31 0 60 -5.5t57 -14.5l123 282q9 17 26 26.5t31 9.5q15 0 29.5 -6.5t25.5 -17.5t18 -26t7 -32q0 -8 -0.5 -17.5t-5.5 -17.5q-26 -60 -55.5 -126t-60.5 -137 q49 -31 88 -70.5t66.5 -85t42 -95.5t14.5 -101q0 -79 -34 -157.5t-97.5 -141t-154 -101.5t-203.5 -39q-34 0 -64 6q-27 -60 -52 -119.5t-51 -119.5q-14 -17 -31 -23.5t-34 -6.5q-15 0 -28.5 5.5t-24 15t-17 22.5t-6.5 29v8.5t4 16.5l100 230q-42 29 -75 69.5t-56.5 88 t-36 100.5t-12.5 108zM260 494q0 -76 20 -138t59 -104l219 500q-46 13 -92 15q-11 0 -26.5 -3.5t-29.5 -8.5q-5 -2 -10 -3t-12 -3q-26 -2 -49 -30.5t-40.5 -68t-28 -82.5t-10.5 -74zM474 186q8 -2 16.5 -2h18.5q58 0 110.5 24t92 64t63 92t23.5 109q0 63 -30 115.5t-78 92.5 q-52 -118 -106 -241.5t-110 -253.5z" />
<glyph unicode="&#xf9;" horiz-adv-x="1134" d="M103 535q0 152 38.5 229.5t95.5 77.5q24 0 40 -15t16 -43q0 -23 -3.5 -51t-8.5 -56q-5 -31 -9 -63t-4 -63q0 -73 10.5 -140t39.5 -118t82 -81.5t139 -30.5q41 0 81.5 22t74.5 63.5t58 100t31 132.5q-20 79 -38.5 158t-18.5 158q0 36 22.5 54t50.5 18q27 0 52 -19.5 t30 -57.5q11 -89 29 -176t43.5 -165t58 -145t72.5 -116q8 -11 12.5 -24t4.5 -22q0 -29 -22 -50t-51 -21q-22 0 -45 18.5t-45 46.5t-41.5 60t-35.5 59q-26 -57 -61.5 -103.5t-76 -78.5t-83.5 -49.5t-83 -17.5q-128 0 -215 36t-140.5 102t-76.5 160t-23 211zM341 1503 q0 15 7.5 27.5t19.5 22t27.5 14.5t31.5 5q23 0 46.5 -28.5t51.5 -70.5q28 -41 62.5 -85.5t79.5 -78.5q11 -11 18.5 -24.5t7.5 -25.5q0 -28 -25 -50t-60 -22q-36 0 -75 27.5t-75 71t-66.5 97t-48.5 106.5q-2 5 -2 14z" />
<glyph unicode="&#xfa;" horiz-adv-x="1134" d="M103 535q0 152 38.5 229.5t95.5 77.5q24 0 40 -15t16 -43q0 -27 -4 -56.5t-8.5 -59.5t-8.5 -59.5t-4 -57.5q0 -73 10.5 -140t39.5 -118t82 -81.5t139 -30.5q41 0 81.5 22t74.5 63.5t58 100t31 132.5q-23 84 -40 165.5t-17 150.5q0 36 22.5 54t50.5 18q27 0 52 -19.5 t30 -57.5q11 -89 29 -176t43.5 -165.5t58.5 -145.5t73 -116l-1 1q8 -11 12.5 -24t4.5 -22q0 -29 -22 -50t-51 -21q-22 0 -45 18.5t-45 46.5t-41.5 60t-35.5 59q-26 -57 -61.5 -103.5t-76 -78.5t-83.5 -49.5t-83 -17.5q-128 0 -215 36t-140.5 102t-76.5 160t-23 211z M370 1249q0 11 8.5 25.5t19.5 25.5q42 34 74.5 76.5t59.5 80.5q29 44 55 74.5t53 30.5q15 0 30 -5.5t27 -14.5t19.5 -22t7.5 -28q0 -9 -1 -13q-18 -52 -49.5 -106t-68 -97.5t-76 -71t-74.5 -27.5q-17 0 -32.5 6t-27 15.5t-18.5 22.5t-7 28z" />
<glyph unicode="&#xfb;" horiz-adv-x="1134" d="M103 535q0 152 38.5 229.5t95.5 77.5q24 0 40 -15t16 -43q0 -23 -3.5 -51t-8.5 -56q-5 -31 -9 -63t-4 -63q0 -73 10.5 -140t39.5 -118t82 -81.5t139 -30.5q41 0 81.5 22t74.5 63.5t58 100t31 132.5q-12 45 -22.5 82.5t-18 74.5t-12 75t-4.5 84q0 36 22.5 54t50.5 18 q27 0 52 -19.5t30 -57.5q11 -89 29 -176t43.5 -165.5t58.5 -145.5t73 -116q8 -11 12 -24t4 -21q0 -29 -22 -50t-51 -21q-22 0 -45 18.5t-45 46.5t-41.5 60t-35.5 59q-26 -57 -61.5 -103.5t-76 -78.5t-83.5 -49.5t-83 -17.5q-128 0 -215 36t-140.5 102t-76.5 160t-23 211z M255 1190q0 9 14.5 40.5t39 74.5t55.5 90t64 87t64.5 66t57.5 26q23 0 49 -23t53 -60t53 -82t50 -89q13 -23 26.5 -48.5t26.5 -45.5q3 -11 5.5 -22.5t2.5 -22.5q0 -20 -7.5 -37t-19 -29.5t-26 -19.5t-29.5 -7t-31 15.5t-33.5 40t-35 54.5t-33.5 58.5t-31 53t-27 37.5 q-35 -46 -66 -86q-26 -35 -51.5 -70t-37.5 -54v1q-22 -29 -51 -29q-31 0 -56.5 23t-25.5 58z" />
<glyph unicode="&#xfc;" horiz-adv-x="1134" d="M103 535q0 152 38.5 229.5t95.5 77.5q24 0 40 -15t16 -43q0 -27 -4 -56.5t-8.5 -59.5t-8.5 -59.5t-4 -57.5q0 -73 10.5 -140t39.5 -118t82 -81.5t139 -30.5q41 0 81.5 22t74.5 63.5t58 100t31 132.5q-19 67 -31.5 135t-23.5 154l-2 27q0 36 22.5 54t50.5 18 q27 0 52 -19.5t30 -57.5q11 -89 29 -176t43.5 -165.5t58.5 -145.5t73 -116q8 -11 12 -24t4 -21q0 -29 -22 -50t-51 -21q-22 0 -45 18.5t-45 46.5t-41.5 60t-35.5 59q-26 -57 -61.5 -103.5t-76 -78.5t-83.5 -49.5t-83 -17.5q-128 0 -215 36t-140.5 102t-76.5 160t-23 211z M201 1349q0 48 30 78t81 30q21 0 40.5 -9.5t35.5 -24.5t25.5 -34.5t9.5 -39.5q0 -51 -31.5 -80.5t-79.5 -29.5q-111 0 -111 110zM710 1349q0 21 8.5 40.5t23.5 34.5t34.5 24t40.5 9q50 0 82.5 -31t32.5 -77q0 -55 -32.5 -82.5t-82.5 -27.5t-78.5 32t-28.5 78z" />
<glyph unicode="&#xfd;" horiz-adv-x="1005" d="M54 -335q0 26 19 48.5t55 30.5q66 15 124.5 50.5t110 82t97 100.5t85.5 107q-76 55 -151 132t-138.5 166t-112 184.5t-72.5 188.5l-3.5 14t-1.5 12q0 22 8 40.5t21 32t28.5 21t30.5 7.5q17 0 30 -11.5t19 -34.5q108 -379 424 -620q28 59 54.5 126.5t49 146t40.5 168.5 t30 195q3 38 25 54.5t50 16.5q27 0 49.5 -17.5t22.5 -52.5q0 -139 -21 -258.5t-56 -222t-81.5 -189.5t-97.5 -160t-104.5 -133t-101.5 -109q-33 -34 -78.5 -68.5t-94 -62.5t-96 -46t-83.5 -18q-20 0 -34.5 7t-25 18t-15.5 25t-5 29zM355 1249q0 11 7.5 25.5t21.5 25.5 q42 34 74.5 75.5t58.5 80.5q30 44 55.5 75t51.5 31q16 0 31.5 -5.5t27.5 -14.5t19.5 -22t7.5 -28l-3 -13q-18 -52 -49 -106t-67.5 -97.5t-76 -71t-74.5 -27.5q-17 0 -32.5 6t-27 15.5t-18.5 22.5t-7 28z" />
<glyph unicode="&#xfe;" horiz-adv-x="1007" d="M127 -412q0 2 0.5 5.5t3.5 10.5q5 40 9 79.5t7.5 82t6.5 91t7 105.5q13 196 22.5 386.5t16.5 364.5t10.5 326.5t3.5 274.5v134q0 39 22.5 58.5t53.5 19.5q29 0 53 -19.5t24 -58.5v-109q0 -42 -0.5 -90.5t-1 -99t-1.5 -100.5t-1 -96h36q111 0 208 -35.5t168.5 -97.5 t112.5 -145t41 -177q0 -108 -51.5 -192.5t-137 -146.5t-195.5 -102t-227 -59q-8 -89 -13.5 -154t-9.5 -121q-2 -29 -4.5 -58t-4.5 -56q-3 -20 -12.5 -35t-22.5 -25.5t-27.5 -15.5t-27.5 -5q-27 0 -48 14.5t-21 45.5zM325 157q84 21 163.5 53t141.5 74t99.5 95.5t37.5 118.5 q0 51 -26 104t-74.5 95.5t-117.5 70t-154 27.5h-36q-2 -42 -4.5 -89.5t-4.5 -89.5q-5 -111 -11.5 -230.5t-13.5 -228.5z" />
<glyph unicode="&#xff;" horiz-adv-x="1026" d="M55 -342q0 27 19.5 50t56.5 31q67 16 126.5 51.5t112.5 83t99 103t87 109.5q-78 57 -154 135t-141.5 168.5t-115 188t-73.5 192.5q-2 8 -3.5 14.5t-1.5 12.5q0 22 8.5 41t21.5 32.5t29 21.5t31 8q37 0 52 -47q108 -386 431 -633q29 60 55.5 129t49.5 149t41.5 172 t30.5 199q3 38 25.5 55.5t51.5 17.5q28 0 50.5 -18.5t22.5 -53.5q0 -141 -21 -263t-57 -227t-83.5 -193t-99.5 -162.5t-106.5 -136t-103.5 -111.5q-33 -35 -79.5 -70t-96 -64t-98 -47t-85.5 -18q-40 0 -61 25t-21 55zM165 1368q0 50 31.5 81t84.5 31q21 0 40.5 -9.5 t35.5 -25.5t25.5 -36t9.5 -41q0 -51 -31.5 -81t-79.5 -30q-60 0 -88 26.5t-28 84.5zM684 1368q0 22 9.5 42t25 35.5t35.5 25t42 9.5q24 0 45 -8.5t36.5 -23.5t24.5 -35.5t9 -44.5q0 -56 -33 -83.5t-82 -27.5q-53 0 -82.5 32.5t-29.5 78.5z" />
<glyph unicode="&#x152;" horiz-adv-x="1902" d="M70 620q0 112 19.5 208t54.5 173.5t84.5 136t108.5 96.5q-3 14 -3.5 18.5t-0.5 9.5q0 27 19 46.5t50 32.5t70.5 19t79.5 6q119 0 225 -51.5t181 -154.5q3 28 6 54.5t7 52.5q3 26 27 44.5t60 30.5t79.5 18.5t88 10t85 4t68.5 0.5q98 0 194 -11t196 -29h-1q28 -8 39 -29 t11 -47q0 -31 -16.5 -56.5t-46.5 -25.5q-8 0 -12 3q-86 15 -171 24.5t-179 9.5q-64 0 -129.5 -4.5t-136.5 -18.5l-10 -11q-11 -90 -18 -189.5t-13 -195.5q102 -7 202 -12.5t194 -5.5q23 0 51.5 0.5t55.5 2.5q29 2 57.5 3.5t58.5 1.5q29 0 44.5 -20t15.5 -46q0 -29 -18.5 -46 t-47.5 -26t-66.5 -12t-74.5 -3q-15 0 -31 0.5t-30 0.5q-12 0 -24 0.5t-23 0.5q-91 0 -182 5t-192 15q-2 -47 -2 -100v-101q0 -66 2 -138.5t6 -135.5q41 6 91.5 14t105.5 17t111 19t109 19q69 11 135 22t115 19h13q33 0 50.5 -25t17.5 -55q0 -25 -12.5 -46t-38.5 -26 q-69 -12 -155 -29.5t-174 -36t-170 -37t-142 -33.5q-20 -8 -48 -8q-27 0 -55.5 9.5t-51.5 25t-37.5 35.5t-14.5 41q0 8 3 12q-2 21 -3.5 42.5t-3.5 44.5q-72 -92 -171.5 -133t-216.5 -41q-115 0 -202.5 42.5t-147 120t-89.5 186.5t-30 242zM228 659q0 -127 21 -216 t60.5 -144.5t96 -81t128.5 -25.5q95 0 165 37t115.5 106.5t67.5 169t22 223.5q0 112 -23.5 201t-66.5 151t-105 95.5t-138 33.5q-29 0 -58 -6.5t-52 -17.5q-3 -23 -16.5 -46t-34.5 -40l1 1q-90 -60 -136.5 -175.5t-46.5 -265.5z" />
<glyph unicode="&#x153;" horiz-adv-x="1794" d="M85 464q0 40 11 90t30 101.5t44.5 100t54.5 86.5t60 61t61 23q16 0 32 -3.5t38 -26.5q19 5 40.5 7.5t35.5 3.5q109 -5 198.5 -49.5t152.5 -111.5q26 59 64.5 111.5t91 92.5t119 63t147.5 23q85 0 144.5 -25t97 -66t55 -92.5t17.5 -104.5q0 -56 -17.5 -102.5t-46.5 -84.5 t-66 -66.5t-75.5 -49.5t-76 -34t-66.5 -19q-34 -7 -80 -7q-45 0 -98 11t-98 37q-1 -76 31.5 -129.5t84 -87t115 -49t124.5 -15.5q55 0 101.5 15t85.5 41t70.5 60.5t55.5 72.5v-1q14 20 29 27.5t29 7.5q26 0 46 -21t20 -53q0 -24 -15 -51q-30 -51 -76 -97t-100 -81.5 t-112 -56t-112 -20.5q-28 0 -65.5 2t-81 9t-89.5 21t-90 37.5t-83.5 58.5t-69.5 85q-32 -37 -72.5 -69t-89 -55t-104 -36.5t-118.5 -13.5q-85 0 -155.5 36t-121.5 96t-79 137.5t-28 160.5zM253 494q0 -66 15.5 -122.5t46.5 -98.5t77.5 -65.5t108.5 -23.5q53 0 101 20 t86.5 53.5t64.5 78.5t34 95q-1 12 -1 24.5v24.5v17t1 18q-11 54 -43.5 99.5t-78 78.5t-99.5 52.5t-106 21.5q-13 0 -28 -3.5t-30 -8.5q-5 -2 -10 -3t-11 -3h2q-26 -2 -49.5 -30.5t-41.5 -68t-28.5 -82.5t-10.5 -74zM947 563l3 -12q32 -15 69.5 -21t75.5 -6q25 0 59.5 2 t70.5 10t71.5 23t63.5 41t45 64.5t17 92.5q0 19 -11 42.5t-31.5 43.5t-50.5 33.5t-67 13.5q-13 0 -25.5 -2t-27.5 -5q-52 -13 -98.5 -47t-82 -79t-57.5 -96t-24 -98z" />
<glyph unicode="&#x178;" horiz-adv-x="1089" d="M31 1317q0 19 7.5 36t19 30t26 20.5t28.5 7.5q17 0 32 -11.5t26 -37.5v1q31 -91 69.5 -177.5t82 -164t91.5 -144t97 -116.5q21 41 51.5 95t66.5 114t76 122t79 120t75 107t65 83q20 19 52 19q16 0 31.5 -5t28 -14t20.5 -22t8 -28q0 -11 -5 -21t-13 -23q-35 -48 -72 -102 q-50 -70 -100.5 -143t-96.5 -146t-84.5 -144t-64.5 -138q2 -80 7 -158.5t11.5 -152t13.5 -140t13 -121.5q1 -8 1.5 -14.5t1.5 -13.5v-10q0 -35 -25.5 -55t-56.5 -20q-13 0 -26.5 4.5t-24.5 13t-18.5 21t-9.5 29.5q-7 52 -13.5 121.5t-13 147t-12.5 159t-10 157.5 q-78 68 -145 148.5t-121 168.5t-95 181t-67 187q-5 8 -5.5 14.5t-0.5 14.5zM177 1717q0 46 31.5 76t82.5 30q20 0 39.5 -9t35 -24t25 -34t9.5 -39q0 -52 -31 -82t-78 -30q-58 0 -86 26.5t-28 85.5zM690 1717q0 21 9 40t23.5 33.5t33.5 23.5t40 9q24 0 45.5 -8.5t37 -22.5 t24.5 -33.5t9 -41.5q0 -57 -33.5 -84.5t-82.5 -27.5q-50 0 -78 33t-28 79z" />
<glyph unicode="&#x2c6;" horiz-adv-x="640" d="M74 1100q0 7 13 28.5t34 49.5t48 58.5t55.5 56.5t56 42.5t48.5 16.5q30 0 63 -19.5t63.5 -49.5t57 -66t43.5 -69q5 -12 8.5 -23.5t3.5 -22.5q0 -18 -7 -34t-18.5 -28t-26 -18.5t-28.5 -6.5q-19 0 -43 24t-47 54.5t-42 58t-29 34.5q-27 -27 -50 -52q-20 -22 -39.5 -44.5 t-30.5 -39.5t-25 -24t-27 -7q-15 0 -29.5 6.5t-26 17.5t-18.5 25.5t-7 31.5z" />
<glyph unicode="&#x2dc;" horiz-adv-x="902" d="M76 1200q0 58 21 101t53.5 71.5t71.5 42.5t75 14q33 0 60.5 -11.5t51.5 -29t45 -38t42 -38t43.5 -29t48.5 -11.5q20 0 32.5 10t21 24.5t15 32t15.5 32t22.5 24.5t35.5 10q13 0 27 -5t25 -14.5t18 -23.5t7 -31q0 -3 -1 -7.5t-1 -9.5q-7 -44 -27 -80.5t-49 -62.5 t-64.5 -40.5t-74.5 -14.5q-35 0 -63 12t-51.5 30t-43.5 38.5t-40 38.5t-41 30t-46 12q-23 0 -37 -11t-23.5 -27.5t-16.5 -36t-16 -36t-22.5 -27.5t-36.5 -11q-29 0 -53 18.5t-24 53.5z" />
<glyph unicode="&#x2000;" horiz-adv-x="1051" />
<glyph unicode="&#x2001;" horiz-adv-x="2103" />
<glyph unicode="&#x2002;" horiz-adv-x="1051" />
<glyph unicode="&#x2003;" horiz-adv-x="2103" />
<glyph unicode="&#x2004;" horiz-adv-x="701" />
<glyph unicode="&#x2005;" horiz-adv-x="525" />
<glyph unicode="&#x2006;" horiz-adv-x="350" />
<glyph unicode="&#x2007;" horiz-adv-x="350" />
<glyph unicode="&#x2008;" horiz-adv-x="262" />
<glyph unicode="&#x2009;" horiz-adv-x="420" />
<glyph unicode="&#x200a;" horiz-adv-x="116" />
<glyph unicode="&#x2010;" horiz-adv-x="1036" d="M53 714q0 27 18 49t50 22q189 -5 377 -9t378 -8q27 -1 46.5 -11.5t32.5 -27t19 -36.5t6 -41q0 -24 -7.5 -41.5t-20.5 -17.5l-761 10q-35 0 -61 10t-43 25.5t-25.5 35.5t-8.5 40z" />
<glyph unicode="&#x2011;" horiz-adv-x="1036" d="M53 714q0 27 18 49t50 22q189 -5 377 -9t378 -8q27 -1 46.5 -11.5t32.5 -27t19 -36.5t6 -41q0 -24 -7.5 -41.5t-20.5 -17.5l-761 10q-35 0 -61 10t-43 25.5t-25.5 35.5t-8.5 40z" />
<glyph unicode="&#x2012;" horiz-adv-x="1036" d="M53 714q0 27 18 49t50 22q189 -5 377 -9t378 -8q27 -1 46.5 -11.5t32.5 -27t19 -36.5t6 -41q0 -24 -7.5 -41.5t-20.5 -17.5l-761 10q-35 0 -61 10t-43 25.5t-25.5 35.5t-8.5 40z" />
<glyph unicode="&#x2013;" horiz-adv-x="1053" d="M59 772q-5 35 10 65t50 50q40 3 105 5.5t141.5 4t158 2t155.5 1t133 1t91 0.5q77 -27 77 -92q0 -62 -76 -82q-131 4 -246.5 4t-211.5 -2.5t-171 -6t-125 -6.5q-7 -1 -13.5 -2t-11.5 -1q-29 0 -45 15.5t-21 43.5z" />
<glyph unicode="&#x2014;" horiz-adv-x="1858" d="M105 772q-5 35 10 65t50 50q152 9 282 14.5t248.5 7t231.5 1t232 -2t248.5 -3.5t281.5 -3q77 -27 77 -92q0 -62 -76 -82q-65 2 -151 4t-185 3.5t-206.5 2.5t-216 1t-215 -1t-202 -3.5t-177 -7t-141.5 -10.5q-7 -1 -13.5 -2t-11.5 -1q-29 0 -45 15.5t-21 43.5z" />
<glyph unicode="&#x2018;" horiz-adv-x="715" d="M191 1365q0 133 71 238q35 52 81 91t104 68q8 -8 12.5 -13t9.5 -11q3 -4 6.5 -8t7.5 -9q-27 -14 -53 -34.5t-49 -49.5q-52 -69 -52 -194q26 15 39.5 20.5t21.5 5.5q10 0 27 -5q7 -2 16 -2h15q35 -19 55.5 -55t20.5 -82q0 -72 -47 -113q-45 -39 -110 -39q-91 0 -133.5 51 t-42.5 141z" />
<glyph unicode="&#x2019;" horiz-adv-x="715" d="M186 1606q0 31 12 60.5t33.5 52t50.5 36t63 13.5q88 0 134 -57q26 -29 37.5 -66.5t11.5 -83.5q0 -66 -18.5 -125.5t-57.5 -113.5q-38 -51 -86 -88t-107 -58q-8 6 -15.5 12.5t-12.5 11.5l-2 2q26 17 49.5 40.5t42.5 55.5q23 37 40 84t29 108q-25 -15 -41 -21.5t-27 -6.5 q-14 0 -27.5 4.5t-25.5 9.5q-41 8 -61 47h1q-23 46 -23 83z" />
<glyph unicode="&#x201a;" horiz-adv-x="782" d="M240 -268q27 25 51.5 51t42.5 52q23 35 34.5 69.5t15.5 69.5q-71 0 -98 37q-28 32 -28 84q0 50 28 81q30 36 83 36q57 0 86 -35q29 -34 29 -82q0 -63 -17 -120t-53 -108l1 1q-30 -38 -70 -74t-95 -72z" />
<glyph unicode="&#x201c;" horiz-adv-x="980" d="M89 1365q0 131 72 238q68 103 195 161q10 -11 17.5 -21t17.5 -21q-66 -32 -111 -101t-60 -181q29 17 44.5 23t24.5 6q8 0 15 -1t12 -3q6 -4 13.5 -3.5t13.5 0.5q36 -19 58 -55.5t22 -81.5q0 -72 -46 -113q-47 -39 -101 -39q-90 0 -138.5 51t-48.5 141zM391 1722 q4 2 7.5 3.5t8.5 3.5l-5 -20q-2 3 -5 6t-5 6q-1 0 -1 1zM557 1365q0 133 71 238q34 53 79.5 92t104.5 68q10 -9 18 -18.5t16 -18.5q2 -2 3 -4q-27 -14 -53.5 -36t-46.5 -49q-53 -68 -53 -197q23 17 38 23t23 6q12 0 23 -3q5 -3 15.5 -3.5t18.5 -0.5h2q33 -18 54 -54.5 t21 -82.5q0 -71 -45 -113q-48 -39 -114 -39q-90 0 -132.5 51t-42.5 141z" />
<glyph unicode="&#x201d;" horiz-adv-x="980" d="M82 1606q0 33 12 61t34 52q23 23 51.5 36t61.5 13q86 0 135 -57q50 -57 50 -150q0 -132 -77 -239q-38 -52 -85.5 -89t-105.5 -57q-2 2 -5 4.5t-5 4.5q-5 5 -11 10t-11 8q53 32 97 94q27 37 45.5 83t26.5 102q-28 -11 -47.5 -14.5t-30.5 -3.5q-14 0 -25 3.5t-18 8.5 q-47 10 -69 49q-23 41 -23 81zM551 1606q0 66 46 113q23 23 50.5 36t62.5 13q42 0 76 -15t60 -43q51 -59 51 -149q0 -130 -79 -239q-38 -52 -85 -89t-106 -57q-10 8 -17.5 14.5t-13.5 11.5q23 16 47 41t43 55q23 37 41.5 85.5t31.5 107.5q-52 -31 -78 -28q-25 5 -38 13 q-46 10 -69 50q-23 37 -23 80z" />
<glyph unicode="&#x201e;" horiz-adv-x="1174" d="M236 -268q28 25 52 51t43 52q42 69 50 139q-72 0 -99 37q-28 32 -28 84q0 50 28 81q30 36 84 36q57 0 85 -35q29 -34 29 -82q0 -63 -17 -120t-53 -108l1 1q-30 -38 -69.5 -74t-95.5 -72zM642 -268q28 25 52 51t43 52q21 35 33.5 69.5t15.5 69.5q-65 0 -98 37 q-27 33 -27 84q0 24 6.5 44.5t20.5 36.5h-1q34 36 85 36q55 0 85 -36v1q16 -17 23.5 -38t7.5 -44q0 -128 -72 -228l1 1q-56 -75 -164 -146z" />
<glyph unicode="&#x2022;" horiz-adv-x="881" d="M161 819q0 116 70 195q76 87 208 87q133 0 210 -87q71 -77 71 -195q0 -54 -17.5 -101.5t-53.5 -87.5q-78 -89 -210 -89q-133 0 -208 88q-70 79 -70 190z" />
<glyph unicode="&#x2026;" horiz-adv-x="1858" d="M115 140q0 59 34.5 97.5t103.5 38.5q59 0 100 -39q40 -40 40 -97q0 -71 -39.5 -105.5t-100.5 -34.5q-138 0 -138 140zM802 140q0 59 35 97.5t102 38.5q63 0 101 -39q39 -38 39 -97q0 -72 -38.5 -106t-101.5 -34q-67 0 -102 34t-35 106zM1474 140q0 59 35 97.5t103 38.5 q62 0 101 -39q39 -38 39 -97q0 -71 -40 -105.5t-100 -34.5q-68 0 -103 34t-35 106z" />
<glyph unicode="&#x202f;" horiz-adv-x="420" />
<glyph unicode="&#x2039;" horiz-adv-x="881" d="M220 603q-2 57 57 101q77 65 161.5 136.5t161.5 137.5q13 10 22 10q18 0 33 -39v1q4 -12 5 -23t1 -21q0 -34 -25 -52l-286 -250l289 -239q18 -11 24 -47q8 -28 -2 -54v1q-5 -15 -12 -25.5t-13 -15.5q-19 -6 -37 7l1 -1q-81 69 -161.5 137t-161.5 136h1q-57 50 -58 100z " />
<glyph unicode="&#x203a;" horiz-adv-x="881" d="M223 318q8 36 25 47l289 239l-286 250q-26 18 -26 52q0 22 7 44v-1q15 39 33 39q9 0 22 -10q77 -66 161.5 -137.5t161.5 -136.5q59 -44 57 -101q-3 -51 -58 -100h1q-81 -68 -161.5 -136t-161.5 -137l1 1q-19 -12 -37 -7q-6 5 -13.5 15.5t-12.5 25.5v-1q-8 26 -2 54z" />
<glyph unicode="&#x205f;" horiz-adv-x="525" />
<glyph unicode="&#x20ac;" horiz-adv-x="1332" d="M46 853q0 28 15 50.5t44 26.5h-1q18 1 38.5 1.5t39.5 2.5q21 2 46.5 3t46.5 2q26 98 73.5 178.5t113 137.5t147 88.5t176.5 31.5q42 0 88.5 -5.5t91 -17t84.5 -29.5t70 -42.5t48 -56t18 -70.5q0 -18 -8 -31.5t-20 -22.5t-27 -13.5t-29 -4.5q-20 0 -34.5 10t-14.5 31 q-100 100 -267 100q-54 0 -105 -16.5t-96 -51t-82.5 -87t-63.5 -123.5q88 4 187.5 6t191.5 2q32 0 46.5 -25.5t14.5 -58.5q0 -25 -9 -45t-21 -25q-31 0 -59.5 -0.5t-56.5 -0.5q-86 -1 -168 -2.5t-156 -4.5v-71q0 -40 3.5 -79t8.5 -74q99 4 208 6t213 2q32 0 46.5 -25.5 t14.5 -58.5q0 -25 -9 -44.5t-22 -24.5q-24 0 -46 -0.5t-44 -0.5q-79 -1 -161.5 -2.5t-151.5 -4.5q33 -56 73.5 -96.5t85.5 -67t92 -39t94 -12.5q36 0 82.5 7.5t93.5 26.5t90 52t72 83q11 21 25.5 30t28.5 9q24 0 44 -23t20 -57q0 -14 -3 -27t-12 -25q-30 -59 -82.5 -102 t-115.5 -71.5t-129 -42.5t-122 -14q-181 0 -311.5 93.5t-196.5 268.5q-31 -2 -70.5 -5t-72.5 -8q-2 0 -4 -0.5t-4 -0.5h-7q-33 0 -51.5 26t-18.5 56q0 29 15.5 52t44.5 26h-1l54 3q16 1 40.5 2.5t41.5 2.5q-8 45 -10.5 83.5t-2.5 75.5v63q-8 -1 -23 -2.5t-24 -2.5 q-20 -2 -40 -3.5t-42 -3.5h-6q-33 0 -51.5 25.5t-18.5 56.5z" />
<glyph unicode="&#x2122;" horiz-adv-x="1858" d="M143 1417q8 58 50 52l40 -10q70 0 147 3t154 7q80 5 146.5 12t122.5 16q20 4 36 -8t24 -32q17 -44 -30 -61h2q-20 -5 -38 -8.5t-35 -6.5q-21 -4 -38.5 -7t-34.5 -7q-19 0 -40 -1t-33 -3q-14 -2 -23 -3.5t-23 -1.5q0 -68 6 -148t16 -168q2 -12 3 -28t3 -30q2 -17 3.5 -34 t3.5 -33q9 -71 16 -134.5t17 -108.5q4 -10 -2 -19.5t-17.5 -17t-26 -12.5t-26.5 -5q-19 -10 -49 -2q-27 7 -27 37q0 9 -1 22.5t-3 29.5q0 30 -2 68.5t-2 91.5q-6 36 -11 77t-7 92q-6 62 -13 140t-15 167h-29.5t-21.5 -2q-15 -2 -37.5 -4t-42.5 -2q-13 0 -29.5 1t-37.5 3 q-20 2 -37.5 4.5l-31.5 4.5q-33 11 -26 69zM944 1331q-4 28 4 64q0 26 10.5 50t35.5 34q47 9 110 -68q4 -4 2 -3t2 -3v2q26 -35 48 -63t41 -51q22 -38 45.5 -75.5t45.5 -71.5t42.5 -61t36.5 -43q8 12 17.5 30t20.5 39.5t22.5 45.5t23.5 47q12 22 25.5 47t24.5 51 q16 32 30 61.5t27 56.5q29 56 35 74v-4q4 4 14 9.5t24 9.5t30 4t33 -8v2q16 -8 22 -28t6 -44v-678q0 -66 -50 -75q-48 -8 -48 61q-4 41 -9 92t-9 122q-5 72 -8 132.5t-3 110.5l-15 4q-48 -115 -78.5 -182t-46.5 -93q-11 -20 -25.5 -32t-26.5 -12q-22 -4 -42 3t-39.5 21.5 t-37.5 35.5t-35 45q-37 43 -79 111q-20 33 -38 61t-34 52l-14 -6q8 -97 16 -171t10 -116q0 -28 8 -62q4 -18 9 -37t5 -39q6 -35 10.5 -62.5t6.5 -46.5q-14 -26 -59 -36q-42 -10 -50 32q-20 36 -34 103t-14 152q-10 81 -19.5 174t-15.5 196q-9 8 -13 36z" />
<glyph unicode="&#x25fc;" horiz-adv-x="990" d="M0 0v990h990v-990h-990z" />
<glyph unicode="&#xfb01;" horiz-adv-x="1461" d="M63 829q0 28 19 47.5t49 33t67 21.5t74 14q6 1 11.5 2t11.5 3q-2 0 5 1t17 3v29q0 52 3.5 113t13 123t25.5 119.5t40.5 102t59 71t80.5 26.5q40 0 83.5 -16t80.5 -43.5t61 -64t24 -77.5q0 -38 -20 -65.5t-50 -27.5q-11 0 -23 5.5t-23 14.5q-11 7 -26 22q-11 11 -20 19 t-19 13.5t-22 8.5t-28 3q-25 0 -42 -35t-27.5 -88.5t-15.5 -116.5t-6 -119q52 5 102.5 6.5t93.5 1.5q12 0 23.5 0.5t23.5 0.5q11 1 21.5 1h20.5q22 0 41 -2.5t33 -11t21.5 -24t7.5 -41.5q0 -17 -8.5 -30t-22 -22t-31 -13.5t-36.5 -4.5h-38q-8 0 -13 1q-4 0 -10 0.5t-10 0.5 q-44 0 -99.5 -4t-115.5 -12q4 -78 14 -163t27 -181v-7.5t1 -6.5q0 -3 0.5 -5.5t0.5 -4.5q1 -5 1.5 -10t1.5 -10q7 -51 14 -114.5t7 -126.5q0 -36 -3 -67.5t-10.5 -54t-20.5 -35.5t-33 -13q-29 0 -53 27.5t-24 81.5v37q0 30 -2.5 64t-6 69.5t-8.5 71t-9 68.5l-6 49 q-5 33 -9.5 70.5t-8.5 76.5l-8 78t-7 74q-5 -2 -19.5 -5t-20.5 -5l-14 -4t-25 -6q-26 -7 -51 -9t-48 -2q-38 0 -62.5 18.5t-24.5 55.5zM952 1328q0 56 22 99t56 72.5t74.5 44.5t78.5 15q54 0 93.5 -19t65 -48.5t37.5 -64t12 -64.5q0 -46 -16 -87.5t-45.5 -74t-72 -54 t-95.5 -27.5q-5 0 -8 -0.5t-6 -1.5q-4 -1 -10 -1q-46 0 -80.5 19t-58 49.5t-35.5 68t-12 74.5zM1069 1329q0 -14 7 -30.5t20 -31t31 -24.5t40 -10q18 0 35.5 9.5t31 24t22 32t8.5 34.5q0 22 -7.5 42.5t-20.5 35.5t-31 24t-38 9q-46 0 -69.5 -33t-28.5 -82zM1073 860v10 q0 15 7 27t19 20t27.5 12t31.5 4q31 0 55 -13t27 -43q14 -124 21.5 -262.5t7.5 -281.5v-34t1 -36v1q1 -20 1 -41v-42q0 -43 -2.5 -84t-10 -73t-22 -51.5t-38.5 -19.5q-18 0 -35 7t-30.5 21t-21.5 34t-8 47v42t1 44t1.5 48t0.5 51q0 72 -1.5 151t-5.5 158.5t-10.5 157 t-15.5 146.5z" />
<glyph unicode="&#xfb02;" horiz-adv-x="1461" d="M64 829q0 28 19 47.5t49 33t67.5 21.5t73.5 14l12 2t12 3q-2 0 5 1t16 3v29q0 52 3.5 113t13 123t25.5 119.5t40.5 102t59 71t80.5 26.5q40 0 84 -16t81 -43.5t61 -64t24 -77.5q0 -38 -20.5 -65.5t-50.5 -27.5q-11 0 -22.5 5.5t-22.5 14.5q-7 4 -13 9t-14 13 q-21 22 -39 33t-50 11q-25 0 -41.5 -35t-27 -88.5t-15.5 -116.5t-6 -119q51 5 101.5 6.5t93.5 1.5q40 0 75 -5t61 -14t40.5 -21.5t14.5 -27.5q0 -18 -23.5 -37t-76.5 -42h-35q-8 0 -13 1q-4 0 -9.5 0.5t-9.5 0.5q-44 0 -100 -4t-115 -12q4 -78 13.5 -163t27.5 -181v-7.5 t1 -6.5q0 -3 0.5 -5.5t0.5 -4.5q1 -5 1.5 -10t1.5 -10q7 -51 13.5 -114.5t6.5 -126.5q0 -36 -2.5 -67.5t-10 -54t-20.5 -35.5t-33 -13q-30 0 -54 27.5t-24 81.5v37q0 30 -2.5 64t-6 69.5t-8 71t-8.5 68.5l-6 49q-5 33 -9.5 70.5t-9 76.5t-8.5 78t-7 74q-5 -2 -19 -5t-20 -5 q-8 -2 -15 -4t-24 -6q-27 -7 -52 -9t-48 -2q-38 0 -62.5 18.5t-24.5 55.5zM984 1491q0 44 31 63.5t95 19.5q19 0 38.5 -3.5t35 -15t25 -31.5t9.5 -53q0 -85 -2.5 -173t-5.5 -171q-3 -84 -5.5 -166t-2.5 -164q0 -109 3.5 -213.5t7.5 -205.5q4 -92 7 -178.5t3 -168.5 q0 -29 -23 -46.5t-53 -17.5t-54.5 20.5t-26.5 64.5q-10 165 -16.5 340t-6.5 357q0 165 9 333.5t20 320.5h-16q-35 5 -53.5 31t-18.5 57z" />
<glyph unicode="&#xfb03;" horiz-adv-x="2291" d="M57 829q0 28 19 47.5t49 33t67.5 21.5t74.5 14q6 1 11.5 2t11.5 3q-2 0 5.5 1t16.5 3v29q0 52 3.5 113t13 123t25 119.5t40 102t59 71t80.5 26.5q40 0 84 -16t81 -43.5t61 -64t24 -77.5q0 -38 -20.5 -65.5t-49.5 -27.5q-11 0 -22 5.5t-24 14.5q-5 3 -6 4q-5 5 -10.5 9 t-10.5 9q-11 11 -20 19t-19 13.5t-21.5 8.5t-27.5 3q-25 0 -42 -35t-27.5 -88.5t-15 -116.5t-5.5 -119q50 5 101 6.5t94 1.5q12 0 23.5 0.5t22.5 0.5q10 0 19 0.5t18 0.5q19 0 35 -2.5t27 -11t17 -24t6 -41.5q0 -70 -75 -70h-37q-9 0 -14 1q-4 0 -9 0.5t-10 0.5 q-44 0 -100 -4t-115 -12q5 -80 14.5 -163t25.5 -181v-7.5t1 -6.5q0 -3 0.5 -5.5t0.5 -4.5q8 -53 16.5 -122t8.5 -139q0 -36 -2.5 -67.5t-10 -54t-20.5 -35.5t-34 -13q-29 0 -53.5 28t-24.5 81v37q0 30 -2.5 64t-6 69.5t-8 71t-8.5 68.5l-6 49q-5 33 -9.5 71t-9 77t-8 78 t-6.5 74q-5 -2 -19 -5.5t-20 -5.5q-11 -4 -40 -10q-27 -7 -52 -9t-47 -2q-38 0 -63 18.5t-25 55.5zM910 829q0 28 18.5 47.5t48.5 33t67 21.5t73 14q8 1 13 2t11 3q0 -1 22 4v29q0 52 3.5 113t13 123t25.5 119.5t40.5 102t59 71t80.5 26.5q40 0 84 -16t81 -43.5t61 -64 t24 -77.5q0 -38 -20.5 -65.5t-49.5 -27.5q-21 0 -42 18q-9 6 -17 12t-14 12q-21 22 -39 33t-49 11q-26 0 -43 -35t-27.5 -88.5t-15.5 -116.5t-6 -119q51 5 102.5 6.5t94.5 1.5q12 0 23.5 0.5t22.5 0.5q11 1 22 1h21q22 0 41 -2.5t32.5 -11t21.5 -24t8 -41.5q0 -17 -8.5 -30 t-22 -22t-31.5 -13.5t-37 -4.5h-37q-9 0 -14 1q-4 0 -9.5 0.5t-9.5 0.5q-45 0 -100.5 -4t-114.5 -12q4 -80 13 -163t26 -181q0 -8 2 -14q1 -3 1 -10q8 -53 16 -122t8 -139q0 -36 -2.5 -67.5t-10 -54t-20.5 -35.5t-34 -13q-30 0 -53 27.5t-23 81.5v37q0 60 -8 126.5 t-17 134.5l-4 30t-4 31q-1 4 -1 8.5t-1 8.5l-8.5 68t-8.5 72.5t-7.5 73t-6.5 69.5q-6 -2 -20 -6t-20 -6q-4 -2 -15 -4.5t-23 -4.5q-28 -7 -52.5 -9t-47.5 -2q-38 0 -62 18.5t-24 55.5zM1799 1328q0 56 22 99t55.5 72.5t74 44.5t77.5 15q54 0 94 -19t65.5 -48.5t38 -64 t12.5 -64.5q0 -46 -16 -87.5t-45.5 -74t-72 -54t-95.5 -27.5h-8t-7 -1q-4 -1 -5.5 -1.5t-4.5 -0.5q-46 0 -80.5 19t-58 49.5t-35 68t-11.5 74.5zM1915 1329q0 -14 7 -30.5t20 -31t31.5 -24.5t40.5 -10q18 0 35 9.5t30.5 24t22 32t8.5 34.5q0 22 -7.5 42.5t-20.5 35.5 t-30.5 24t-37.5 9q-46 0 -70 -33t-29 -82zM1920 860v10q0 15 7 27t19 20t27.5 12t31.5 4q30 0 54.5 -13t27.5 -43q14 -124 21.5 -262.5t7.5 -281.5v-34t1 -36v1q1 -20 1 -41v-42q0 -43 -2.5 -84t-10.5 -73t-22.5 -51.5t-38.5 -19.5q-18 0 -35 7t-30.5 21t-21.5 34t-8 47 q0 21 0.5 42t1.5 44t1.5 48t0.5 51q0 73 -2 152t-6 158.5t-10.5 156.5t-14.5 146z" />
<glyph unicode="&#xfb04;" horiz-adv-x="2197" d="M59 829q0 28 19 47.5t49 33t67.5 21.5t74.5 14q6 1 11.5 2t11.5 3q-2 0 5 1t16 3v29q0 52 3.5 113t13 123t25 119.5t40 102t59 71t80.5 26.5q40 0 84 -16t81 -43.5t61.5 -64t24.5 -77.5q0 -19 -5.5 -36t-15 -29.5t-22.5 -20t-27 -7.5q-11 0 -22.5 5.5t-23.5 14.5 q-5 3 -6 4q-5 5 -11 9t-11 9q-21 22 -38.5 33t-48.5 11q-25 0 -42 -35t-27.5 -88.5t-15.5 -116.5t-6 -119q50 5 101.5 6.5t94.5 1.5q12 0 23 0.5t22 0.5t20 0.5t17 0.5q19 0 35 -2.5t27.5 -11t17.5 -24t6 -41.5q0 -70 -76 -70h-36h-7t-8 1q-4 0 -9 0.5t-10 0.5q-43 0 -99 -4 t-116 -12q5 -80 15 -163t26 -181v-7.5t1 -6.5q0 -3 0.5 -5.5t0.5 -4.5q8 -53 16 -122t8 -139q0 -36 -2.5 -67.5t-10 -54t-20.5 -35.5t-34 -13q-29 0 -53 27.5t-24 81.5v37q0 30 -2.5 64t-6.5 69.5t-8.5 71t-8.5 68.5l-6 49q-5 33 -9.5 71t-8.5 77t-7.5 78t-6.5 74 q-6 -2 -19.5 -5.5t-19.5 -5.5q-12 -4 -41 -10q-26 -7 -51 -9t-48 -2q-38 0 -62.5 18.5t-24.5 55.5zM911 829q0 28 18.5 47.5t48.5 33t67 21.5t74 14q7 1 12 2t11 3q0 -1 6.5 0.5t16.5 3.5v29q0 52 3.5 113t13 123t25.5 119.5t40.5 102t59 71t80.5 26.5q40 0 83.5 -16 t80.5 -43.5t61 -64t24 -77.5q0 -38 -20 -65.5t-50 -27.5q-19 0 -42 18q-18 12 -30 24q-11 11 -20 19t-19 13.5t-22 8.5t-28 3q-25 0 -42 -35t-27.5 -88.5t-15.5 -116.5t-6 -119q51 5 102 6.5t94 1.5q40 0 75 -5t60.5 -14t40.5 -21.5t15 -27.5q0 -17 -23.5 -36.5t-76.5 -42.5 h-35q-8 0 -13 1q-4 0 -9.5 0.5t-9.5 0.5q-45 0 -100.5 -4t-114.5 -12q4 -80 13 -163t25 -181q0 -8 2 -14q1 -3 1 -10q8 -53 16.5 -122t8.5 -139q0 -36 -2.5 -67.5t-10 -54t-20.5 -35.5t-34 -13q-30 0 -53.5 27.5t-23.5 81.5v37q0 60 -7.5 126.5t-16.5 134.5l-4 30t-4 31 q-1 4 -1 8.5t-1 8.5q-5 32 -9 68t-8 72.5t-7.5 73t-6.5 69.5q-6 -2 -20.5 -6t-20.5 -6q-4 -2 -14.5 -4.5t-22.5 -4.5q-28 -7 -52.5 -9t-47.5 -2q-38 0 -62.5 18.5t-24.5 55.5zM1831 1491q0 44 30.5 63.5t95.5 19.5q19 0 38.5 -3.5t35 -15t25 -31.5t9.5 -53q0 -85 -2.5 -173 t-5.5 -171q-3 -84 -5.5 -166t-2.5 -164q0 -109 3 -213.5t7 -205.5q4 -92 6.5 -178.5t2.5 -168.5q0 -29 -22 -46.5t-52 -17.5t-55 20.5t-27 64.5q-10 165 -16.5 340t-6.5 357q0 165 9.5 333.5t20.5 320.5h-16q-35 5 -53.5 31t-18.5 57z" />
</font>
</defs>
</svg>
